<svg width="48" height="46" viewBox="0 0 48 46" fill="none" xmlns="http://www.w3.org/2000/svg">
<path d="M18.4875 35.0732C25.6223 34.7502 32.7259 33.8624 39.7984 32.4098C41.4106 32.1084 41.992 29.8101 41.1491 28.6527C37.2249 22.9914 34.6071 16.6205 32.264 10.0929C31.59 8.14721 28.7381 9.08366 29.2042 11.1117C30.5944 17.0545 32.883 22.5937 35.4541 28.1172C29.7703 29.0683 23.9963 29.6702 18.2736 29.9152C14.9513 30.0278 15.1652 35.1857 18.4875 35.0732Z" fill="#1F1F1F"/>
<path d="M7.35562 24.5675C10.1832 25.757 12.6192 24.9852 15.6435 24.6058C19.2326 24.1953 22.7471 23.7181 26.3362 23.3075C28.1641 23.065 29.2591 21.0925 28.2516 19.5193C24.7433 13.6933 21.9843 7.33032 18.5427 1.42989C17.6097 -0.0766195 14.9146 1.13439 15.6475 2.8644C17.7871 8.27014 20.5505 13.429 22.7568 18.7602C20.3641 19.0339 17.8301 19.3154 15.4374 19.5891C12.4799 19.894 9.64015 19.7674 7.25866 21.5277C6.16797 22.2961 6.05359 24.0728 7.35562 24.5675Z" fill="#1F1F1F"/>
</svg>
