<svg width="62" height="71" viewBox="0 0 62 71" fill="none" xmlns="http://www.w3.org/2000/svg">
<path d="M53.1292 42.6098C44.1292 51.8098 34.0292 58.3098 26.9292 69.3098C26.4292 70.0098 25.6292 70.1098 24.8292 69.8098C24.3292 70.3098 23.4292 70.4098 22.7292 69.7098C14.5292 60.4098 9.62917 49.6098 6.12917 38.1098C3.32917 28.9098 -2.47081 14.6098 3.32919 5.90977C7.12918 0.109773 14.8292 -0.190215 20.9292 3.10979C27.7292 6.80978 30.3292 13.6097 31.6292 20.5097C34.3292 15.5097 38.3292 11.2098 44.6292 10.3098C51.9292 9.3098 58.3292 14.2098 60.4292 20.9098C62.9292 29.1098 58.5292 37.0098 53.1292 42.6098ZM55.7292 20.3098C52.6292 14.1098 45.0292 12.8098 39.8292 16.6098C35.7292 19.5098 33.9292 24.2098 32.3292 28.7098C31.7292 30.5098 28.6292 30.0098 28.4292 28.1098C27.5292 20.1098 26.4292 9.4098 17.4292 5.8098C14.1292 4.0098 11.6292 4.9098 9.62917 8.3098C5.52917 9.8098 4.02921 12.5098 5.22921 16.6098C5.42921 20.2098 6.42921 23.8098 7.22921 27.3098C10.5292 41.3098 15.3292 54.7098 23.8292 66.7098C30.1292 56.3098 38.9292 50.0098 47.8292 41.9098C53.6292 36.7098 59.8292 28.5098 55.7292 20.3098Z" fill="#1F1F1F"/>
</svg>
