<svg width="26" height="26" viewBox="0 0 26 26" fill="none" xmlns="http://www.w3.org/2000/svg">
<path d="M24.9844 0.00476074H1.01562C0.454695 0.00476074 0 0.459456 0 1.02039C0 4.95542 1.16431 8.40053 3.66412 11.8623C5.22371 14.0221 8.02156 15.6122 9.44531 16.3242V22.4904C9.44531 22.878 9.66601 23.2318 10.0141 23.4024L15.0922 25.8907C15.2336 25.96 15.3865 25.9943 15.539 25.9943C15.7261 25.9943 15.9126 25.9427 16.0765 25.8405C16.3739 25.655 16.5547 25.3292 16.5547 24.9787V20.793C16.5547 20.2321 16.1 19.7774 15.5391 19.7774C14.9781 19.7774 14.5234 20.2321 14.5234 20.793V23.35L11.4766 21.857V15.6857C11.4766 15.289 11.2455 14.9285 10.885 14.7629C8.98889 13.8917 6.52884 12.3598 5.31091 10.6731C3.29311 7.8789 2.24748 5.11015 2.06157 2.03601H23.9384C23.7525 5.1101 22.7069 7.8789 20.6891 10.6731C19.4019 12.4557 16.9797 14.0186 15.1503 14.7766C14.6321 14.9914 14.3861 15.5855 14.6008 16.1037C14.8155 16.6219 15.4096 16.8679 15.9279 16.6531C17.8688 15.8489 20.7117 14.1116 22.3359 11.8623C24.8357 8.40053 26 4.95542 26 1.02039C26 0.459456 25.5453 0.00476074 24.9844 0.00476074Z" fill="#1F1F1F"/>
</svg>
