<svg width="24" height="25" viewBox="0 0 24 25" fill="none" xmlns="http://www.w3.org/2000/svg">
<path d="M3 6.75C3 5.88805 3.34241 5.0614 3.9519 4.4519C4.5614 3.84241 5.38805 3.5 6.25 3.5H17.749C18.611 3.5 19.4376 3.84241 20.0471 4.4519C20.6566 5.0614 20.999 5.88805 20.999 6.75V11.511C20.4887 11.4667 19.9751 11.542 19.499 11.731V10.5H15.499V14.5H16.354L13.999 16.855V16H9.999V20H11.54C11.5331 20.0253 11.5264 20.0506 11.52 20.076L11.164 21.499H6.25C5.82312 21.499 5.40042 21.4149 5.00605 21.2515C4.61167 21.0881 4.25335 20.8486 3.95155 20.5467C3.64975 20.2448 3.41037 19.8865 3.2471 19.492C3.08384 19.0976 2.99987 18.6749 3 18.248V6.75ZM6.25 5C5.78587 5 5.34075 5.18437 5.01256 5.51256C4.68437 5.84075 4.5 6.28587 4.5 6.75V9H8.5V5H6.25ZM4.5 10.5V14.499H8.5V10.499H4.5V10.5ZM10 10.5V14.499H13.999V10.499H9.999L10 10.5ZM15.499 9H19.499V6.75C19.499 6.28587 19.3146 5.84075 18.9864 5.51256C18.6582 5.18437 18.2131 5 17.749 5H15.499V9ZM13.999 5H9.999V9H13.999V5ZM4.499 15.999V18.249C4.499 19.215 5.283 19.999 6.249 19.999H8.5V15.999H4.5H4.499ZM19.765 12.705C19.5166 12.8183 19.2906 12.9755 19.098 13.169L13.197 19.07C12.8525 19.4142 12.6081 19.8456 12.49 20.318L12.033 22.148C11.833 22.945 12.555 23.666 13.351 23.467L15.181 23.009C15.6533 22.8911 16.0847 22.6471 16.429 22.303L22.33 16.4C22.709 16.0211 22.9428 15.5211 22.9906 14.9873C23.0384 14.4535 22.8972 13.9199 22.5915 13.4797C22.2859 13.0395 21.8353 12.7206 21.3185 12.5788C20.8017 12.437 20.2515 12.4813 19.764 12.704L19.765 12.705Z" fill="#FDA3C4"/>
</svg>
