<svg width="22" height="24" viewBox="0 0 22 24" fill="none" xmlns="http://www.w3.org/2000/svg">
<g clip-path="url(#clip0_5_11602)">
<path d="M15.1082 4.86192C14.8812 5.33978 14.7458 5.85593 14.7089 6.38366H3.28487C2.84092 6.38366 2.41516 6.56002 2.10124 6.87394C1.78732 7.18786 1.61096 7.61362 1.61096 8.05757V8.41792L10.437 13.7136L16.4303 10.118C16.9359 10.4917 17.5182 10.7483 18.1352 10.8691L10.8284 15.2536C10.7237 15.3163 10.6055 15.3529 10.4836 15.3603C10.3618 15.3677 10.24 15.3457 10.1284 15.2962L10.0457 15.2536L1.61096 10.1923V18.101C1.61096 18.6897 2.08818 19.1663 2.67618 19.1663H18.1979C18.4804 19.1663 18.7514 19.054 18.9511 18.8543C19.1509 18.6545 19.2631 18.3836 19.2631 18.101V10.9385C19.7909 10.9014 20.307 10.7658 20.7849 10.5386V18.101C20.7849 18.7871 20.5123 19.4451 20.0272 19.9303C19.542 20.4154 18.884 20.688 18.1979 20.688H2.67618C1.99007 20.688 1.33207 20.4154 0.846924 19.9303C0.361776 19.4451 0.0892222 18.7871 0.0892222 18.101L0.0886136 8.90122C0.0863476 8.86738 0.0863476 8.83342 0.0886136 8.79957L0.0892222 8.05757C0.0892222 6.29236 1.51966 4.86192 3.28487 4.86192H15.1082ZM18.9588 3.64453C19.766 3.64453 20.5401 3.96518 21.1108 4.53594C21.6816 5.10671 22.0023 5.88083 22.0023 6.68801C22.0023 7.49519 21.6816 8.26931 21.1108 8.84007C20.5401 9.41083 19.766 9.73148 18.9588 9.73148C18.1516 9.73148 17.3775 9.41083 16.8067 8.84007C16.236 8.26931 15.9153 7.49519 15.9153 6.68801C15.9153 5.88083 16.236 5.10671 16.8067 4.53594C17.3775 3.96518 18.1516 3.64453 18.9588 3.64453Z" fill="#1F1F1F"/>
</g>
<defs>
<clipPath id="clip0_5_11602">
<rect width="22" height="24" fill="white"/>
</clipPath>
</defs>
</svg>
