<svg width="18" height="22" viewBox="0 0 18 22" fill="none" xmlns="http://www.w3.org/2000/svg">
<path d="M4.625 0C3.18563 0 2 1.24208 2 2.75V19.25C2 20.7579 3.18563 22 4.625 22H13.375C14.8144 22 16 20.7579 16 19.25V2.75C16 1.24208 14.8144 0 13.375 0H4.625ZM4.625 1.83333H13.375C13.8606 1.83333 14.25 2.24125 14.25 2.75V19.25C14.25 19.7588 13.8606 20.1667 13.375 20.1667H4.625C4.13937 20.1667 3.75 19.7588 3.75 19.25V2.75C3.75 2.24125 4.13937 1.83333 4.625 1.83333ZM9 17.4167C8.76794 17.4167 8.54538 17.5132 8.38128 17.6852C8.21719 17.8571 8.125 18.0902 8.125 18.3333C8.125 18.5764 8.21719 18.8096 8.38128 18.9815C8.54538 19.1534 8.76794 19.25 9 19.25C9.23206 19.25 9.45462 19.1534 9.61872 18.9815C9.78281 18.8096 9.875 18.5764 9.875 18.3333C9.875 18.0902 9.78281 17.8571 9.61872 17.6852C9.45462 17.5132 9.23206 17.4167 9 17.4167Z" fill="#1F1F1F"/>
</svg>
