<svg width="26" height="24" viewBox="0 0 26 24" fill="none" xmlns="http://www.w3.org/2000/svg">
<path d="M10.0276 23.4717L10.233 23.3065L10.4853 23.3826C10.6023 23.4179 10.6959 23.4221 10.7601 23.4114C10.8138 23.4025 10.8449 23.3843 10.8669 23.3619C12.4365 21.4097 14.3282 19.8657 16.291 18.4219C16.9338 17.9491 17.5805 17.4894 18.2268 17.03C19.575 16.0719 20.9209 15.1153 22.2235 14.0444C23.3553 13.1003 24.3558 11.983 24.9447 10.7847C25.5286 9.59675 25.7013 8.34757 25.2231 7.08428C24.409 4.99851 21.8828 3.4017 18.9336 3.72612C16.4009 4.01748 14.7937 5.39791 13.6879 7.04488L13.0478 7.99814L12.786 6.8802C12.2438 4.566 11.1882 2.38529 8.45975 1.19097C7.21536 0.649597 5.81326 0.407114 4.54254 0.532338C3.27177 0.657567 2.17165 1.14439 1.45892 2.01931L1.45894 2.01932L1.45621 2.0226C0.358255 3.34717 0.318953 5.14039 0.771702 7.10924C1.11284 8.59274 1.70735 10.0767 2.24507 11.419C2.4219 11.8604 2.5926 12.2864 2.74612 12.6921C4.23413 16.6243 6.30556 20.29 9.75846 23.4444C9.79454 23.4712 9.83155 23.4869 9.86716 23.4944L9.5346 23.1168C5.80628 18.8836 3.70865 14.1634 2.27293 9.26476L2.2718 9.26081C2.2128 9.0532 2.14997 8.8409 2.086 8.62477C1.79482 7.64095 1.48018 6.57784 1.39676 5.51746C1.12659 4.73225 1.14583 3.98945 1.56609 3.35928C1.95554 2.77531 2.6326 2.37776 3.48662 2.10505C3.94246 1.5248 4.48297 1.11477 5.1305 0.942858C5.81957 0.759918 6.55573 0.866336 7.32772 1.20068C9.40876 1.87759 10.5889 3.2258 11.2863 4.75562C11.9539 6.21985 12.183 7.86156 12.3713 9.21069C12.377 9.25149 12.3826 9.29202 12.3883 9.33226L12.3883 9.33226L12.3889 9.33664L12.389 9.3372C12.389 9.33729 12.3891 9.33746 12.3892 9.33772C12.3897 9.33867 12.3907 9.34073 12.3929 9.34393C12.3987 9.35253 12.413 9.36945 12.4428 9.3903C12.5054 9.43419 12.6076 9.47492 12.7319 9.49062C12.856 9.50631 12.9659 9.49242 13.0391 9.46495C13.0739 9.45188 13.0933 9.43845 13.1026 9.43032C13.1105 9.42347 13.112 9.41988 13.1127 9.41821L13.1127 9.41814L13.1126 9.41808L13.1173 9.4074C13.8052 7.85136 14.635 6.07622 16.5579 4.98096C17.7875 4.25934 19.2869 4.02723 20.6597 4.26215C22.0343 4.49737 23.3284 5.21078 24.0881 6.43284C25.0977 8.05682 24.8164 9.68417 23.992 11.0854C23.1807 12.4645 21.8229 13.6742 20.5514 14.5912C19.7067 15.2095 18.8717 15.7932 18.0548 16.3642C15.1043 18.4269 12.3903 20.3242 10.3092 23.0872L10.0128 23.4806C10.0198 23.4772 10.0248 23.474 10.0276 23.4717Z" fill="white" stroke="#FDA3C4"/>
</svg>
