<svg width="82" height="86" viewBox="0 0 82 86" fill="none" xmlns="http://www.w3.org/2000/svg">
<path d="M79.9363 51.7351C78.2096 51.3145 71.3889 50.3877 69.3778 51.7351L68.875 44.1934C69.9526 44.5525 71.3889 45.5582 71.3889 44.6961C71.3889 43.6186 77.3211 45.0002 77.3211 45.0002C77.3211 46.9278 79.6491 48.0719 78.9307 48.9698C80.0082 48.7902 82.3715 52.3283 79.9363 51.7351Z" fill="#F40000" stroke="#1F1F1F"/>
<path d="M73.5508 30.4546C73.9818 26.1443 66.6859 24.7291 63.094 25.0883L63.8527 20.7565C64.7507 20.2177 67.0079 20.024 70.8871 21.3171C75.7362 22.9334 78.4289 26.1443 77.861 30.4546C77.2952 34.7492 73.7304 38.7158 71.3957 40.1525L69.7793 36.9198C70.8569 36.5607 73.1198 34.7648 73.5508 30.4546Z" fill="#F40000" stroke="#1F1F1F"/>
<path d="M19.8549 27.7585C30.1994 23.8792 35.9433 27.3487 41.2237 32.6074C43.2336 34.3877 42.1935 33.5773 46.0727 30.9911C49.9519 28.405 54.5136 27.7584 56.3095 27.7584C71.3954 27.7584 72.6472 40.9244 71.9342 46.077C71.3433 50.3465 59.0034 79.4813 41.2237 78.4038C23.444 77.3262 19.1337 61.7016 15.9011 57.3913C12.6684 53.0811 6.92415 32.6075 19.8549 27.7585Z" fill="#FDA3C4"/>
<path d="M11.3075 57.3913C10.1008 57.3913 9.46398 57.8098 9.29639 58.019C9.29639 58.1866 9.4975 58.4715 10.302 58.2704C11.3075 58.019 11.3075 57.7692 11.3075 57.3913Z" fill="#FDA3C4"/>
<path d="M19.8549 27.7585C30.1994 23.8792 35.9433 27.3487 41.2237 32.6074C43.2336 34.3877 42.1935 33.5773 46.0727 30.9911C49.9519 28.405 54.5136 27.7584 56.3095 27.7584C71.3954 27.7584 72.6472 40.9244 71.9342 46.077C71.3433 50.3465 59.0034 79.4813 41.2237 78.4038C23.444 77.3262 19.1337 61.7016 15.9011 57.3913C12.6684 53.0811 6.92415 32.6075 19.8549 27.7585Z" stroke="#1F1F1F"/>
<path d="M11.3075 57.3913C10.1008 57.3913 9.46398 57.8098 9.29639 58.019C9.29639 58.1866 9.4975 58.4715 10.302 58.2704C11.3075 58.019 11.3075 57.7692 11.3075 57.3913Z" stroke="#1F1F1F"/>
<path d="M60.3268 22.0695C54.7235 28.1038 54.4005 34.5671 55.2985 35.6447L56.5562 38.1586L59.0701 34.6391C58.0646 34.1363 60.722 28.5341 62.3381 27.0973C69.2345 19.7699 64.206 13.7738 61.3325 12.5166C63.0923 14.5277 65.9301 16.0352 60.3268 22.0695Z" fill="#F40000" stroke="#1F1F1F"/>
<path d="M52.2817 12.0145C54.9078 13.984 59.7195 17.9757 61.6951 20.3104C63.5944 18.5507 64.2812 14.3972 61.6951 12.6727C58.4624 10.517 56.3073 6.7466 56.8461 4.0527C57.3848 1.3588 58.3157 0.450571 61.1563 2.43636C63.3051 3.93856 61.1563 6.56667 59.54 8.36243C59.1808 8.90138 58.5702 9.65591 61.1563 8.36243C63.7424 7.06895 65.6461 7.82348 66.0053 8.36243C66.5441 1.89707 61.6689 0.145717 55.7685 1.35829C50.5222 2.43644 50.2705 10.5063 52.2817 12.0145Z" fill="#1F1F1F" stroke="#1F1F1F"/>
<path d="M4.58571 45.5382C7.6388 44.9994 12.6674 44.9994 8.35717 49.3096C2.96937 54.6974 -0.802085 60.0857 1.89181 63.3184C4.58571 66.5511 8.89649 67.0898 11.0516 63.3184C13.2067 59.5469 8.89703 54.6979 6.74137 56.3142C4.58571 57.9306 4.04639 63.8572 8.35717 64.3959C12.668 64.9347 16.8725 65.9558 23.8767 63.8007C30.8808 61.6456 31.7058 67.4636 31.1671 69.08C30.6283 70.6963 21.2884 75.1715 20.7496 79.4818C20.2109 83.792 25.5987 87.0247 28.8313 83.2532C32.064 79.4818 26.6762 77.3267 25.5987 79.4818C24.7366 81.2059 26.317 81.2777 27.215 81.0981" stroke="#F40000"/>
<path d="M55.7584 39.5245C51.9102 39.0348 52.2837 35.1423 54.6808 34.1367C55.049 37.1534 58.093 35.9327 58.9909 34.1367C61.146 35.2143 60.8312 40.1701 55.7584 39.5245Z" fill="#1F1F1F"/>
<circle cx="10.2999" cy="26.3449" r="1.75696" fill="#1F1F1F" stroke="#1F1F1F"/>
<circle cx="47.1488" cy="23.9516" r="1.57756" fill="white" stroke="#1F1F1F"/>
<circle cx="13.1713" cy="75.1718" r="1.57756" fill="#FDA3C4" stroke="#1F1F1F"/>
<circle cx="66.9057" cy="69.0639" r="1.57756" fill="#FDA3C4" stroke="#1F1F1F"/>
<path d="M11.0859 27.2559L18.6289 35.3376" stroke="#1F1F1F"/>
<path d="M25.0603 53.083C25.0603 53.083 10.0509 60.0345 7.8194 59.5484C5.58794 59.0622 7.53726 57.7899 8.89696 57.3932C11.056 56.7634 20.0317 54.3402 25.0603 53.083Z" fill="white" stroke="#1F1F1F"/>
<path d="M14.2852 74.093L27.7546 63.3174" stroke="#1F1F1F"/>
<path d="M46.612 25.0635L42.4805 33.3815" stroke="#1F1F1F"/>
<path d="M56.6328 65.3286L65.7921 68.5613" stroke="#1F1F1F"/>
<ellipse cx="9.93287" cy="58.0336" rx="1.69663" ry="0.502784" transform="rotate(-17.8865 9.93287 58.0336)" fill="#1F1F1F"/>
<path d="M27.2132 81.0027C26.3152 81.1823 24.7348 81.1104 25.5968 79.3863C26.6744 77.2312 32.0622 79.3863 28.8295 83.1578C25.5968 86.9292 20.209 83.6966 20.7478 79.3863C21.2866 75.0761 30.6264 70.6009 31.1652 68.9845C31.704 67.3682 30.879 61.5502 23.8748 63.7053C16.8707 65.8604 12.6661 64.8393 8.35532 64.3005C4.04455 63.7617 4.58387 57.8351 6.73952 56.2188C7.83353 55.3985 10.2993 56.7622 10.8021 58.0191" stroke="#F40000"/>
</svg>
