<svg width="71" height="86" viewBox="0 0 71 86" fill="none" xmlns="http://www.w3.org/2000/svg">
<path d="M61.4759 57.916C64.267 49.0773 56.4363 42.6033 52.172 40.4712C51.2028 43.9601 49.846 51.7522 52.172 55.0085C54.498 58.2649 55.0794 62.5679 55.0794 64.3124V68.9643L61.4759 57.916Z" fill="#1F1F1F" stroke="#1F1F1F"/>
<path d="M36.1879 3.12586C40.5345 0.531475 46.0011 0.171859 42.9901 5.73684C40.1491 10.9877 37.2661 12.7975 35.9813 13.1147C39.2065 12.4899 43.5998 11.6995 42.5705 15.767C41.8026 18.8012 37.7302 20.5204 36.7695 20.6488C39.3442 20.8914 41.2663 23.5679 39.1148 25.0287C34.8119 27.9503 32.0451 27.7329 31.1996 27.2589C31.5201 28.1939 31.8926 32.4453 24.5141 29.9113L16.9687 25.029C21.5228 18.6284 28.4436 7.74482 36.1879 3.12586Z" fill="white" stroke="#1F1F1F"/>
<path d="M50.4309 64.3091L24.8452 62.5646L13.7969 52.0977L16.1228 24.7676L46.942 26.5121L53.3384 36.9789L50.4309 64.3091Z" fill="#F40000"/>
<path d="M26.5897 36.9789L24.8452 62.5646M26.5897 36.9789H53.3384M26.5897 36.9789L16.1228 24.7676M26.5897 36.9789L29.8774 49.1903M24.8452 62.5646L50.4309 64.3091M24.8452 62.5646L13.7969 52.0977L16.1228 24.7676M24.8452 62.5646L29.8774 49.1903M50.4309 64.3091L53.3384 36.9789M50.4309 64.3091L48.1721 49.1903M53.3384 36.9789L46.942 26.5121L16.1228 24.7676M53.3384 36.9789L48.1721 49.1903M48.1721 49.1903L46.942 52.0977H30.6602L29.8774 49.1903" stroke="#1F1F1F"/>
<path d="M21.3522 56.1699L1 63.7293L9.72239 84.6631L13.7928 77.1037C34.1451 86.989 52.7529 78.2667 55.0788 75.9407C56.9396 74.0799 60.1184 62.7602 61.4753 57.3329C54.9625 71.2887 30.0746 68.5751 18.4448 65.4738L21.3522 56.1699Z" fill="#FDA3C4" stroke="#1F1F1F"/>
<path d="M39.5661 40.4004C41.1606 41.458 41.4473 42.8308 39.3784 43.9591C32.9823 47.4471 32.4005 39.3071 34.7265 36.3997C36.5872 34.0737 49.8452 18.3742 62.0566 13.1399C66.7085 11.1441 72.1745 11.5118 68.453 16.6289C64.9415 21.4572 61.8442 22.8691 60.5288 23.0134C63.8082 22.8213 68.2675 22.6198 66.7085 26.5151C65.5456 29.4208 61.2812 30.5855 60.3121 30.5855C62.8319 31.167 64.3826 34.0745 62.0566 35.2375C57.4046 37.5635 54.691 36.9814 53.9157 36.3997C54.1095 37.3688 53.9157 41.6322 46.9378 38.1431C48.5226 40.7845 47.2279 43.4266 39.5661 40.4004Z" fill="white" stroke="#1F1F1F"/>
</svg>
