<svg width="76" height="87" viewBox="0 0 76 87" fill="none" xmlns="http://www.w3.org/2000/svg">
<path d="M24.6124 67.4177L15.7227 76.2042C15.7227 77.9821 19.8712 85.6865 23.4271 85.6865C26.2718 85.6865 25.4026 80.9454 24.6124 78.5748L31.1315 72.0556L24.6124 67.4177Z" fill="#FDA3C4"/>
<path d="M38.8359 70.2777L44.5764 61.1254L53.4321 64.8542L46.5403 72.0556C47.3305 74.2287 48.0812 78.8118 44.7624 79.7601C41.4435 80.7083 39.4285 73.8336 38.8359 70.2777Z" fill="#FDA3C4"/>
<path d="M35.28 43.0159C34.8059 42.5418 29.9462 48.7449 27.5756 51.9056C26.983 52.8933 25.7977 55.3428 25.7977 57.2392C25.7977 59.1357 32.5143 60.7953 35.8727 61.388L42.9844 57.2392C41.7991 56.0539 39.5471 53.2092 40.0212 51.3128C40.4953 49.4163 44.5648 48.9422 46.5403 48.9422C42.9844 47.1643 35.7541 43.4901 35.28 43.0159Z" fill="#FDA3C4"/>
<path d="M24.6124 67.4177L15.7227 76.2042C15.7227 77.9821 19.8712 85.6865 23.4271 85.6865C26.2718 85.6865 25.4026 80.9454 24.6124 78.5748L31.1315 72.0556L24.6124 67.4177Z" stroke="#1F1F1F"/>
<path d="M38.8359 70.2777L44.5764 61.1254L53.4321 64.8542L46.5403 72.0556C47.3305 74.2287 48.0812 78.8118 44.7624 79.7601C41.4435 80.7083 39.4285 73.8336 38.8359 70.2777Z" stroke="#1F1F1F"/>
<path d="M35.28 43.0159C34.8059 42.5418 29.9462 48.7449 27.5756 51.9056C26.983 52.8933 25.7977 55.3428 25.7977 57.2392C25.7977 59.1357 32.5143 60.7953 35.8727 61.388L42.9844 57.2392C41.7991 56.0539 39.5471 53.2092 40.0212 51.3128C40.4953 49.4163 44.5648 48.9422 46.5403 48.9422C42.9844 47.1643 35.7541 43.4901 35.28 43.0159Z" stroke="#1F1F1F"/>
<path d="M37.0613 24.6435C35.876 21.4827 33.8594 12.885 37.0613 8.69033C39.8443 5.04451 39.7724 0.999852 41.5499 1C43.3274 1.00015 44.3464 4.8505 44.3464 6.82614C49.9022 6.82614 52.9691 8.69033 54.8335 9.62268C56.6979 10.555 57.8631 4.00026 60.1935 4.72873C61.6478 5.18332 61.5997 10.0253 60.9816 15.1616C65.0587 10.2229 72.3119 3.26871 74.9908 7.45717C76.5067 9.82733 64.579 21.2853 58.4842 24.6435C57.3312 27 55.7603 28.7837 53.6555 29.3851L50.6922 32.3483C52.9236 34.5214 57.606 38.986 58.4842 39.4601C59.582 40.0528 63.8821 37.395 66.2527 35.0244C68.6233 32.6538 72.6202 35.9042 69.657 39.4601C66.6937 43.016 63.7305 47.7572 57.2114 45.3866C54.3429 44.3435 51.8211 43.0136 49.9022 41.8307L46.5437 48.541C49.7045 49.5288 56.0261 53.2095 56.0261 56.0542C56.0261 58.8989 53.6555 62.7709 52.4702 64.3513L45.3584 61.3881C45.7932 60.27 46.9192 58.0973 48.1069 57.8544C46.4684 57.8835 40.2159 57.7848 39.4319 56.0542C37.8212 52.4983 39.772 49.8907 41.5499 49.5351L46.5437 48.541L28.1717 44.2013L37.0613 24.6435Z" fill="white"/>
<path d="M22.2071 53.668C27.4224 50.8233 27.579 51.9057 28.1717 52.4983C28.7643 53.091 29.1985 54.1581 26.9863 56.0542C22.8378 59.6101 19.6436 62.9899 9.15659 60.6594C3.9295 59.4978 1.00006 50.5766 1 48.541C0.999823 42.6146 6.05807 41.3166 5.65108 45.3866C5.05843 51.3131 7.90747 55.299 9.62268 56.0542C13.6606 57.8322 15.688 57.2239 22.2071 53.668Z" fill="white"/>
<path d="M28.1717 64.3513V59.6101L35.7238 61.3881C35.9213 62.9685 35.7575 64.5884 35.2834 65.5366C34.8092 66.4848 31.925 69.8827 30.5422 71.4631L25.2084 67.9072L28.1717 64.3513Z" fill="white"/>
<path d="M37.0613 24.6435C35.876 21.4827 33.8594 12.885 37.0613 8.69033C39.8443 5.04451 39.7724 0.999852 41.5499 1C43.3274 1.00015 44.3464 4.8505 44.3464 6.82614C49.9022 6.82614 52.9691 8.69033 54.8335 9.62268C56.6979 10.555 57.8631 4.00026 60.1935 4.72873C61.6478 5.18332 61.5997 10.0253 60.9816 15.1616M37.0613 24.6435C43.2248 22.2726 50.6922 26.8167 53.6555 29.3851M37.0613 24.6435L28.1717 44.2013L46.5437 48.5411M53.6555 29.3851C55.7603 28.7837 57.3312 27 58.4842 24.6435M53.6555 29.3851L50.6922 32.3483C52.9236 34.5214 57.606 38.986 58.4842 39.4601C59.582 40.0528 63.8821 37.395 66.2527 35.0244C68.6233 32.6538 72.6202 35.9042 69.657 39.4601C66.6937 43.016 63.7305 47.7572 57.2114 45.3866C54.3429 44.3435 51.8211 43.0136 49.9022 41.8307M58.4842 24.6435C64.579 21.2853 76.5067 9.82733 74.9908 7.45717C72.3119 3.26871 65.0587 10.2229 60.9816 15.1616M58.4842 24.6435C59.811 21.9317 60.5845 18.4615 60.9816 15.1616M49.9022 41.8307C48.3323 40.8629 47.166 39.9935 46.5437 39.4601L49.9022 41.8307ZM49.9022 41.8307L46.5437 48.5411M46.5437 48.5411L41.5499 49.5351C39.772 49.8907 37.8212 52.4983 39.432 56.0542C40.4101 58.2136 49.9022 57.8322 48.3217 57.8322C47.0572 57.8322 45.8193 60.2028 45.3584 61.3881L52.4702 64.3513C53.6555 62.7709 56.0261 58.8989 56.0261 56.0542C56.0261 53.2095 49.7045 49.5288 46.5437 48.5411ZM28.1717 52.4983C27.579 51.9057 27.4224 50.8233 22.2071 53.6681C15.688 57.2239 13.6606 57.8322 9.62268 56.0542C7.90747 55.299 5.05843 51.3131 5.65108 45.3866C6.05807 41.3166 0.999823 42.6146 1 48.5411C1.00006 50.5766 3.9295 59.4978 9.15659 60.6594C19.6436 62.9899 22.8378 59.6101 26.9863 56.0542C29.1985 54.1581 28.7643 53.091 28.1717 52.4983ZM28.1717 59.6101V64.3513L25.2084 67.9072L30.5422 71.4631C31.925 69.8827 34.8092 66.4848 35.2834 65.5366C35.7575 64.5884 35.9213 62.9685 35.7238 61.3881L28.1717 59.6101Z" stroke="#1F1F1F"/>
<path d="M8.61217 39.4618C3.79457 37.3552 4.26053 32.9274 5.64894 29.9794C11.5754 31.1659 18.0945 25.83 22.2431 22.8667C26.3916 19.9035 35.7217 16.8073 35.7217 19.1778L36.4666 24.1046C43.7399 22.8643 49.9057 25.6964 53.6533 29.9794C56.9722 33.7724 55.0362 35.1157 53.6533 35.3133L51.2828 31.7574C42.9857 30.5721 42.3931 37.0912 36.4666 42.425C31.7254 46.6921 27.3793 52.1049 25.7989 54.278C20.4651 49.3392 13.2001 41.4679 8.61217 39.4618Z" fill="#F40000"/>
<path d="M36.4666 24.1046C43.7399 22.8643 49.9057 25.6964 53.6533 29.9794C56.9722 33.7724 55.0362 35.1157 53.6533 35.3133L51.2828 31.7574C42.9857 30.5721 42.3931 37.0912 36.4666 42.425C31.7254 46.6921 27.3793 52.1049 25.7989 54.278C20.4651 49.3392 13.2001 41.4679 8.61217 39.4618C3.79457 37.3552 4.26053 32.9274 5.64894 29.9794C11.5754 31.1659 18.0945 25.83 22.2431 22.8667C26.3916 19.9035 35.7217 16.8073 35.7217 19.1778L36.4666 24.1046ZM36.4666 24.1046C37.1199 24.6456 34.8978 24.4165 34.096 24.6456L36.4666 24.1046Z" stroke="#1F1F1F"/>
<path d="M33.4809 35.6759C33.2716 37.0324 32.0706 38.2107 30.0748 38.9484C28.0971 39.6794 25.4483 39.9274 22.6047 39.4887C19.7612 39.0501 17.3102 38.0153 15.6448 36.7224C13.9641 35.4175 13.1741 33.932 13.3833 32.5755C13.5926 31.219 14.7935 30.0407 16.7894 29.303C18.767 28.572 21.4159 28.324 24.2594 28.7627C27.103 29.2013 29.5539 30.2361 31.2194 31.5291C32.9001 32.8339 33.6901 34.3194 33.4809 35.6759Z" fill="white" stroke="#1F1F1F"/>
<path d="M45.9508 14.5693C41.6838 13.6211 41.0121 15.7546 41.2097 16.9399C41.2097 19.3103 42.9876 19.3103 45.3579 19.3103H45.3584C47.729 19.3103 49.7065 15.4039 45.9508 14.5693Z" fill="white"/>
<path d="M56.6187 15.6817C53.2999 14.7334 52.0725 16.5938 52.27 17.7791C52.27 19.557 52.4702 19.903 56.6187 20.4956C59.4944 20.9064 60.7672 16.867 56.6187 15.6817Z" fill="white"/>
<path d="M45.9508 14.5693C41.6838 13.6211 41.0121 15.7546 41.2097 16.9399C41.2097 19.3103 42.9876 19.3103 45.3579 19.3103H45.3584C47.729 19.3103 49.7065 15.4039 45.9508 14.5693Z" stroke="#1F1F1F"/>
<path d="M56.6187 15.6817C53.2999 14.7334 52.0725 16.5938 52.27 17.7791C52.27 19.557 52.4702 19.903 56.6187 20.4956C59.4944 20.9064 60.7672 16.867 56.6187 15.6817Z" stroke="#1F1F1F"/>
<path d="M47.136 21.0879C47.7286 23.0634 49.5066 26.0661 51.8772 22.2732" stroke="#1F1F1F"/>
<circle cx="43.4526" cy="16.8872" r="2.37059" fill="#1F1F1F"/>
<circle cx="54.6443" cy="17.8193" r="2.37059" fill="#1F1F1F"/>
<path d="M46.2253 19.2657C45.7714 18.2779 46.6434 18.5164 47.1362 18.7592C47.8648 18.3539 48.2767 18.8798 47.9056 19.2852C47.5347 19.6902 46.6792 20.2535 46.2253 19.2657Z" fill="#FDA3C4"/>
<path d="M14.0996 31.1842C14.1206 31.1232 14.139 31.0715 14.1515 31.0283C14.177 30.9519 14.2033 30.8723 14.2297 30.7928C14.2561 30.7133 14.2855 30.6115 14.3212 30.488C14.3559 30.3676 14.3919 30.231 14.4265 30.0875C14.4628 29.9378 14.4867 29.8313 14.5004 29.7719C14.5141 29.7125 14.5255 29.6492 14.5395 29.5767C14.5536 29.5042 14.5623 29.4502 14.5689 29.4155C14.5764 29.3777 14.5824 29.333 14.5893 29.2851L14.6025 29.2157C14.6082 29.1841 14.6259 29.1586 14.6555 29.1392C14.6852 29.1198 14.721 29.115 14.7573 29.1202C14.7936 29.1255 14.8263 29.1431 14.8491 29.1715C14.8718 29.1999 14.8808 29.2284 14.8742 29.2631L14.861 29.3325C14.8541 29.3804 14.849 29.422 14.8424 29.4567C14.8358 29.4914 14.8262 29.5485 14.8122 29.621C14.7981 29.6935 14.7849 29.763 14.7694 29.8286C14.7548 29.8911 14.7319 29.9944 14.6964 30.141C14.6592 30.2938 14.6232 30.4304 14.5867 30.557C14.5537 30.6712 14.5211 30.7723 14.4938 30.8549C14.5185 30.8409 14.5358 30.8285 14.5531 30.8161C14.5975 30.7936 14.645 30.7718 14.6958 30.7508C14.7466 30.7297 14.8079 30.7079 14.8862 30.6867C14.9636 30.6687 15.0264 30.6537 15.0727 30.6482C15.1319 30.6456 15.2095 30.6506 15.3056 30.6633C15.404 30.6799 15.4739 30.6996 15.5251 30.7248C15.5707 30.7454 15.6123 30.7684 15.6529 30.7944C15.6949 30.8274 15.7367 30.8735 15.7845 30.9341C15.8282 30.9972 15.8631 31.0548 15.8828 31.1056C15.9017 31.1595 15.9164 31.2157 15.9238 31.2735C15.9326 31.3382 15.9234 31.4415 15.8976 31.5904C15.8742 31.7431 15.8471 31.8488 15.8237 31.906C15.8027 31.9669 15.777 32.0202 15.7449 32.072C15.7095 32.123 15.6718 32.1702 15.6318 32.2136C15.5909 32.26 15.5362 32.3065 15.471 32.3538C15.4057 32.4011 15.3473 32.4368 15.2965 32.4578C15.2457 32.4788 15.1738 32.5015 15.0768 32.5281C14.9806 32.5517 14.9049 32.5636 14.8522 32.5676C14.8035 32.5694 14.7484 32.5696 14.6813 32.5637C14.6207 32.5594 14.5706 32.5542 14.5311 32.5482C14.498 32.5437 14.4649 32.5392 14.435 32.5355C14.3987 32.5303 14.3504 32.5189 14.2901 32.5015C14.2234 32.4825 14.1713 32.4603 14.1339 32.4351L14.0997 32.4105C14.067 32.393 14.0475 32.3653 14.0394 32.3337C14.0322 32.2991 14.0411 32.2682 14.0629 32.2404C14.0847 32.2125 14.1135 32.1962 14.1524 32.1922C14.1914 32.1882 14.2236 32.1957 14.2555 32.2164L14.2961 32.2424C14.3113 32.2493 14.3362 32.2585 14.3707 32.2699C14.4158 32.2805 14.4512 32.2888 14.477 32.2948C14.5036 32.2978 14.5367 32.3023 14.5731 32.3075C14.6061 32.312 14.6498 32.3157 14.6999 32.3209C14.7541 32.3237 14.7986 32.3243 14.8335 32.3226C14.8642 32.3232 14.9188 32.313 14.9962 32.2949C15.0777 32.2745 15.135 32.255 15.1693 32.2433C15.2013 32.2277 15.2433 32.2014 15.2944 32.1672C15.3455 32.1331 15.3861 32.0998 15.417 32.0642C15.447 32.0317 15.4715 31.9946 15.4968 31.9544C15.5181 31.9165 15.5411 31.8725 15.565 31.8254C15.5825 31.7767 15.601 31.6888 15.6256 31.5561C15.6437 31.4219 15.6516 31.3348 15.6495 31.2947C15.644 31.2539 15.6386 31.213 15.625 31.1769C15.6105 31.1438 15.5872 31.1053 15.5584 31.0623C15.5245 31.0247 15.5018 30.9963 15.4819 30.9817C15.4597 30.9633 15.4334 30.9472 15.4062 30.9342C15.3813 30.9251 15.3363 30.9145 15.2677 30.9017C15.1983 30.892 15.1506 30.8906 15.1221 30.8938C15.084 30.8948 15.0336 30.9027 14.9732 30.9214C14.9136 30.9371 14.8638 30.9551 14.8285 30.9699C14.7892 30.987 14.7458 31.0064 14.7064 31.0236C14.6735 31.0422 14.6156 31.0879 14.5336 31.1577C14.5081 31.1747 14.4857 31.1926 14.4675 31.2081C14.4169 31.2522 14.3796 31.2863 14.3555 31.3103C14.3415 31.3466 14.3267 31.3859 14.3143 31.4292C14.2645 31.5658 14.2228 31.6747 14.189 31.7558C14.1585 31.8376 14.1334 31.9009 14.1145 31.9426C14.0947 31.9874 14.0731 32.0384 14.0479 32.1017C14.0219 32.1681 14.0021 32.2129 13.9917 32.2368C13.9805 32.2638 13.9601 32.2986 13.9306 32.3411C13.9265 32.3435 13.9192 32.345 13.9142 32.3505C13.906 32.3551 13.8945 32.359 13.8708 32.3699C13.8479 32.3777 13.8282 32.3863 13.8094 32.3918C13.7907 32.3972 13.7687 32.402 13.7443 32.4028C13.72 32.4037 13.6998 32.4023 13.6846 32.3954C13.6694 32.3885 13.6551 32.3785 13.6466 32.3601C13.6382 32.3416 13.6339 32.3208 13.6355 32.2915C13.6371 32.2622 13.6428 32.2306 13.6461 32.1951C13.6495 32.1597 13.6561 32.1249 13.6609 32.0964C13.6674 32.0617 13.6749 32.0239 13.6856 31.9868C13.6963 31.9498 13.72 31.8796 13.7568 31.7761C13.7944 31.6696 13.8272 31.5916 13.8544 31.5452C13.8783 31.4981 13.9054 31.4517 13.9349 31.4092C13.9644 31.3667 13.9938 31.3242 14.0306 31.2801C14.0454 31.2407 14.0704 31.2136 14.0996 31.1842Z" fill="#1F1F1F"/>
<path d="M17.3714 33.3347C17.3365 33.3596 17.2987 33.3706 17.2557 33.3638L17.1688 33.3534C17.0925 33.3421 17.0026 33.3177 16.8946 33.2725C16.7899 33.2281 16.6984 33.1735 16.6185 33.1151C16.545 33.0581 16.4854 33.0011 16.4411 32.951C16.3953 32.8939 16.3405 32.8083 16.2859 32.6862C16.2303 32.5673 16.1953 32.473 16.1841 32.4042C16.1705 32.3315 16.1769 32.2139 16.2032 32.0512C16.2262 31.8879 16.252 31.7748 16.2847 31.7096C16.3197 31.6483 16.374 31.5684 16.4507 31.4706C16.5275 31.3727 16.6062 31.2919 16.6805 31.2266C16.757 31.1651 16.8236 31.1146 16.8847 31.0826C16.9468 31.0475 17.0356 31.0154 17.1563 30.9808C17.2853 30.9416 17.4307 30.9293 17.5892 30.9434C17.7445 30.9566 17.8532 30.9755 17.9218 31.0015C17.988 31.0237 18.0748 31.0705 18.1812 31.1451C18.2909 31.2205 18.3699 31.282 18.4184 31.3298C18.4668 31.3776 18.5132 31.4447 18.5591 31.525C18.6018 31.6045 18.6325 31.6779 18.6464 31.7374C18.6627 31.8008 18.67 31.8952 18.6651 32.0198C18.6569 32.1437 18.6376 32.2583 18.6089 32.3574C18.582 32.4504 18.5531 32.5264 18.5254 32.5861C18.5001 32.6497 18.4491 32.7304 18.3771 32.8359C18.3018 32.9407 18.2286 33.0261 18.1553 33.0884C18.081 33.1537 17.9891 33.2082 17.8764 33.2513C17.7627 33.2974 17.6789 33.3241 17.6216 33.3305C17.5691 33.3447 17.4827 33.3443 17.3714 33.3347ZM16.7905 32.927C16.8439 32.9098 16.8887 32.9104 16.9305 32.9334L17.0099 32.9818C17.0507 33.008 17.0966 33.0287 17.1508 33.0447C17.2009 33.063 17.273 33.0767 17.3706 33.0863C17.4681 33.0959 17.5332 33.098 17.5692 33.0932C17.6052 33.0884 17.6669 33.0665 17.7525 33.0336C17.839 32.9976 17.9061 32.9571 17.9602 32.9135C18.0185 32.8676 18.0756 32.8016 18.1358 32.7131C18.2002 32.6223 18.2452 32.5501 18.2693 32.5028C18.291 32.4517 18.314 32.3842 18.3391 32.2975C18.3624 32.2169 18.3796 32.1216 18.3865 32.014C18.3925 31.9095 18.3896 31.836 18.3768 31.7966C18.3648 31.7541 18.3426 31.6993 18.3093 31.6352C18.2759 31.5711 18.2413 31.5233 18.2096 31.4894C18.1779 31.4554 18.1156 31.4077 18.0227 31.3462C17.9289 31.2878 17.8607 31.2486 17.8162 31.2349C17.7759 31.2188 17.694 31.2029 17.5688 31.1934C17.45 31.1854 17.343 31.1967 17.2526 31.2218C17.1541 31.2517 17.0818 31.2744 17.0413 31.2947C16.9958 31.3204 16.9393 31.3601 16.8752 31.4146C16.8119 31.4659 16.7473 31.5335 16.6807 31.6205C16.6117 31.7036 16.5675 31.7726 16.5466 31.8207C16.5267 31.8657 16.5039 31.9563 16.4783 32.0926C16.4583 32.2336 16.4527 32.3249 16.4628 32.3736C16.472 32.4254 16.5018 32.5019 16.5512 32.6062C16.5983 32.7066 16.6372 32.7753 16.6671 32.8154C16.7006 32.8431 16.7411 32.8824 16.7905 32.927Z" fill="#1F1F1F"/>
<path d="M20.1011 33.9958C20.0662 34.0207 20.0284 34.0317 19.9854 34.025L19.8985 34.0145C19.8222 34.0032 19.7324 33.9788 19.6244 33.9336C19.5196 33.8892 19.4281 33.8347 19.3482 33.7762C19.2747 33.7192 19.2151 33.6622 19.1708 33.6121C19.125 33.5551 19.0702 33.4694 19.0156 33.3474C18.9601 33.2284 18.9251 33.1342 18.9138 33.0653C18.9003 32.9927 18.9066 32.875 18.9329 32.7124C18.956 32.549 18.9818 32.4359 19.0144 32.3708C19.0495 32.3095 19.1037 32.2295 19.1805 32.1317C19.2572 32.0339 19.3359 31.9531 19.4102 31.8877C19.4868 31.8263 19.5533 31.7757 19.6145 31.7437C19.6765 31.7086 19.7654 31.6765 19.8861 31.6419C20.015 31.6027 20.1604 31.5905 20.319 31.6045C20.4742 31.6177 20.583 31.6366 20.6515 31.6626C20.7178 31.6848 20.8045 31.7316 20.911 31.8062C21.0206 31.8816 21.0997 31.9432 21.1481 31.991C21.1966 32.0387 21.2429 32.1059 21.2889 32.1861C21.3316 32.2657 21.3622 32.339 21.3762 32.3986C21.3924 32.462 21.3997 32.5563 21.3948 32.6809C21.3866 32.8048 21.3673 32.9194 21.3386 33.0186C21.3117 33.1116 21.2828 33.1875 21.2552 33.2472C21.2299 33.3108 21.1789 33.3915 21.1068 33.497C21.0315 33.6018 20.9584 33.6873 20.885 33.7495C20.8108 33.8148 20.7189 33.8694 20.6061 33.9124C20.4924 33.9586 20.4086 33.9852 20.3514 33.9917C20.2989 34.0058 20.2125 34.0054 20.1011 33.9958ZM19.5202 33.5882C19.5736 33.5709 19.6184 33.5715 19.6602 33.5945L19.7396 33.643C19.7805 33.6691 19.8264 33.6898 19.8806 33.7058C19.9306 33.7242 20.0028 33.7378 20.1003 33.7474C20.1978 33.7571 20.263 33.7591 20.299 33.7543C20.3349 33.7495 20.3966 33.7276 20.4823 33.6947C20.5688 33.6588 20.6358 33.6182 20.69 33.5747C20.7482 33.5288 20.8054 33.4627 20.8656 33.3743C20.9299 33.2834 20.975 33.2113 20.999 33.164C21.0208 33.1128 21.0437 33.0454 21.0688 32.9586C21.0922 32.878 21.1093 32.7828 21.1162 32.6752C21.1223 32.5707 21.1193 32.4972 21.1065 32.4578C21.0946 32.4153 21.0724 32.3604 21.039 32.2963C21.0057 32.2322 20.9711 32.1844 20.9394 32.1505C20.9077 32.1166 20.8454 32.0689 20.7525 32.0074C20.6587 31.9489 20.5904 31.9098 20.546 31.896C20.5056 31.8799 20.4238 31.864 20.2985 31.8545C20.1797 31.8465 20.0727 31.8578 19.9824 31.883C19.8838 31.9128 19.8115 31.9355 19.771 31.9558C19.7255 31.9816 19.6691 32.0213 19.6049 32.0757C19.5416 32.1271 19.4771 32.1947 19.4104 32.2816C19.3414 32.3647 19.2972 32.4338 19.2764 32.4819C19.2564 32.5268 19.2337 32.6175 19.2081 32.7538C19.1881 32.8947 19.1824 32.986 19.1925 33.0347C19.2018 33.0865 19.2315 33.163 19.2809 33.2673C19.328 33.3677 19.3669 33.4364 19.3968 33.4765C19.4303 33.5042 19.4709 33.5435 19.5202 33.5882Z" fill="#1F1F1F"/>
<path d="M21.9022 33.6118C21.896 33.6334 21.8888 33.6581 21.8826 33.6797C21.8698 33.7361 21.8579 33.7893 21.845 33.8456C21.8322 33.9019 21.8212 33.9521 21.8087 33.9953C21.7953 34.0416 21.7779 34.0902 21.7595 34.142L21.7345 34.2284C21.7224 34.2585 21.6983 34.2825 21.6663 34.2981C21.6343 34.3136 21.5985 34.3184 21.564 34.307C21.5295 34.2956 21.5008 34.2757 21.4781 34.2472C21.4562 34.2157 21.4546 34.1857 21.4667 34.1556L21.4899 34.0753C21.5091 34.0205 21.5257 33.9749 21.5382 33.9317C21.5498 33.8916 21.5608 33.8414 21.5719 33.7913C21.5838 33.7381 21.5957 33.6848 21.6094 33.6254C21.6273 33.5637 21.6543 33.4579 21.6916 33.3052C21.7172 33.1925 21.7398 33.1022 21.7594 33.0343C21.7669 32.9965 21.7762 32.9525 21.7872 32.9024C21.82 32.7651 21.8453 32.6655 21.8649 32.5976C21.8845 32.5297 21.9073 32.4625 21.9325 32.3992C21.9334 32.3961 21.9351 32.3899 21.9369 32.3838C21.9387 32.3776 21.9455 32.366 21.9564 32.3521C21.9673 32.3382 21.975 32.3235 21.9859 32.3096C21.9968 32.2956 22.01 32.2856 22.0264 32.2762C22.0429 32.2669 22.0584 32.2607 22.0763 32.2583C22.0942 32.2559 22.1112 32.2566 22.1328 32.265C22.1545 32.2734 22.1743 32.2879 22.1957 32.3094C22.2304 32.344 22.2458 32.374 22.2492 32.3978C22.2526 32.4217 22.2482 32.4372 22.2317 32.4465L22.2112 32.4581C22.196 32.5106 22.1782 32.5724 22.1568 32.6464C22.1354 32.7205 22.1167 32.7854 22.0989 32.8471C22.082 32.9058 22.0641 32.9675 22.0454 33.0323C22.0442 33.0485 22.0421 33.0678 22.0349 33.0925C22.0248 33.1396 22.0182 33.1743 22.0125 33.2059C22.092 33.1092 22.1506 33.0373 22.1915 32.9908C22.2365 32.9421 22.2839 32.8972 22.3321 32.8492C22.3813 32.7981 22.4674 32.726 22.5841 32.6315C22.7122 32.5331 22.7989 32.471 22.8441 32.4454C22.899 32.422 22.9595 32.4033 23.0254 32.3891L23.1002 32.3803C23.1368 32.3724 23.1732 32.3777 23.2082 32.3991C23.2401 32.4198 23.2605 32.4444 23.2686 32.4759C23.2767 32.5075 23.2678 32.5384 23.2451 32.5693C23.2233 32.5971 23.1936 32.6165 23.1578 32.6213L23.0822 32.6332C23.0464 32.638 23.013 32.6466 22.986 32.6567C22.9572 32.6731 22.887 32.7258 22.7771 32.8087C22.6645 32.9009 22.5866 32.9683 22.5433 33.0109C22.4992 33.0566 22.456 33.0992 22.4151 33.1456C22.3741 33.192 22.3114 33.2663 22.2269 33.3684C22.1292 33.4806 22.0536 33.5518 21.9984 33.5883C21.965 33.5969 21.9348 33.6063 21.9022 33.6118Z" fill="#1F1F1F"/>
<path d="M23.3945 34.7529C23.3599 34.7676 23.3256 34.7693 23.2908 34.761C23.256 34.7527 23.2287 34.7298 23.2095 34.7023C23.1912 34.6717 23.1855 34.6441 23.1943 34.6134L23.2138 34.5688C23.2225 34.5381 23.2374 34.4859 23.2584 34.4122C23.2794 34.3384 23.2969 34.277 23.3101 34.2309C23.3223 34.1879 23.3367 34.1257 23.3554 34.0482C23.375 33.9676 23.3958 33.8708 23.4201 33.7618C23.4421 33.649 23.4624 33.5423 23.4841 33.4425C23.5058 33.3427 23.5245 33.2651 23.5357 33.2022C23.5469 33.1392 23.5572 33.0794 23.5692 33.0134C23.5813 32.9473 23.5881 32.8998 23.5919 32.8744C23.5972 32.856 23.6002 32.8337 23.6008 32.8077L23.6068 32.7632C23.6083 32.734 23.6225 32.7079 23.6517 32.6886C23.6817 32.6662 23.7146 32.6576 23.7503 32.6628C23.7868 32.6649 23.819 32.6824 23.8454 32.7084C23.8718 32.7344 23.8806 32.7627 23.875 32.7942L23.874 32.8333C23.8684 32.8648 23.8637 32.8932 23.8599 32.9185C23.8538 32.94 23.8478 32.9845 23.8389 33.0513C23.8269 33.1173 23.8148 33.1833 23.8037 33.2462C23.7925 33.3092 23.776 33.3906 23.7544 33.4904C23.7295 33.5894 23.7061 33.6954 23.6817 33.8044C23.6597 33.9172 23.6421 34.0147 23.6225 34.0953C23.6029 34.1759 23.5885 34.2381 23.5754 34.2842C23.5623 34.3303 23.5448 34.3917 23.5229 34.4685C23.501 34.5453 23.4852 34.6006 23.4765 34.6313L23.4552 34.682C23.4497 34.7135 23.4291 34.7381 23.3945 34.7529Z" fill="#1F1F1F"/>
<path d="M24.4047 32.7797C24.4266 32.7517 24.4556 32.7353 24.4916 32.7305C24.5276 32.7257 24.5632 32.7341 24.5994 32.7525C24.6315 32.7733 24.652 32.798 24.6602 32.8297L24.683 32.9542C24.7018 33.0447 24.7152 33.1538 24.7242 33.2784C24.7358 33.3937 24.744 33.485 24.7538 33.5469C24.7691 33.6134 24.7912 33.7047 24.8167 33.8199C24.8454 33.9359 24.8785 34.0728 24.9145 34.2236C24.9496 34.3775 24.9763 34.4764 24.9929 34.5267C25.0086 34.58 25.0252 34.6303 25.0395 34.6767C25.0523 34.7161 25.0754 34.7679 25.1129 34.8296C25.12 34.8412 25.1302 34.8536 25.1373 34.8652C25.1588 34.8503 25.1781 34.8317 25.2006 34.8138C25.2891 34.7352 25.3509 34.6769 25.3838 34.635C25.4227 34.5845 25.4615 34.534 25.5021 34.4773C25.5469 34.4183 25.6222 34.3134 25.729 34.1597C25.8381 34.0098 25.9158 33.9089 25.9596 33.8529C26.0035 33.797 26.0542 33.7294 26.1117 33.6502C26.1716 33.5749 26.2146 33.5221 26.2415 33.4887L26.2786 33.4444C26.2964 33.4187 26.3286 33.4031 26.3646 33.3983C26.4038 33.3943 26.4395 33.4026 26.4724 33.4203C26.5045 33.4411 26.525 33.4658 26.529 33.4998C26.5363 33.5346 26.5282 33.5625 26.503 33.5897L26.4724 33.6355C26.4473 33.6627 26.4043 33.7155 26.3444 33.7909C26.2869 33.8701 26.2371 33.9346 26.1941 33.9874C26.1544 34.041 26.0767 34.142 25.9667 34.2949C25.8567 34.4479 25.7782 34.552 25.7408 34.6094C25.696 34.6684 25.6563 34.722 25.6174 34.7725C25.5768 34.8292 25.5072 34.9023 25.4054 34.991C25.4004 34.9964 25.3903 35.0073 25.3729 35.0197C25.3587 35.033 25.3454 35.0431 25.3371 35.0478C25.3288 35.0524 25.3155 35.0626 25.2971 35.0781C25.2788 35.0937 25.2655 35.1038 25.2572 35.1085C25.2489 35.1132 25.2333 35.1194 25.2135 35.128C25.1937 35.1366 25.1757 35.139 25.1618 35.1391C25.148 35.1391 25.1309 35.1384 25.1096 35.1401C25.0884 35.1417 25.0689 35.1372 25.0531 35.1202C24.9868 35.098 24.9281 35.0379 24.8727 34.9421C24.8194 34.8634 24.786 34.7993 24.7712 34.7429C24.7537 34.6957 24.7371 34.6455 24.7213 34.5921C24.7033 34.5349 24.6751 34.429 24.6418 34.2689C24.6067 34.115 24.576 33.9819 24.544 33.8652C24.5153 33.7492 24.4941 33.6548 24.482 33.5891C24.4684 33.5164 24.4556 33.4173 24.4434 33.292C24.4391 33.1751 24.4262 33.0761 24.4112 32.9964L24.3819 32.8703C24.3738 32.8386 24.3828 32.8076 24.4047 32.7797Z" fill="#1F1F1F"/>
<path d="M28.6425 35.479L28.636 35.4775C28.6035 35.5063 28.5751 35.5327 28.5541 35.5575C28.5275 35.5777 28.5001 35.601 28.4694 35.6236C28.4295 35.6539 28.346 35.7037 28.2197 35.77C28.0925 35.8393 27.9969 35.883 27.9339 35.898C27.874 35.9137 27.8151 35.9264 27.7579 35.9328C27.7008 35.9392 27.6445 35.9425 27.5883 35.9459C27.5297 35.9454 27.4623 35.9395 27.387 35.9251C27.3125 35.9076 27.232 35.8755 27.1485 35.8295C27.0748 35.7857 27.0205 35.7465 26.9838 35.7181C26.9471 35.6896 26.9113 35.6581 26.8773 35.6203C26.8424 35.5857 26.8111 35.5387 26.7816 35.4855C26.7482 35.4214 26.7282 35.3473 26.7233 35.2569C26.7165 35.1726 26.7183 35.1069 26.7294 35.0566C26.7396 35.0094 26.758 34.9575 26.7865 34.8948C26.8142 34.8351 26.8479 34.7901 26.8799 34.7514C26.9127 34.7095 26.9685 34.6597 27.0483 34.5991C27.1289 34.5354 27.1968 34.4918 27.2511 34.4714C27.3012 34.4534 27.3513 34.4354 27.407 34.4221C27.4627 34.4087 27.5332 34.3921 27.6198 34.3794C27.7129 34.3682 27.8195 34.37 27.9313 34.3897C28.044 34.4062 28.1337 34.4305 28.1921 34.4674C28.2538 34.505 28.3307 34.5859 28.4235 34.7069C28.4361 34.723 28.4455 34.7385 28.4581 34.7546C28.4555 34.6681 28.4549 34.5985 28.4521 34.5482C28.4456 34.4872 28.4329 34.4115 28.4118 34.3172C28.393 34.2269 28.3721 34.1558 28.3499 34.101C28.331 34.047 28.3038 33.9976 28.2748 33.9545C28.2505 33.919 28.1966 33.8667 28.1185 33.8021C28.0372 33.7367 27.9644 33.6898 27.8991 33.6646C27.8283 33.6348 27.7718 33.6149 27.7265 33.6043C27.6789 33.5898 27.6335 33.5792 27.5856 33.5778C27.55 33.5695 27.4734 33.5713 27.3665 33.5826C27.2872 33.5938 27.2315 33.6072 27.2012 33.6166L27.1613 33.6469C27.1315 33.6664 27.097 33.6781 27.0596 33.6759C27.0222 33.6738 26.9884 33.6592 26.9614 33.6331C26.9344 33.6069 26.9263 33.5752 26.9288 33.5428C26.9313 33.5103 26.9467 33.4808 26.9733 33.4606L27.0246 33.4264C27.0746 33.3852 27.1754 33.3592 27.3288 33.3423C27.4685 33.3255 27.5686 33.3259 27.631 33.3372C27.6878 33.3439 27.7437 33.3537 27.7978 33.3697C27.8593 33.3841 27.9343 33.4117 28.0171 33.4476C28.1065 33.4851 28.2002 33.5435 28.3006 33.6266C28.4018 33.7065 28.4749 33.7766 28.5165 33.8359C28.5548 33.8945 28.589 33.9554 28.6173 34.0249C28.6456 34.0944 28.6694 34.1793 28.6911 34.2836C28.7127 34.3879 28.7259 34.4736 28.7307 34.5409C28.7354 34.6081 28.7395 34.7016 28.741 34.8276C28.7453 34.9444 28.752 35.0286 28.758 35.0796C28.7599 35.1329 28.7585 35.1855 28.7603 35.2389C28.7622 35.2922 28.762 35.3285 28.7622 35.3517C28.7745 35.3811 28.7582 35.4136 28.7165 35.4501L28.6425 35.479ZM28.4444 35.3036C28.4307 35.2673 28.4203 35.2318 28.408 35.2025C28.392 35.1624 28.3736 35.1184 28.3529 35.0705C28.3313 35.0258 28.2812 34.9479 28.201 34.8431C28.123 34.7422 28.0709 34.6836 28.038 34.666C28.0139 34.6537 27.9662 34.6392 27.8909 34.6249C27.8082 34.6121 27.7358 34.6116 27.6745 34.6204C27.5994 34.6292 27.5404 34.6418 27.4986 34.6552C27.4567 34.6685 27.4148 34.6818 27.373 34.6951C27.3417 34.7076 27.2945 34.7395 27.2331 34.7846C27.1707 34.8328 27.13 34.8662 27.109 34.8911C27.0912 34.9167 27.0666 34.9539 27.0435 34.998C27.0245 35.0399 27.0114 35.0732 27.0066 35.1018C26.9985 35.1297 26.9957 35.1753 27.0013 35.2394C27.0078 35.3005 27.0188 35.3461 27.0376 35.3769C27.0577 35.4147 27.0797 35.4463 27.1011 35.4679C27.1225 35.4894 27.1472 35.5117 27.1718 35.534C27.1964 35.5564 27.2437 35.584 27.3063 35.6185C27.3592 35.6508 27.4083 35.6722 27.4536 35.6828C27.5063 35.6919 27.5501 35.6955 27.5843 35.6969C27.6225 35.696 27.665 35.6927 27.7115 35.6871C27.758 35.6815 27.8022 35.672 27.8497 35.6633C27.8916 35.65 27.9674 35.6149 28.0771 35.558C28.1878 35.498 28.258 35.4583 28.2837 35.4411C28.3112 35.4178 28.3354 35.3938 28.3546 35.3751C28.372 35.3627 28.4004 35.3363 28.4444 35.3036Z" fill="#1F1F1F"/>
</svg>
