<svg width="30" height="9" viewBox="0 0 30 9" fill="none" xmlns="http://www.w3.org/2000/svg">
<path d="M0.348058 5.30562C0.354626 5.18004 0.361194 5.07329 0.361194 4.98538C0.367761 4.82841 0.374327 4.66515 0.380894 4.50189C0.387461 4.33864 0.387462 4.13143 0.387462 3.88026C0.387462 3.63538 0.380895 3.3591 0.367761 3.07026C0.354627 2.76886 0.341493 2.55538 0.334925 2.43607C0.328358 2.31677 0.315224 2.19119 0.30209 2.04677C0.288955 1.90235 0.275821 1.79561 0.269254 1.72654C0.262687 1.65119 0.249552 1.56328 0.236418 1.46909L0.223283 1.33095C0.216716 1.26816 0.236417 1.21165 0.282387 1.16142C0.328357 1.11119 0.39403 1.08607 0.466269 1.07979C0.538507 1.07351 0.610744 1.09235 0.669849 1.1363C0.728953 1.18026 0.761789 1.23049 0.768356 1.29956L0.781491 1.4377C0.794626 1.53188 0.80776 1.61351 0.814327 1.68258C0.820894 1.75165 0.834028 1.86468 0.847163 2.0091C0.860297 2.15351 0.873431 2.29165 0.879999 2.42352C0.886566 2.5491 0.8997 2.75631 0.912834 3.05142C0.925969 3.3591 0.932535 3.63538 0.932535 3.89282C0.932535 4.12515 0.925969 4.33236 0.919402 4.50189C0.958805 4.46422 0.985073 4.43282 1.01134 4.40143C1.08358 4.33864 1.16239 4.27585 1.24776 4.21306C1.33313 4.15027 1.43821 4.08119 1.57612 4.00585C1.71403 3.93678 1.82567 3.88026 1.91104 3.84887C2.02268 3.81747 2.17373 3.79236 2.36418 3.77352C2.56119 3.76096 2.70567 3.76724 2.81731 3.79236C2.91582 3.81119 3.00776 3.83631 3.0997 3.86771C3.1982 3.91166 3.30328 3.98073 3.42805 4.07492C3.54626 4.17538 3.64477 4.26957 3.71044 4.35747C3.77612 4.45166 3.83522 4.55213 3.88119 4.65887C3.93373 4.77817 3.97313 4.97911 4.00597 5.27422C4.04537 5.57562 4.05194 5.78911 4.0388 5.90841C4.03223 6.03399 4.01253 6.14702 3.9797 6.26004C3.94029 6.37306 3.89432 6.47981 3.84179 6.58027C3.78925 6.68702 3.71044 6.80004 3.61194 6.91934C3.51343 7.03865 3.42149 7.13283 3.33611 7.19562C3.25074 7.25842 3.12597 7.33376 2.95522 7.42795C2.78447 7.51586 2.64656 7.57237 2.54806 7.60377C2.45612 7.62888 2.35104 7.654 2.2197 7.67284C2.10149 7.69167 2.00298 7.70423 1.92418 7.71051C1.8585 7.71679 1.79283 7.72307 1.73373 7.72935C1.66149 7.73563 1.56298 7.73563 1.43821 7.72935C1.3003 7.72307 1.18865 7.70423 1.10328 7.67284L1.02448 7.64144C0.952238 7.6226 0.899699 7.57865 0.866863 7.52214C0.834028 7.45935 0.834029 7.39655 0.860298 7.33376C0.886567 7.27097 0.932535 7.22702 1.00477 7.2019C1.07701 7.17679 1.14269 7.17679 1.21492 7.2019L1.30686 7.2333C1.3397 7.23958 1.39224 7.24586 1.46448 7.25214C1.55642 7.25214 1.62866 7.25214 1.68119 7.25214C1.73373 7.24586 1.7994 7.23958 1.87164 7.2333C1.93731 7.22702 2.02268 7.21446 2.12119 7.2019C2.22627 7.18307 2.31164 7.16423 2.37731 7.14539C2.43641 7.13283 2.53492 7.08888 2.67283 7.01981C2.81731 6.94446 2.91582 6.88167 2.97492 6.844C3.02746 6.80004 3.09313 6.73097 3.17194 6.64306C3.25074 6.55516 3.30985 6.47353 3.34925 6.3919C3.38865 6.31655 3.41492 6.23492 3.44119 6.14702C3.46089 6.06539 3.48059 5.9712 3.50029 5.87074C3.50686 5.77027 3.49373 5.59446 3.46746 5.33073C3.42806 5.06701 3.39522 4.89748 3.36895 4.82213C3.33611 4.74678 3.30328 4.67143 3.25731 4.60864C3.21134 4.55213 3.14567 4.48934 3.06686 4.42027C2.98149 4.36375 2.92238 4.3198 2.87641 4.30096C2.82388 4.27585 2.76477 4.25701 2.70567 4.24445C2.65313 4.23817 2.56119 4.23817 2.42328 4.24445C2.28537 4.25701 2.19343 4.27585 2.14089 4.29468C2.06865 4.31352 1.97671 4.3512 1.87164 4.41399C1.76657 4.4705 1.68119 4.52701 1.62209 4.57096C1.55641 4.6212 1.48418 4.67771 1.41851 4.72794C1.36597 4.77817 1.28059 4.8912 1.16239 5.06073C1.12298 5.10469 1.09015 5.14864 1.06388 5.18632C0.991639 5.29306 0.939103 5.37469 0.906267 5.4312C0.8997 5.50655 0.893134 5.58818 0.893134 5.67608C0.873432 5.95864 0.853729 6.18469 0.834028 6.35423C0.820893 6.52376 0.807761 6.65562 0.794626 6.74353C0.781492 6.83772 0.768357 6.94446 0.755223 7.07632C0.742089 7.21446 0.728954 7.30865 0.722387 7.35888C0.71582 7.41539 0.696119 7.49074 0.663283 7.58493C0.656716 7.59121 0.64358 7.59749 0.637013 7.61004C0.623879 7.6226 0.604179 7.63516 0.564776 7.66656C0.525373 7.69167 0.492537 7.71679 0.459701 7.73563C0.426865 7.75446 0.387461 7.7733 0.341491 7.78586C0.295521 7.79842 0.256119 7.8047 0.223283 7.79842C0.190447 7.79214 0.157612 7.77958 0.131343 7.74818C0.105075 7.71679 0.0853734 7.67911 0.0722391 7.6226C0.0591048 7.56609 0.0525377 7.5033 0.0394033 7.43423C0.026269 7.36516 0.0197003 7.29609 0.0131331 7.23958C0.00656595 7.17051 0 7.09516 0 7.01981C0 6.94446 0.00656636 6.80004 0.0197007 6.58655C0.032835 6.36678 0.052536 6.20353 0.0788047 6.10306C0.0985061 6.0026 0.124776 5.90213 0.157611 5.80795C0.190447 5.71376 0.223284 5.61957 0.269254 5.51911C0.275821 5.43748 0.308656 5.37469 0.348058 5.30562Z" fill="#1F1F1F"/>
<path d="M7.65648 7.90375C7.60394 7.96655 7.53827 8.00422 7.4529 8.0105L7.28215 8.02934C7.13111 8.04189 6.94722 8.03561 6.71737 7.99794C6.49409 7.96027 6.29051 7.89748 6.10663 7.82213C5.93588 7.74678 5.7914 7.66515 5.67976 7.5898C5.56155 7.50189 5.41051 7.36375 5.23976 7.15654C5.06901 6.95561 4.95081 6.79236 4.8917 6.66677C4.82603 6.53491 4.77349 6.30886 4.73409 5.98863C4.68812 5.6684 4.67499 5.44235 4.70125 5.30421C4.73409 5.17235 4.79319 4.99653 4.88513 4.77677C4.97707 4.557 5.08215 4.36863 5.18722 4.21165C5.29887 4.06095 5.39737 3.93537 5.49588 3.84746C5.59439 3.75328 5.74543 3.65281 5.95558 3.53351C6.17887 3.40165 6.44812 3.31374 6.75678 3.26978C7.05887 3.22583 7.27558 3.21327 7.42006 3.23211C7.55797 3.24467 7.74842 3.2949 7.9914 3.38909C8.24096 3.48327 8.42484 3.5649 8.54305 3.63397C8.66126 3.70304 8.78603 3.80979 8.91737 3.94165C9.04215 4.07351 9.14066 4.19909 9.19976 4.30583C9.26544 4.41886 9.33111 4.59467 9.39021 4.83328C9.44275 5.07188 9.46902 5.29793 9.46902 5.49886C9.46902 5.68723 9.45588 5.84421 9.43618 5.96979C9.42305 6.10166 9.37051 6.27747 9.2917 6.5098C9.20633 6.74212 9.11439 6.93677 9.00931 7.08747C8.90424 7.24445 8.75976 7.38887 8.56932 7.52073C8.37887 7.65887 8.23439 7.74678 8.12931 7.78445C8.03737 7.83468 7.8732 7.87236 7.65648 7.90375ZM6.32991 7.38887C6.42185 7.33236 6.50723 7.31352 6.59917 7.33864L6.77648 7.39515C6.86842 7.42654 6.96693 7.44538 7.07857 7.45166C7.18364 7.46422 7.32812 7.45794 7.51857 7.43282C7.70902 7.40771 7.83379 7.38259 7.89946 7.35747C7.96514 7.33236 8.07021 7.26329 8.21469 7.16282C8.35917 7.05608 8.46424 6.94933 8.54305 6.84259C8.62842 6.72956 8.70066 6.57887 8.76633 6.38421C8.83857 6.18328 8.88454 6.02631 8.90424 5.92584C8.91738 5.8191 8.92394 5.68096 8.92394 5.50514C8.92394 5.34189 8.90424 5.15351 8.85827 4.9463C8.8123 4.74537 8.76633 4.60723 8.72036 4.53816C8.67439 4.46281 8.60215 4.36862 8.50364 4.26188C8.40514 4.15514 8.3132 4.07979 8.23439 4.02955C8.15558 3.97932 8.01111 3.91653 7.80096 3.84118C7.59081 3.77211 7.43976 3.72816 7.34782 3.72188C7.26245 3.70932 7.09827 3.7156 6.85528 3.75328C6.62543 3.79095 6.42842 3.86002 6.27081 3.94793C6.10006 4.04839 5.97528 4.12374 5.90961 4.18025C5.83737 4.24932 5.752 4.34979 5.66006 4.48165C5.56812 4.60723 5.48275 4.76421 5.40394 4.95886C5.31857 5.14723 5.2726 5.29793 5.25946 5.3984C5.24633 5.49258 5.2529 5.67468 5.27916 5.94468C5.31857 6.22096 5.35797 6.39677 5.40394 6.48468C5.44991 6.57887 5.54842 6.71073 5.69946 6.88654C5.84394 7.05608 5.95558 7.1691 6.03439 7.23189C6.11319 7.26957 6.2117 7.32608 6.32991 7.38887Z" fill="#1F1F1F"/>
<path d="M13.1158 7.90375C13.0633 7.96655 12.9976 8.00422 12.9122 8.0105L12.7415 8.02934C12.5905 8.04189 12.4066 8.03561 12.1767 7.99794C11.9534 7.96027 11.7499 7.89748 11.566 7.82213C11.3952 7.74678 11.2508 7.66515 11.1391 7.5898C11.0209 7.50189 10.8699 7.36375 10.6991 7.15654C10.5284 6.95561 10.4102 6.79236 10.3511 6.66677C10.2854 6.53491 10.2328 6.30886 10.1934 5.98863C10.1475 5.6684 10.1343 5.44235 10.1606 5.30421C10.1934 5.17235 10.2525 4.99653 10.3445 4.77677C10.4364 4.557 10.5415 4.36863 10.6466 4.21165C10.7582 4.06095 10.8567 3.93537 10.9552 3.84746C11.0537 3.75328 11.2048 3.65281 11.4149 3.53351C11.6382 3.40165 11.9075 3.31374 12.2161 3.26978C12.5182 3.22583 12.7349 3.21327 12.8794 3.23211C13.0173 3.24467 13.2078 3.2949 13.4508 3.38909C13.7003 3.48327 13.8842 3.5649 14.0024 3.63397C14.1206 3.70304 14.2454 3.80979 14.3767 3.94165C14.5015 4.07351 14.6 4.19909 14.6591 4.30583C14.7248 4.41886 14.7905 4.59467 14.8496 4.83328C14.9021 5.07188 14.9284 5.29793 14.9284 5.49886C14.9284 5.68723 14.9152 5.84421 14.8955 5.96979C14.8824 6.10166 14.8299 6.27747 14.7511 6.5098C14.6657 6.74212 14.5737 6.93677 14.4687 7.08747C14.3636 7.24445 14.2191 7.38887 14.0287 7.52073C13.8382 7.65887 13.6937 7.74678 13.5887 7.78445C13.4967 7.83468 13.3325 7.87236 13.1158 7.90375ZM11.7893 7.38887C11.8812 7.33236 11.9666 7.31352 12.0585 7.33864L12.2358 7.39515C12.3278 7.42654 12.4263 7.44538 12.5379 7.45166C12.643 7.46422 12.7875 7.45794 12.9779 7.43282C13.1684 7.40771 13.2931 7.38259 13.3588 7.35747C13.4245 7.33236 13.5296 7.26329 13.674 7.16282C13.8185 7.05608 13.9236 6.94933 14.0024 6.84259C14.0878 6.72956 14.16 6.57887 14.2257 6.38421C14.2979 6.18328 14.3439 6.02631 14.3636 5.92584C14.3767 5.8191 14.3833 5.68096 14.3833 5.50514C14.3833 5.34189 14.3636 5.15351 14.3176 4.9463C14.2716 4.74537 14.2257 4.60723 14.1797 4.53816C14.1337 4.46281 14.0615 4.36862 13.963 4.26188C13.8645 4.15514 13.7725 4.07979 13.6937 4.02955C13.6149 3.97932 13.4705 3.91653 13.2603 3.84118C13.0502 3.77211 12.8991 3.72816 12.8072 3.72188C12.7218 3.70932 12.5576 3.7156 12.3146 3.75328C12.0848 3.79095 11.8878 3.86002 11.7302 3.94793C11.5594 4.04839 11.4346 4.12374 11.369 4.18025C11.2967 4.24932 11.2114 4.34979 11.1194 4.48165C11.0275 4.60723 10.9421 4.76421 10.8633 4.95886C10.7779 5.14723 10.7319 5.29793 10.7188 5.3984C10.7057 5.49258 10.7122 5.67468 10.7385 5.94468C10.7779 6.22096 10.8173 6.39677 10.8633 6.48468C10.9093 6.57887 11.0078 6.71073 11.1588 6.88654C11.3033 7.05608 11.4149 7.1691 11.4937 7.23189C11.5725 7.26957 11.6711 7.32608 11.7893 7.38887Z" fill="#1F1F1F"/>
<path d="M16.2553 6.33741C16.2553 6.38136 16.2553 6.43159 16.2553 6.47555C16.2618 6.58857 16.2684 6.69531 16.275 6.80834C16.2815 6.92136 16.2881 7.02183 16.2881 7.10974C16.2881 7.20392 16.2815 7.30439 16.275 7.41113V7.58694C16.2684 7.64974 16.2356 7.70625 16.183 7.7502C16.1305 7.79416 16.0648 7.81927 15.9926 7.81299C15.9203 7.80671 15.8547 7.7816 15.7956 7.73764C15.7365 7.68741 15.7168 7.6309 15.7233 7.56811V7.40485C15.7299 7.29183 15.7365 7.19764 15.7365 7.10974C15.7365 7.02811 15.7299 6.92764 15.7233 6.82718C15.7168 6.72043 15.7102 6.61369 15.7036 6.49438C15.7036 6.3688 15.6971 6.15531 15.6839 5.84764C15.6708 5.62159 15.6642 5.4395 15.6642 5.30136C15.6577 5.22601 15.6511 5.1381 15.6445 5.03763C15.6314 4.76135 15.6248 4.56042 15.6248 4.42228C15.6248 4.28414 15.6314 4.146 15.6445 4.01414C15.6445 4.00786 15.6445 3.9953 15.6445 3.98275C15.6445 3.97019 15.6511 3.94507 15.6642 3.91368C15.6774 3.88228 15.6839 3.85088 15.6971 3.81949C15.7102 3.78809 15.7299 3.76298 15.7562 3.73786C15.7824 3.71275 15.8087 3.69391 15.8415 3.68135C15.8744 3.66879 15.9072 3.66251 15.9532 3.66879C15.9991 3.67507 16.0451 3.69391 16.0977 3.7253C16.183 3.77554 16.229 3.82577 16.2487 3.86972C16.2684 3.91368 16.2684 3.94507 16.2421 3.97019L16.2093 4.00158C16.2093 4.10833 16.2093 4.23391 16.2093 4.38461C16.2093 4.53531 16.2093 4.66717 16.2093 4.79275C16.2093 4.91205 16.2093 5.03763 16.2093 5.16949C16.2159 5.20089 16.2224 5.23857 16.2224 5.2888C16.229 5.38298 16.2356 5.45205 16.2421 5.51484C16.3406 5.29508 16.4129 5.13182 16.4654 5.02508C16.5245 4.91205 16.5902 4.80531 16.6559 4.69228C16.7215 4.57298 16.8463 4.39717 17.0171 4.16484C17.2075 3.91995 17.3388 3.76298 17.4111 3.69391C17.503 3.62484 17.6081 3.56205 17.7263 3.50553L17.8642 3.4553C17.9299 3.42391 18.0021 3.41763 18.0809 3.44274C18.1532 3.46786 18.2057 3.50554 18.2386 3.56205C18.2714 3.61856 18.2714 3.68135 18.2451 3.75042C18.2189 3.81321 18.1729 3.86344 18.1072 3.88856L17.9693 3.94507C17.9036 3.97019 17.8445 4.00158 17.7985 4.03298C17.7526 4.07693 17.6475 4.20879 17.4833 4.416C17.3191 4.64205 17.2075 4.80531 17.1484 4.90577C17.0893 5.01252 17.0302 5.11298 16.9777 5.21973C16.9251 5.32647 16.8463 5.49601 16.7412 5.72833C16.6165 5.98578 16.5114 6.15531 16.426 6.2495C16.3669 6.28089 16.3144 6.31229 16.2553 6.33741Z" fill="#1F1F1F"/>
<path d="M19.6691 7.83976C19.61 7.88372 19.5443 7.90255 19.4721 7.90255C19.3999 7.90255 19.3342 7.87116 19.2817 7.82721C19.2291 7.77697 19.2028 7.72674 19.2028 7.66395L19.216 7.56976C19.216 7.50697 19.216 7.40023 19.216 7.24953C19.216 7.09883 19.216 6.97325 19.216 6.87906C19.216 6.79116 19.2094 6.66557 19.2028 6.5086C19.1963 6.34534 19.1831 6.15069 19.17 5.93092C19.1503 5.70487 19.1306 5.49138 19.1175 5.29045C19.1043 5.08952 19.0978 4.93254 19.0846 4.80696C19.0715 4.68138 19.0584 4.56208 19.0452 4.43022C19.0321 4.29836 19.019 4.20417 19.0124 4.15394C19.0124 4.11626 19.0058 4.07231 18.9927 4.02208L18.9796 3.93417C18.9664 3.87766 18.9796 3.82115 19.0255 3.77091C19.0715 3.7144 19.1306 3.68301 19.2028 3.67673C19.2751 3.66417 19.3473 3.68301 19.413 3.72068C19.4787 3.75835 19.5115 3.80859 19.5181 3.87138L19.5378 3.94673C19.5443 4.00952 19.5509 4.06603 19.5575 4.11626C19.5575 4.16022 19.5706 4.24812 19.5903 4.37999C19.6034 4.51185 19.6166 4.64371 19.6297 4.76929C19.6428 4.89487 19.656 5.05813 19.6691 5.25906C19.6757 5.45999 19.6888 5.67348 19.7019 5.89324C19.7217 6.11929 19.7414 6.31395 19.7479 6.4772C19.7545 6.64046 19.7611 6.76604 19.7611 6.86023C19.7611 6.95441 19.7611 7.07999 19.7611 7.23697C19.7611 7.39395 19.7611 7.50697 19.7611 7.56976L19.7479 7.67651C19.7545 7.7393 19.7282 7.79581 19.6691 7.83976Z" fill="#1F1F1F"/>
<path d="M20.4595 3.59688C20.4858 3.53409 20.5317 3.49014 20.5974 3.46502C20.6631 3.4399 20.7353 3.4399 20.8141 3.45874C20.8864 3.48386 20.9389 3.52153 20.9717 3.57804L21.0834 3.80409C21.1688 3.96735 21.2541 4.16828 21.3395 4.4006C21.4249 4.61409 21.4905 4.78363 21.5431 4.89665C21.6088 5.01595 21.7007 5.17921 21.8123 5.38642C21.9305 5.59363 22.0685 5.83851 22.2195 6.10851C22.3705 6.38479 22.4756 6.56061 22.5347 6.64852C22.5938 6.7427 22.6529 6.83061 22.7055 6.91224C22.7514 6.98131 22.8237 7.06922 22.9288 7.16968C22.9485 7.18852 22.9747 7.20736 22.9944 7.22619C23.0273 7.18852 23.0535 7.14457 23.0864 7.10061C23.2111 6.91224 23.2965 6.7741 23.3359 6.67991C23.3819 6.56689 23.4279 6.45386 23.4738 6.32828C23.5264 6.19642 23.6117 5.9641 23.7299 5.62503C23.8547 5.29223 23.9467 5.06619 23.9992 4.94061C24.0517 4.81502 24.1108 4.66432 24.1765 4.48851C24.2488 4.31897 24.3013 4.19967 24.3341 4.12432L24.3801 4.02386C24.3998 3.96735 24.4523 3.92339 24.518 3.89828C24.5902 3.87316 24.6625 3.87316 24.7347 3.892C24.807 3.91711 24.8595 3.95479 24.8858 4.01758C24.9186 4.08037 24.9186 4.13688 24.8858 4.19967L24.8529 4.30014C24.8201 4.36293 24.7676 4.48223 24.6953 4.65177C24.6296 4.82758 24.5705 4.972 24.518 5.0913C24.472 5.21061 24.3801 5.43665 24.2553 5.77572C24.1305 6.11479 24.0386 6.34712 23.9992 6.4727C23.9467 6.60456 23.9007 6.72387 23.8547 6.83689C23.8088 6.96247 23.7168 7.13201 23.5723 7.3455C23.5658 7.35805 23.5526 7.38317 23.5264 7.41457C23.5067 7.44596 23.487 7.47108 23.4738 7.48364C23.4607 7.49619 23.441 7.52131 23.4147 7.55898C23.3885 7.59666 23.3688 7.62178 23.3556 7.63433C23.3425 7.64689 23.3162 7.66573 23.2834 7.69085C23.2505 7.71596 23.2177 7.72852 23.1914 7.7348C23.1652 7.74108 23.1323 7.74736 23.0929 7.75992C23.0535 7.77247 23.0141 7.77247 22.9747 7.74736C22.8368 7.7348 22.6923 7.64689 22.5347 7.48991C22.3902 7.36433 22.2917 7.25759 22.2326 7.15712C22.1735 7.07549 22.1144 6.98759 22.0553 6.8934C21.9897 6.79293 21.878 6.60456 21.727 6.31573C21.5759 6.03945 21.4446 5.80084 21.3198 5.59363C21.2016 5.38642 21.1096 5.21689 21.0505 5.09758C20.9849 4.96572 20.9061 4.78363 20.8141 4.5513C20.7419 4.33153 20.6631 4.14944 20.5908 4.00502L20.4661 3.77897C20.4332 3.72246 20.4332 3.65967 20.4595 3.59688Z" fill="#1F1F1F"/>
<path d="M29.82 6.59809H29.8069C29.7609 6.66716 29.7215 6.72995 29.6952 6.78646C29.6558 6.83669 29.6164 6.8932 29.5705 6.94972C29.5114 7.02507 29.38 7.15693 29.1764 7.33902C28.9728 7.52739 28.8152 7.65298 28.7036 7.70949C28.5985 7.766 28.4934 7.81623 28.3884 7.85391C28.2833 7.89158 28.1782 7.92298 28.0731 7.95437C27.9615 7.97949 27.8302 7.99833 27.6791 8.00461C27.5281 8.00461 27.3573 7.97949 27.1734 7.92926C27.0093 7.87902 26.8845 7.82879 26.7991 7.79112C26.7137 7.75344 26.6284 7.70949 26.543 7.65298C26.4576 7.60274 26.3723 7.52739 26.2869 7.43949C26.1884 7.33274 26.1096 7.20088 26.0505 7.03135C25.9914 6.87437 25.9585 6.74879 25.952 6.64832C25.9454 6.55413 25.952 6.44739 25.9717 6.31553C25.9914 6.18995 26.0308 6.08948 26.0702 6.00157C26.1096 5.90739 26.1884 5.78808 26.3066 5.63739C26.4248 5.48041 26.5299 5.36739 26.6218 5.3046C26.7072 5.24808 26.7926 5.19157 26.8911 5.14134C26.9896 5.09111 27.1143 5.02832 27.272 4.96552C27.4427 4.90273 27.6463 4.85878 27.8696 4.84622C28.0928 4.82738 28.2767 4.83366 28.4081 4.87762C28.546 4.92157 28.7364 5.04087 28.9794 5.22925C29.0123 5.25436 29.0385 5.27948 29.0714 5.3046C29.0188 5.14134 28.9794 5.00948 28.9466 4.91529C28.9006 4.80227 28.8349 4.66413 28.743 4.49459C28.6576 4.33134 28.5788 4.20575 28.5066 4.11157C28.4409 4.01738 28.3621 3.93575 28.2833 3.86668C28.2176 3.81017 28.0863 3.73482 27.9024 3.64692C27.712 3.55901 27.5478 3.5025 27.4099 3.48366C27.2588 3.45854 27.1406 3.44598 27.0487 3.44598C26.9502 3.4397 26.8582 3.4397 26.7663 3.45854C26.694 3.45854 26.5496 3.49622 26.3526 3.56529C26.2081 3.6218 26.1096 3.67203 26.057 3.70343L25.9979 3.77877C25.952 3.82901 25.8928 3.86668 25.8206 3.87924C25.7484 3.8918 25.6761 3.87924 25.6105 3.84157C25.5448 3.80389 25.512 3.74738 25.4988 3.68459C25.4857 3.6218 25.4988 3.55901 25.5382 3.50877L25.617 3.42087C25.6893 3.3204 25.8666 3.22621 26.149 3.12575C26.4051 3.03156 26.5955 2.98761 26.7203 2.98133C26.832 2.96877 26.9436 2.96249 27.0552 2.96877C27.18 2.96877 27.3376 2.98761 27.5149 3.01901C27.7054 3.0504 27.9155 3.11947 28.152 3.23249C28.3884 3.33924 28.5657 3.4397 28.6773 3.53389C28.7824 3.62808 28.8809 3.72854 28.9728 3.84784C29.0648 3.96715 29.1567 4.11785 29.2552 4.30622C29.3537 4.49459 29.426 4.65157 29.472 4.77715C29.5179 4.90273 29.577 5.07855 29.6493 5.31715C29.7215 5.53692 29.7806 5.6939 29.82 5.78808C29.8528 5.88855 29.8791 5.98902 29.912 6.08948C29.9448 6.18995 29.9645 6.25902 29.9776 6.30297C30.017 6.3532 30.0039 6.42227 29.9448 6.51018L29.82 6.59809ZM29.3472 6.3532C29.3012 6.29041 29.2618 6.22762 29.2224 6.17739C29.1699 6.10832 29.1108 6.03297 29.0451 5.95134C28.9794 5.87599 28.8415 5.75041 28.6314 5.58715C28.4278 5.43018 28.2964 5.34227 28.2242 5.32343C28.1717 5.31087 28.0731 5.3046 27.9221 5.31087C27.7579 5.32343 27.62 5.35483 27.5084 5.39878C27.3705 5.44901 27.2654 5.49925 27.1931 5.5432C27.1209 5.58715 27.0487 5.63111 26.9764 5.67506C26.9239 5.71274 26.8517 5.79436 26.7597 5.90739C26.6678 6.02669 26.6087 6.10832 26.5824 6.16483C26.5627 6.22134 26.5364 6.30297 26.5167 6.39716C26.5036 6.48506 26.497 6.55413 26.5036 6.61065C26.5036 6.66716 26.5233 6.75507 26.5693 6.87437C26.6152 6.98739 26.6612 7.06902 26.7137 7.11925C26.7729 7.18204 26.832 7.23228 26.8845 7.26367C26.937 7.29507 26.9961 7.32646 27.0552 7.35786C27.1143 7.38925 27.2194 7.42065 27.3573 7.45832C27.4755 7.496 27.5806 7.51484 27.6725 7.51484C27.7776 7.50856 27.863 7.496 27.9287 7.48344C28.0009 7.4646 28.0797 7.43949 28.1651 7.40809C28.2505 7.3767 28.3293 7.33902 28.4146 7.30135C28.4869 7.25739 28.6117 7.15693 28.789 6.99995C28.9663 6.83669 29.0779 6.72995 29.1173 6.686C29.1567 6.62948 29.1896 6.57297 29.2158 6.52902C29.2421 6.49762 29.2815 6.43483 29.3472 6.3532Z" fill="#1F1F1F"/>
<path d="M19.4472 2.17654C19.2042 2.07608 19.0203 1.9191 18.8496 1.72445C18.7905 1.65538 18.4621 1.32259 18.5278 1.20329C18.5606 1.14677 18.7379 1.17817 18.7839 1.20329C18.8364 1.2284 18.889 1.27863 18.9284 1.32259C18.994 1.39794 19.04 1.48584 19.086 1.57375C19.1779 1.75584 19.2502 1.9505 19.3749 2.11375C19.4472 2.21422 19.6179 2.12003 19.5457 2.01957C19.3618 1.7684 19.2896 1.45445 19.086 1.20956C18.9349 1.02747 18.6263 0.864215 18.4096 1.04631C18.206 1.20956 18.3964 1.46073 18.5146 1.6177C18.7379 1.91282 18.9875 2.18282 19.3421 2.33352C19.4669 2.39003 19.5654 2.22678 19.4472 2.17654Z" fill="#1F1F1F"/>
<path d="M18.5363 1.35403C18.7005 1.63659 18.9106 1.90031 19.1142 2.15776C19.193 2.25194 19.3638 2.15776 19.285 2.06357C19.0748 1.80613 18.8712 1.54241 18.7071 1.25985C18.6414 1.1531 18.4706 1.24729 18.5363 1.35403Z" fill="#1F1F1F"/>
<path d="M19.3986 2.35023C19.9371 2.32512 20.4625 2.15558 20.9616 1.96093C21.1258 1.89814 21.4738 1.79139 21.4344 1.56534C21.3294 0.993946 19.7335 1.91069 19.5103 1.99232C19.392 2.03628 19.4446 2.21837 19.5628 2.17442C19.8058 2.08651 20.0291 1.97349 20.2589 1.86674C20.4034 1.79767 21.001 1.46488 21.1717 1.60302C21.2374 1.65325 21.1914 1.65325 21.1126 1.69093C21.0667 1.71604 21.0141 1.73488 20.9616 1.76C20.8368 1.81023 20.7055 1.85418 20.5807 1.90442C20.1998 2.03628 19.8123 2.1493 19.3986 2.16814C19.2738 2.16814 19.2673 2.35651 19.3986 2.35023Z" fill="#1F1F1F"/>
<path d="M20.9821 1.63253C20.5618 1.81463 20.1284 1.96532 19.6949 2.10974C19.5767 2.14742 19.6293 2.32951 19.7475 2.29184C20.2006 2.13486 20.6472 1.97788 21.0872 1.79579C21.1988 1.74556 21.0937 1.5823 20.9821 1.63253Z" fill="#1F1F1F"/>
</svg>
