<svg width="79" height="81" viewBox="0 0 79 81" fill="none" xmlns="http://www.w3.org/2000/svg">
<path d="M4.23828 72.0694V22.9253C4.23828 21.511 4.98516 20.2018 6.20265 19.4821L37.1293 1.19858C38.3805 0.458878 39.9345 0.456127 41.1883 1.1914L72.3824 19.4843C73.6068 20.2023 74.359 21.5154 74.359 22.9347V72.0694C74.359 74.2785 72.5681 76.0694 70.359 76.0694H8.23828C6.02914 76.0694 4.23828 74.2785 4.23828 72.0694Z" fill="#FDA3C4" stroke="#1F1F1F"/>
<path d="M14.2628 52.2985C14.9652 49.9373 13.414 43.4955 12.5506 40.5698L4.238 41.2519L4.238 55.2303L14.2628 52.2985Z" fill="white"/>
<path d="M3.79738 55.3591L4.238 55.2303M4.238 55.2303L14.2628 52.2985C14.9652 49.9373 13.414 43.4955 12.5506 40.5698L4.238 41.2519L4.238 55.2303Z" stroke="#1F1F1F"/>
<path d="M32.9978 18.8455L31.9647 22.4003L30.7951 26.1984L46.5058 30.7519L48.4876 22.6505L43.2247 21.7501L32.9978 18.8455Z" fill="white" stroke="#1F1F1F"/>
<path d="M30.9903 30.0343L30.674 22.317L47.2918 21.773L48.2099 29.3143L30.9903 30.0343Z" fill="white" stroke="#1F1F1F"/>
<path d="M17.8794 37.2676C17.5169 37.2065 14.1816 39.8115 12.5592 41.1217C13.3757 42.7214 14.0372 49.5339 14.2659 52.7402C14.5115 53.0862 15.8521 53.7388 19.2495 53.5808C22.6469 53.4229 25.6046 44.9672 26.6587 40.7591L19.6936 40.4979C19.5805 40.6006 19.5238 40.5058 20.2025 39.3045C21.0508 37.8029 18.3324 37.3441 17.8794 37.2676Z" fill="white" stroke="#1F1F1F"/>
<path d="M57.0014 52.829L56.6179 53.0836L56.8414 53.4867C56.93 53.6465 57.0661 53.7768 57.1899 53.8768C57.3207 53.9825 57.4748 54.0836 57.6363 54.1776C57.9599 54.3659 58.3486 54.546 58.724 54.6957C59.0991 54.8452 59.4776 54.9709 59.7839 55.0452C59.9343 55.0817 60.0858 55.1105 60.2186 55.1188C60.2835 55.1228 60.3658 55.1236 60.4506 55.1084C60.5201 55.0959 60.6845 55.0573 60.8092 54.9071C60.8587 54.8476 60.8946 54.7799 60.9142 54.7417C60.9389 54.6935 60.9643 54.638 60.9897 54.5791C61.0408 54.4607 61.0993 54.3104 61.1608 54.1403C61.2841 53.7993 61.4256 53.3617 61.5504 52.9071C61.6747 52.4545 61.7858 51.9727 61.844 51.547C61.8731 51.3344 61.8905 51.1251 61.8871 50.9345C61.8839 50.7525 61.8615 50.5454 61.7818 50.3622L61.5432 49.8135L61.0453 50.1441L57.0014 52.829Z" fill="#F40000" stroke="#1F1F1F"/>
<path d="M52.4088 29.5879C53.0624 27.7245 52.0668 19.9329 51.4873 16.27C51.8634 15.928 57.6751 15.062 63.5719 14.3207L73.0106 20.1381L73.9095 21.033L74.359 24.1653L74.233 29.6287L52.4088 29.5879Z" fill="#1F1F1F" stroke="#1F1F1F"/>
<path d="M51.8843 29.5352C51.5934 29.3113 50.5098 26.3312 50.125 25.0273L52.7126 24.2706C52.8211 25.5909 52.248 29.8151 51.8843 29.5352Z" fill="#F40000" stroke="#1F1F1F"/>
<path d="M43.8337 24.91C42.5002 24.4323 43.0808 22.5994 43.5379 21.7427L38.2233 19.6093C40.275 18.8647 44.8097 17.2493 46.5348 16.7448C48.2598 16.2403 50.4165 16.188 51.2792 16.2249L52.4012 24.3566C51.4211 24.6433 48.1667 25.1612 47.4608 24.9338C46.7548 24.7064 45.5005 25.5071 43.8337 24.91Z" fill="white" stroke="#1F1F1F"/>
<path d="M25.9337 65.2562L15.1732 43.1081L42.5765 30.0349L56.199 58.3021L29.9623 71.0341L25.9337 65.2562Z" fill="#F40000" stroke="#1F1F1F"/>
<path d="M40.0479 66.2141L25.7534 37.6765L31.3262 35.1857L46.9424 63.0904L40.0479 66.2141Z" fill="#FDA3C4" stroke="#1F1F1F"/>
<path d="M30.7198 39.8083C30.7941 39.7816 30.8574 39.7595 30.9081 39.7383C31.0005 39.704 31.0964 39.6682 31.1924 39.6324C31.2884 39.5966 31.4079 39.5466 31.5527 39.486C31.6939 39.4268 31.8514 39.3565 32.0143 39.2795C32.1844 39.1994 32.3039 39.1406 32.3709 39.1082C32.4378 39.0757 32.5066 39.0382 32.5862 38.996C32.6659 38.9539 32.7238 38.9208 32.7618 38.9005C32.8034 38.8787 32.8504 38.8502 32.9011 38.8202L32.9771 38.7796C33.0115 38.7608 33.0495 38.758 33.0913 38.7713C33.133 38.7846 33.1658 38.8149 33.1895 38.8534C33.2131 38.8918 33.2224 38.9363 33.2134 38.9797C33.2045 39.023 33.1847 39.0533 33.1467 39.0736L33.0707 39.1142C33.02 39.1442 32.9766 39.1712 32.9386 39.1915C32.9006 39.2118 32.8391 39.2464 32.7594 39.2885C32.6798 39.3306 32.6038 39.3713 32.5296 39.4067C32.459 39.4407 32.3432 39.498 32.1766 39.5765C32.0029 39.6581 31.8454 39.7284 31.6969 39.7906C31.563 39.8467 31.4416 39.8931 31.3421 39.9304C31.3747 39.9431 31.4001 39.95 31.4255 39.957C31.4818 39.9818 31.5399 40.0103 31.5999 40.0423C31.6598 40.0744 31.7288 40.1159 31.8106 40.174C31.8888 40.2336 31.9524 40.2817 31.9942 40.3214C32.0433 40.3756 32.0998 40.4531 32.1636 40.5539C32.2256 40.6599 32.2621 40.7414 32.2787 40.8092C32.2952 40.8683 32.3062 40.9252 32.3137 40.9836C32.3157 41.0488 32.3051 41.1236 32.2855 41.2154C32.2604 41.305 32.2334 41.3823 32.201 41.4398C32.1649 41.4989 32.1234 41.5559 32.0747 41.6071C32.0205 41.665 31.9156 41.7353 31.7545 41.8247C31.5917 41.9193 31.4704 41.9745 31.3979 41.996C31.3237 42.0227 31.253 42.0391 31.1787 42.0482C31.1026 42.0537 31.0283 42.054 30.9558 42.0492C30.8796 42.0459 30.7925 42.0296 30.6963 42.0039C30.6002 41.9782 30.5203 41.9501 30.4604 41.918C30.4004 41.8859 30.3223 41.8351 30.2206 41.7634C30.1224 41.6901 30.0515 41.6274 30.006 41.5805C29.966 41.5357 29.9223 41.4836 29.8749 41.4155C29.8312 41.3547 29.7966 41.3032 29.7711 41.2611C29.7492 41.2263 29.7273 41.1915 29.7073 41.1603C29.6836 41.1218 29.6562 41.0673 29.6252 40.9967C29.5905 40.9189 29.5703 40.8526 29.5647 40.7978L29.5609 40.7466C29.5517 40.7021 29.5624 40.6624 29.5859 40.6306C29.6129 40.5973 29.6492 40.5821 29.6927 40.5815C29.7362 40.5808 29.7743 40.5957 29.8088 40.6296C29.8434 40.6635 29.8617 40.6998 29.8673 40.7458L29.8747 40.8043C29.8802 40.824 29.8912 40.8546 29.9076 40.8961C29.9332 40.9469 29.9533 40.9869 29.9679 41.016C29.9861 41.0435 30.008 41.0783 30.0317 41.1168C30.0535 41.1516 30.0845 41.1958 30.1191 41.2473C30.1592 41.3009 30.1938 41.3436 30.2229 41.3754C30.2465 41.405 30.2993 41.4489 30.3774 41.5086C30.461 41.5703 30.5246 41.6096 30.5628 41.6333C30.6027 41.6517 30.6608 41.6714 30.7334 41.6937C30.806 41.7161 30.8695 41.7291 30.9275 41.7312C30.9819 41.7348 31.0363 41.7296 31.0943 41.723C31.1468 41.7141 31.2066 41.7023 31.27 41.6889C31.3298 41.6683 31.4275 41.6186 31.5723 41.5404C31.7134 41.4549 31.802 41.3958 31.8382 41.3631C31.8725 41.3267 31.9068 41.2904 31.9302 41.2498C31.9501 41.2107 31.968 41.1592 31.9859 41.0989C31.9948 41.038 32.0037 40.9947 32.0018 40.9647C32.0017 40.9296 31.9961 40.8923 31.9869 40.8566C31.976 40.826 31.9504 40.7751 31.9085 40.7003C31.8629 40.6271 31.8265 40.5807 31.801 40.5562C31.7701 40.5208 31.7228 40.479 31.6574 40.436C31.5956 40.3916 31.5393 40.358 31.4975 40.3359C31.4503 40.3117 31.3976 40.2853 31.3504 40.2611C31.3069 40.2442 31.2179 40.2242 31.0873 40.1998C31.051 40.1886 31.0166 40.181 30.9875 40.1756C30.9059 40.1614 30.8442 40.152 30.8025 40.1475C30.7573 40.1621 30.7084 40.1781 30.6577 40.1994C30.4893 40.2567 30.3534 40.3004 30.2502 40.3304C30.1488 40.3641 30.0691 40.3887 30.0148 40.4026C29.9568 40.4181 29.8916 40.4366 29.8119 40.4612C29.7286 40.4873 29.6706 40.5027 29.6398 40.5112C29.6054 40.5212 29.5565 40.5285 29.4931 40.5331C29.4876 40.531 29.4804 40.5252 29.4713 40.5246C29.4604 40.5204 29.4477 40.5125 29.4186 40.4983C29.3932 40.4826 29.3696 40.4705 29.3496 40.4568C29.3296 40.4432 29.3078 40.426 29.2878 40.4036C29.2678 40.3812 29.2532 40.3609 29.2477 40.3412C29.2422 40.3215 29.2403 40.3003 29.2511 40.2782C29.2619 40.2561 29.2782 40.2361 29.3071 40.2152C29.336 40.1943 29.3704 40.1755 29.4066 40.1515C29.4428 40.1276 29.4808 40.1073 29.5115 40.09C29.5495 40.0697 29.5912 40.0478 29.6346 40.0296C29.6781 40.0115 29.7632 39.9802 29.8899 39.9359C30.0203 39.8901 30.1199 39.8616 30.1851 39.8519C30.2486 39.8385 30.3138 39.8288 30.3772 39.8242C30.4407 39.8197 30.5041 39.8151 30.5748 39.8163C30.6237 39.8002 30.669 39.8032 30.7198 39.8083Z" fill="#1F1F1F"/>
<path d="M31.2703 44.5805C31.2192 44.5665 31.1789 44.539 31.1513 44.493L31.0925 44.4024C31.0429 44.3212 30.995 44.2172 30.9524 44.08C30.9117 43.9464 30.891 43.8177 30.8832 43.6969C30.879 43.5835 30.8858 43.4832 30.8982 43.4027C30.9161 43.3155 30.9539 43.1978 31.0262 43.0524C31.0948 42.9086 31.1564 42.8031 31.2126 42.7397C31.2707 42.6711 31.3871 42.5871 31.5617 42.4875C31.7346 42.3842 31.862 42.3221 31.9495 42.3032C32.0351 42.2896 32.1537 42.2799 32.3069 42.2779C32.4601 42.2758 32.5988 42.2887 32.7193 42.3092C32.838 42.3349 32.9385 42.3594 33.0171 42.393C33.0993 42.425 33.1999 42.4849 33.328 42.5731C33.4671 42.6656 33.5936 42.7943 33.7056 42.9557C33.8157 43.1134 33.8838 43.2312 33.9134 43.3162C33.9447 43.3962 33.969 43.5145 33.9825 43.6727C33.9978 43.8347 34.002 43.9569 33.9951 44.0396C33.9882 44.1222 33.9613 44.2176 33.9216 44.3228C33.8801 44.4243 33.8349 44.5097 33.7896 44.5685C33.7424 44.6325 33.6589 44.7117 33.5371 44.8025C33.4134 44.8896 33.2897 44.9591 33.1732 45.0078C33.0639 45.0534 32.9692 45.0842 32.8908 45.1036C32.8107 45.1283 32.694 45.1416 32.5372 45.154C32.3785 45.1628 32.2398 45.1587 32.123 45.1367C32.0025 45.1162 31.8782 45.0707 31.7483 44.9965C31.6148 44.9238 31.5234 44.8646 31.4721 44.8152C31.4171 44.7761 31.3493 44.6937 31.2703 44.5805ZM31.197 43.7164C31.2556 43.7539 31.2904 43.7969 31.3016 43.8542L31.3186 43.9668C31.3261 44.0256 31.3428 44.0851 31.3705 44.1488C31.3927 44.2105 31.4368 44.2895 31.5048 44.3895C31.5727 44.4896 31.6223 44.553 31.6552 44.5835C31.6882 44.6141 31.7577 44.6559 31.8565 44.712C31.9589 44.7667 32.0503 44.7994 32.1343 44.8174C32.2238 44.8376 32.3314 44.8413 32.4627 44.8308C32.5995 44.8223 32.7034 44.8099 32.7672 44.7965C32.8328 44.7779 32.9147 44.7481 33.0167 44.7055C33.1114 44.6659 33.2151 44.6093 33.3224 44.5334C33.426 44.4591 33.4933 44.4 33.5204 44.3576C33.5513 44.3137 33.5856 44.2506 33.6199 44.1698C33.6542 44.0891 33.6721 44.0195 33.6792 43.9634C33.6862 43.9073 33.6821 43.8116 33.6669 43.6762C33.6481 43.5423 33.6312 43.4475 33.6091 43.3947C33.5924 43.3441 33.5428 43.2541 33.4528 43.1278C33.3665 43.0088 33.2712 42.9158 33.176 42.8492C33.0699 42.7784 32.9912 42.7271 32.9401 42.7042C32.8797 42.6807 32.7975 42.6575 32.6953 42.6382C32.5967 42.6174 32.4817 42.6079 32.3467 42.6112C32.2136 42.6092 32.1133 42.6202 32.0513 42.6372C31.993 42.6527 31.8893 42.7005 31.74 42.7806C31.5908 42.8695 31.4999 42.9341 31.4618 42.9811C31.4201 43.0295 31.3712 43.1164 31.3116 43.2432C31.2538 43.3648 31.2196 43.4544 31.2052 43.5136C31.2055 43.5666 31.2003 43.6352 31.197 43.7164Z" fill="#1F1F1F"/>
<path d="M32.7996 47.6954C32.7485 47.6814 32.7082 47.6539 32.6806 47.6078L32.6218 47.5172C32.5722 47.4361 32.5243 47.3321 32.4817 47.1948C32.441 47.0613 32.4203 46.9326 32.4125 46.8118C32.4083 46.6984 32.4151 46.5981 32.4275 46.5176C32.4454 46.4304 32.4832 46.3127 32.5555 46.1673C32.6241 46.0234 32.6857 45.918 32.7419 45.8546C32.8 45.786 32.9164 45.7019 33.091 45.6023C33.2639 45.4991 33.3913 45.4369 33.4788 45.4181C33.5644 45.4044 33.683 45.3948 33.8362 45.3927C33.9894 45.3907 34.1281 45.4036 34.2486 45.4241C34.3673 45.4498 34.4678 45.4742 34.5464 45.5078C34.6286 45.5399 34.7292 45.5997 34.8573 45.6879C34.9964 45.7804 35.1228 45.9092 35.2349 46.0706C35.345 46.2283 35.4131 46.346 35.4427 46.4311C35.474 46.511 35.4983 46.6293 35.5118 46.7876C35.5271 46.9495 35.5313 47.0718 35.5244 47.1544C35.5175 47.2371 35.4906 47.3325 35.4509 47.4377C35.4094 47.5392 35.3642 47.6245 35.3189 47.6833C35.2717 47.7473 35.1882 47.8266 35.0664 47.9174C34.9427 48.0045 34.819 48.0739 34.7025 48.1226C34.5932 48.1683 34.4985 48.199 34.4201 48.2185C34.34 48.2431 34.2233 48.2565 34.0665 48.2689C33.9078 48.2776 33.7691 48.2736 33.6523 48.2515C33.5318 48.231 33.4075 48.1855 33.2776 48.1113C33.1441 48.0387 33.0527 47.9795 33.0014 47.93C32.9464 47.891 32.8786 47.8086 32.7996 47.6954ZM32.7263 46.8312C32.7849 46.8688 32.8197 46.9118 32.8309 46.9691L32.8479 47.0816C32.8554 47.1405 32.8721 47.2 32.8998 47.2637C32.922 47.3253 32.9661 47.4043 33.0341 47.5044C33.102 47.6044 33.1516 47.6679 33.1845 47.6984C33.2175 47.7289 33.287 47.7707 33.3858 47.8269C33.4882 47.8816 33.5796 47.9143 33.6636 47.9323C33.7531 47.9525 33.8607 47.9562 33.992 47.9456C34.1288 47.9372 34.2327 47.9247 34.2965 47.9114C34.3621 47.8928 34.444 47.863 34.546 47.8204C34.6407 47.7808 34.7444 47.7241 34.8517 47.6483C34.9553 47.5739 35.0226 47.5148 35.0497 47.4725C35.0805 47.4286 35.1149 47.3655 35.1492 47.2847C35.1835 47.2039 35.2014 47.1344 35.2085 47.0783C35.2155 47.0222 35.2114 46.9265 35.1962 46.7911C35.1774 46.6572 35.1605 46.5623 35.1384 46.5096C35.1217 46.459 35.072 46.369 34.9821 46.2427C34.8958 46.1237 34.8005 46.0306 34.7053 45.9641C34.5992 45.8933 34.5205 45.842 34.4693 45.8191C34.409 45.7956 34.3268 45.7724 34.2246 45.7531C34.126 45.7323 34.011 45.7228 33.876 45.726C33.7429 45.7241 33.6426 45.735 33.5806 45.7521C33.5223 45.7676 33.4186 45.8154 33.2693 45.8955C33.1201 45.9844 33.0292 46.049 32.9911 46.0959C32.9494 46.1444 32.9005 46.2313 32.8409 46.3581C32.7831 46.4797 32.7488 46.5693 32.7345 46.6285C32.7348 46.6815 32.7296 46.7501 32.7263 46.8312Z" fill="#1F1F1F"/>
<path d="M37.2842 54.5012C37.2589 54.5118 37.2299 54.5239 37.2046 54.5345C37.1412 54.5654 37.0815 54.5948 37.0182 54.6258C36.9548 54.6567 36.8987 54.6846 36.848 54.7058C36.7937 54.7286 36.734 54.7492 36.6706 54.7713L36.5692 54.8138C36.5312 54.8253 36.4895 54.8208 36.4495 54.8023C36.4096 54.7839 36.3768 54.7536 36.3604 54.7121C36.3439 54.6706 36.3401 54.6282 36.3491 54.5849C36.3616 54.5401 36.3887 54.5155 36.4267 54.504L36.5209 54.4646C36.5879 54.4409 36.644 54.4218 36.6947 54.4006C36.7418 54.3809 36.7979 54.353 36.854 54.3251C36.9137 54.2957 36.9734 54.2663 37.0404 54.2338C37.1128 54.2035 37.2341 54.1483 37.4079 54.0668C37.5346 54.0049 37.6377 53.9573 37.7174 53.9239C37.759 53.9021 37.8079 53.8773 37.864 53.8494C38.0196 53.7754 38.1337 53.7232 38.2133 53.6899C38.293 53.6565 38.3745 53.6268 38.4542 53.6022C38.4578 53.6007 38.465 53.5977 38.4723 53.5946C38.4795 53.5916 38.4958 53.5892 38.5176 53.5888C38.5393 53.5885 38.5593 53.5846 38.581 53.5843C38.6028 53.584 38.6227 53.5888 38.6445 53.5973C38.6663 53.6057 38.6844 53.6157 38.7008 53.6309C38.7172 53.646 38.7299 53.6626 38.7391 53.6896C38.7482 53.7165 38.7502 53.7465 38.7467 53.7832C38.7414 53.8425 38.7252 53.8801 38.7054 53.9016C38.6855 53.9231 38.6674 53.9307 38.6456 53.9223L38.6184 53.9117C38.5568 53.9374 38.4844 53.9678 38.3975 54.0042C38.3106 54.0405 38.2346 54.0724 38.1622 54.1027C38.0934 54.1315 38.021 54.1619 37.9449 54.1937C37.9286 54.2049 37.9087 54.2176 37.8798 54.2298C37.8273 54.2561 37.7893 54.2765 37.7549 54.2953C37.909 54.2967 38.0232 54.2972 38.0994 54.3005C38.181 54.3059 38.2608 54.3165 38.3442 54.3255C38.4313 54.3331 38.5673 54.3597 38.7487 54.398C38.9429 54.4443 39.0699 54.479 39.1298 54.5023C39.1952 54.5365 39.2606 54.5795 39.326 54.6312L39.3933 54.6954C39.4297 54.7242 39.4534 54.7626 39.4608 54.8123C39.4664 54.8583 39.4593 54.8965 39.4358 54.9283C39.4124 54.9601 39.3761 54.9753 39.329 54.9774C39.2855 54.9781 39.2438 54.9648 39.211 54.9345L39.1401 54.8718C39.1074 54.8416 39.0728 54.8164 39.042 54.7986C39.0038 54.7838 38.8986 54.7575 38.7335 54.7167C38.5575 54.6804 38.4324 54.6581 38.358 54.6496C38.28 54.6427 38.2057 54.6342 38.1295 54.631C38.0533 54.6277 37.9337 54.625 37.7705 54.623C37.5874 54.6161 37.4604 54.5989 37.3824 54.5744C37.3479 54.5493 37.3152 54.5278 37.2842 54.5012Z" fill="#1F1F1F"/>
<path d="M37.386 56.7944C37.3449 56.7729 37.3164 56.7419 37.2969 56.7027C37.2774 56.6635 37.2776 56.6203 37.2885 56.5811C37.303 56.5405 37.3246 56.5141 37.3604 56.4989L37.4178 56.4832C37.4536 56.468 37.5146 56.4422 37.6007 56.4057C37.6867 56.3693 37.7584 56.3389 37.8122 56.3161C37.8624 56.2948 37.9324 56.2609 38.0203 56.2193C38.1117 56.1763 38.2193 56.122 38.3413 56.0617C38.4651 55.9964 38.5817 55.934 38.6929 55.8783C38.8041 55.8225 38.892 55.781 38.9601 55.7435C39.0283 55.706 39.0929 55.67 39.1646 55.6309C39.2364 55.5919 39.2866 55.562 39.3136 55.5463C39.3351 55.5371 39.3584 55.5229 39.3835 55.5037L39.4302 55.4753C39.4589 55.4545 39.4947 55.4479 39.5358 55.4607C39.5805 55.472 39.6144 55.4964 39.6375 55.5341C39.6642 55.5702 39.673 55.614 39.6692 55.6587C39.6654 55.7035 39.6456 55.7334 39.6115 55.7522L39.5738 55.7811C39.5397 55.7999 39.5092 55.8171 39.4823 55.8328C39.4572 55.8435 39.4105 55.8719 39.3406 55.9145C39.2688 55.9535 39.197 55.9925 39.1289 56.03C39.0607 56.0675 38.971 56.1142 38.8598 56.1699C38.7468 56.2221 38.6285 56.2809 38.5065 56.3412C38.3827 56.4066 38.2769 56.4644 38.1854 56.5074C38.094 56.5505 38.024 56.5844 37.9702 56.6072C37.9164 56.63 37.8447 56.6604 37.7551 56.6984C37.6654 56.7364 37.6009 56.7637 37.565 56.7789L37.5005 56.7976C37.4664 56.8164 37.427 56.8158 37.386 56.7944Z" fill="#1F1F1F"/>
<path d="M40.0463 56.2579C40.0901 56.2573 40.1285 56.2723 40.1615 56.3028C40.1945 56.3334 40.2147 56.3736 40.2259 56.4222C40.2316 56.4685 40.2245 56.507 40.2009 56.539L40.101 56.6561C40.0303 56.7433 39.9376 56.8396 39.8267 56.9436C39.7268 57.043 39.6469 57.1207 39.596 57.1774C39.5452 57.243 39.4763 57.3338 39.3874 57.4464C39.3003 57.5625 39.1969 57.6988 39.0826 57.8485C38.9646 57.9998 38.8921 58.101 38.8577 58.1553C38.8196 58.2111 38.7852 58.2654 38.7525 58.3145C38.7253 58.3569 38.6946 58.4185 38.6658 58.5014C38.6604 58.517 38.6568 58.5362 38.6514 58.5518C38.6825 58.5609 38.7153 58.5649 38.7501 58.5726C38.8944 58.5965 38.9985 58.6106 39.0642 58.6097C39.1426 58.6079 39.2211 58.6061 39.3069 58.6013C39.3981 58.5986 39.5569 58.5899 39.7868 58.5736C40.0149 58.5624 40.1718 58.5589 40.2594 58.5577C40.347 58.5566 40.4511 58.553 40.5715 58.547C40.6901 58.5461 40.7741 58.5465 40.827 58.5465L40.8982 58.5478C40.9365 58.5451 40.9768 58.5637 41.0098 58.5942C41.0446 58.6284 41.0649 58.6687 41.0742 58.7136C41.0799 58.7599 41.0728 58.7984 41.0437 58.8282C41.0165 58.8618 40.9837 58.8755 40.938 58.8724L40.8705 58.8785C40.8249 58.8754 40.7409 58.875 40.6223 58.8759C40.5018 58.8819 40.4015 58.884 40.3175 58.8836C40.2354 58.8869 40.0784 58.8904 39.8467 58.9031C39.615 58.9158 39.4544 58.9208 39.3704 58.9293C39.2792 58.932 39.1971 58.9353 39.1186 58.9371C39.0328 58.9419 38.9087 58.9318 38.7443 58.903C38.7351 58.9024 38.7169 58.9011 38.6913 58.8941C38.6676 58.8907 38.6475 58.8858 38.6365 58.8815C38.6255 58.8773 38.6054 58.8724 38.5762 58.8669C38.547 58.8614 38.5269 58.8565 38.5159 58.8522C38.5049 58.8479 38.4866 58.8378 38.4628 58.8256C38.4391 58.8134 38.4226 58.7981 38.4115 58.785C38.4005 58.7719 38.3877 58.7551 38.3693 58.7362C38.351 58.7172 38.34 58.6953 38.3435 58.6672C38.3121 58.5872 38.3226 58.4853 38.3694 58.3594C38.4018 58.2484 38.4361 58.1675 38.4778 58.1102C38.5086 58.0574 38.543 58.0032 38.5811 57.9474C38.621 57.8864 38.699 57.7784 38.8242 57.6241C38.9421 57.4729 39.0437 57.3418 39.129 57.2219C39.2161 57.1058 39.2886 57.0134 39.3413 56.9515C39.3994 56.8829 39.4829 56.7948 39.5919 56.6871C39.6992 56.5936 39.7828 56.5054 39.8463 56.4301L39.9425 56.3057C39.966 56.2737 40.0025 56.2585 40.0463 56.2579Z" fill="#1F1F1F"/>
<path d="M40.8359 62.3636L40.8322 62.3563C40.7793 62.3474 40.7319 62.3407 40.6919 62.3398C40.6517 62.33 40.608 62.3218 40.5624 62.3099C40.5022 62.2952 40.3891 62.254 40.2266 62.1848C40.0605 62.1171 39.9437 62.0598 39.8797 62.0114C39.8175 61.9666 39.759 61.9203 39.7078 61.8709C39.6566 61.8215 39.609 61.7707 39.5614 61.7198C39.5156 61.6637 39.4679 61.5952 39.422 61.5127C39.3797 61.4286 39.3465 61.3275 39.3241 61.213C39.3072 61.1094 39.3014 61.0278 39.2993 60.9712C39.2973 60.9145 39.2988 60.8564 39.3076 60.7952C39.3128 60.7355 39.3326 60.6697 39.3596 60.6009C39.3939 60.5203 39.4482 60.4445 39.5298 60.3705C39.6042 60.2996 39.6678 60.2509 39.7241 60.223C39.7768 60.1965 39.8405 60.1743 39.9224 60.1533C40.0006 60.1339 40.0698 60.1315 40.1318 60.1321C40.1974 60.1313 40.2885 60.1462 40.4089 60.1755C40.5329 60.2033 40.6278 60.2344 40.6899 60.2704C40.7465 60.3042 40.8031 60.338 40.8598 60.3807C40.9165 60.4234 40.9878 60.4776 41.0683 60.5501C41.1524 60.63 41.2349 60.7326 41.3046 60.8538C41.378 60.9736 41.4259 61.0774 41.4372 61.1612C41.4503 61.2486 41.4345 61.3834 41.3934 61.5643C41.3881 61.5887 41.3809 61.6094 41.3755 61.6337C41.4554 61.5649 41.5207 61.5111 41.5661 61.47C41.6187 61.417 41.6803 61.347 41.7528 61.2548C41.8234 61.1678 41.8741 61.0935 41.9084 61.0305C41.9446 60.9711 41.9698 60.9075 41.9878 60.8469C42.0021 60.7967 42.009 60.7053 42.0085 60.5817C42.0061 60.4544 41.9928 60.3494 41.9652 60.268C41.9374 60.1779 41.9116 60.1091 41.8859 60.0579C41.8619 60.0016 41.8362 59.9504 41.7996 59.9038C41.7793 59.8636 41.7171 59.7923 41.6219 59.6994C41.5488 59.6326 41.4921 59.59 41.4592 59.5683L41.399 59.5537C41.3571 59.5403 41.3187 59.5165 41.2912 59.4793C41.2637 59.4422 41.2508 59.3989 41.2542 59.3532C41.2576 59.3076 41.2812 59.2756 41.3139 59.2531C41.3466 59.2306 41.3866 59.2227 41.4267 59.2324L41.4997 59.255C41.5781 59.2709 41.6823 59.3468 41.8195 59.4796C41.9458 59.5994 42.0245 59.6947 42.0631 59.7626C42.1016 59.8217 42.1365 59.8823 42.1641 59.946C42.199 60.0154 42.2322 60.1077 42.2637 60.214C42.2988 60.3276 42.3176 60.4613 42.3183 60.6202C42.3227 60.7777 42.3141 60.9007 42.2908 60.9856C42.2657 61.0669 42.2351 61.1461 42.1917 61.2261C42.1483 61.3062 42.0868 61.3939 42.0053 61.4943C41.9237 61.5947 41.853 61.673 41.7932 61.7289C41.7333 61.7849 41.648 61.8604 41.53 61.9584C41.423 62.0518 41.3486 62.1227 41.305 62.1675C41.2561 62.2101 41.2052 62.249 41.1562 62.2916C41.1072 62.3342 41.0727 62.3619 41.0509 62.3799C41.0329 62.414 40.9892 62.4234 40.9217 62.4118L40.8359 62.3636ZM40.8454 62.0411C40.8689 62.0004 40.8942 61.9632 40.9123 61.9291C40.9376 61.8832 40.9647 61.832 40.9936 61.7757C41.0188 61.7209 41.053 61.6137 41.0887 61.4572C41.1227 61.3059 41.1368 61.2115 41.1275 61.1668C41.1201 61.1345 41.0961 61.0781 41.0502 60.9956C40.997 60.9073 40.9402 60.8381 40.8835 60.7866C40.8158 60.722 40.7573 60.6757 40.7116 60.6461C40.6659 60.6166 40.6203 60.587 40.5746 60.5575C40.5381 60.5373 40.4706 60.5169 40.3794 60.4931C40.2845 60.4708 40.2207 60.4577 40.1806 60.4568C40.1424 60.4595 40.0877 60.4646 40.0277 60.4765C39.9731 60.4904 39.9312 60.5035 39.9003 60.5209C39.8676 60.5345 39.8222 60.5668 39.766 60.6213C39.7134 60.6742 39.679 60.7196 39.6646 60.761C39.6448 60.8091 39.6322 60.8541 39.6287 60.891C39.6252 60.9278 39.6236 60.9683 39.622 61.0088C39.6203 61.0493 39.6315 61.1154 39.6483 61.2013C39.6596 61.2762 39.6781 61.3392 39.7038 61.3904C39.7369 61.4474 39.768 61.4918 39.7937 61.5253C39.8248 61.561 39.8614 61.5988 39.9035 61.6387C39.9456 61.6786 39.9895 61.7133 40.0352 61.7517C40.0809 61.7813 40.174 61.8264 40.3145 61.8871C40.4587 61.9462 40.5518 61.9825 40.5883 61.9938C40.6321 62.002 40.674 62.0066 40.7068 62.0106C40.7323 62.0176 40.7797 62.0244 40.8454 62.0411Z" fill="#1F1F1F"/>
<path d="M47.6198 41.6133L19.9711 53.248L23.567 60.4075L49.8044 46.1563L47.6198 41.6133Z" fill="#FDA3C4" stroke="#1F1F1F"/>
<path d="M47.9804 42.0685C48.3006 40.2334 54.1394 41.2831 57.0188 42.0373L60.1531 52.6581C58.7232 54.3824 55.3284 57.7697 53.1882 57.5249C51.4611 57.3274 51.4347 56.3018 51.7533 55.5308C51.2942 56.1747 50.3911 56.7549 49.0481 55.9058C47.353 54.8343 48.2005 53.0336 48.8361 52.2672C48.1345 53.0529 46.4424 54.2299 45.2874 52.652C44.2359 51.2156 45.6344 49.7723 46.6818 49.0756C46.2748 49.2269 45.6651 49.1007 45.1761 47.8956C44.5443 46.3389 47.4272 45.0604 48.9476 44.6158C48.4918 44.5313 47.6603 43.9036 47.9804 42.0685Z" fill="white"/>
<path d="M57.0188 42.0373C54.1394 41.2831 48.3006 40.2334 47.9804 42.0685C47.6603 43.9036 48.4918 44.5313 48.9476 44.6158C47.4272 45.0604 44.5443 46.3389 45.1761 47.8956C45.8078 49.4523 46.6408 49.2087 46.9783 48.8923C45.9334 49.4881 44.1324 51.0742 45.2874 52.652C46.4424 54.2299 48.1345 53.0529 48.8361 52.2672C48.2005 53.0336 47.353 54.8343 49.0481 55.9058C50.7431 56.9774 51.7374 55.7724 52.0226 55.0359C51.5194 55.7636 51.0479 57.2801 53.1882 57.5249C55.3284 57.7697 58.7232 54.3824 60.1531 52.6581L57.0188 42.0373Z" stroke="#1F1F1F"/>
<path d="M56.9025 41.6425L60.7426 54.6551L74.3583 51.2221L74.3583 34.1383L56.9025 41.6425Z" fill="#1F1F1F" stroke="#1F1F1F"/>
<path d="M32.287 75.7209C31.9864 74.1217 26.7593 69.3239 24.1834 67.1249L12.779 76.0623L32.287 75.7209Z" fill="white" stroke="#1F1F1F"/>
<path d="M27.5657 60.5809C26.1629 60.4806 24.7294 65.0265 24.1879 67.3119L31.7599 75.5202C31.1369 75.3479 30.3157 75.1343 32.0152 75.6582C34.1396 76.3132 40.0221 72.253 40.0126 70.7668C40.0051 69.5778 38.7956 69.0665 38.1919 68.9595C38.7652 68.7209 39.8983 67.9074 39.8445 66.5617C39.7907 65.2161 36.9337 65.7603 36.1516 65.7763C36.5274 65.5955 38.4825 63.9821 38.1782 62.3694C37.8739 60.7567 35.7134 61.5304 34.6712 62.1188C34.7724 61.7347 34.7079 60.7892 33.6405 60.0804C32.573 59.3716 30.3982 61.454 29.4442 62.5839C29.3528 61.5471 29.3193 60.7062 27.5657 60.5809Z" fill="white" stroke="#1F1F1F"/>
<ellipse cx="8.28402" cy="44.2965" rx="1.34847" ry="1.3424" fill="#FDA3C4" stroke="#1F1F1F"/>
<ellipse cx="11.8797" cy="48.7762" rx="1.34847" ry="1.3424" fill="#FDA3C4" stroke="#1F1F1F"/>
<ellipse cx="6.48519" cy="52.3498" rx="1.34847" ry="1.3424" fill="#FDA3C4" stroke="#1F1F1F"/>
<ellipse cx="23.5672" cy="69.3589" rx="1.34847" ry="1.3424" fill="#FDA3C4" stroke="#1F1F1F"/>
<ellipse cx="27.1627" cy="74.73" rx="1.34847" ry="1.3424" fill="#FDA3C4" stroke="#1F1F1F"/>
<ellipse cx="18.1724" cy="74.73" rx="1.34847" ry="1.3424" fill="#FDA3C4" stroke="#1F1F1F"/>
<path d="M41.4964 25.9546C41.4964 27.1591 40.515 28.1394 39.2995 28.1394C38.084 28.1394 37.1025 27.1591 37.1025 25.9546C37.1025 24.7501 38.084 23.7698 39.2995 23.7698C40.515 23.7698 41.4964 24.7501 41.4964 25.9546Z" stroke="black"/>
<path d="M32.1055 23.7169L32.555 28.6391L36.6004 28.1916" stroke="#1F1F1F"/>
<path d="M24.2353 55.624C24.2053 55.5426 24.1805 55.4732 24.1567 55.4176C24.1183 55.3164 24.0781 55.2113 24.038 55.1061C23.9978 55.001 23.9418 54.8701 23.8739 54.7114C23.8076 54.5567 23.7289 54.3842 23.6427 54.2057C23.5532 54.0194 23.4874 53.8886 23.4511 53.8152C23.4148 53.7419 23.3728 53.6666 23.3257 53.5794C23.2786 53.4922 23.2417 53.4288 23.219 53.3872C23.1946 53.3416 23.1628 53.2901 23.1293 53.2347L23.0839 53.1514C23.0629 53.1138 23.0597 53.072 23.0742 53.0261C23.0887 52.9802 23.1221 52.9442 23.1646 52.9179C23.207 52.8917 23.2563 52.8814 23.3043 52.8909C23.3524 52.9005 23.386 52.9221 23.4087 52.9637L23.4541 53.047C23.4876 53.1024 23.5177 53.1499 23.5404 53.1916C23.5631 53.2332 23.6017 53.3005 23.6488 53.3877C23.6959 53.4749 23.7413 53.5581 23.781 53.6394C23.819 53.7167 23.8831 53.8436 23.9709 54.026C24.0622 54.2163 24.1409 54.3888 24.2105 54.5514C24.2734 54.6982 24.3254 54.8311 24.3673 54.9403C24.3812 54.9043 24.3887 54.8764 24.3963 54.8485C24.4235 54.7866 24.4547 54.7226 24.4899 54.6567C24.5251 54.5907 24.5707 54.5147 24.6346 54.4246C24.7003 54.3385 24.7533 54.2685 24.797 54.2223C24.8567 54.1681 24.9423 54.1057 25.0537 54.0352C25.1707 53.9666 25.2608 53.926 25.3358 53.9075C25.4011 53.8891 25.4642 53.8766 25.5289 53.8682C25.601 53.8656 25.6839 53.8769 25.7857 53.8979C25.8851 53.925 25.9708 53.9542 26.0348 53.9895C26.1004 54.0288 26.1637 54.074 26.2207 54.1273C26.2851 54.1865 26.3635 54.3013 26.4634 54.4776C26.5691 54.6559 26.6308 54.7887 26.6551 54.8681C26.685 54.9495 26.7035 55.027 26.714 55.1085C26.7205 55.192 26.7213 55.2736 26.7163 55.3533C26.7131 55.4369 26.6954 55.5326 26.6675 55.6383C26.6395 55.744 26.6088 55.8318 26.5736 55.8977C26.5383 55.9637 26.4824 56.0497 26.4035 56.1618C26.3229 56.2699 26.2538 56.3481 26.2021 56.3983C26.1527 56.4425 26.0952 56.4907 26.02 56.543C25.9528 56.5913 25.896 56.6296 25.8495 56.6578C25.811 56.682 25.7726 56.7062 25.7381 56.7284C25.6957 56.7546 25.6354 56.7849 25.5574 56.8194C25.4714 56.8579 25.3981 56.8804 25.3374 56.8869L25.2807 56.8913C25.2314 56.9016 25.1874 56.89 25.152 56.8645C25.115 56.8349 25.098 56.7952 25.0971 56.7475C25.0962 56.6997 25.1124 56.6578 25.1498 56.6197C25.1871 56.5816 25.2273 56.5613 25.2782 56.555L25.343 56.5465C25.3647 56.5403 25.3986 56.5281 25.4444 56.5098C25.5006 56.4815 25.5448 56.4593 25.5769 56.4431C25.6074 56.423 25.6458 56.3988 25.6883 56.3725C25.7267 56.3484 25.7756 56.3141 25.8324 56.2759C25.8915 56.2316 25.9386 56.1934 25.9737 56.1613C26.0065 56.1351 26.0548 56.077 26.1204 55.9909C26.1884 55.8988 26.2316 55.8288 26.2576 55.7868C26.2778 55.7429 26.2993 55.679 26.3237 55.5992C26.3481 55.5194 26.3622 55.4496 26.3642 55.3859C26.3679 55.3262 26.3619 55.2666 26.3542 55.2029C26.3441 55.1453 26.3307 55.0797 26.3156 55.0102C26.2924 54.9447 26.2368 54.8377 26.1495 54.6792C26.054 54.5247 25.9881 54.4277 25.9517 54.3882C25.9112 54.3507 25.8707 54.3132 25.8256 54.2877C25.7823 54.2662 25.7251 54.2467 25.6582 54.2274C25.5908 54.2179 25.5427 54.2084 25.5095 54.2106C25.4706 54.2109 25.4294 54.2173 25.3898 54.2275C25.356 54.2397 25.2998 54.268 25.2172 54.3145C25.1362 54.3649 25.0851 54.4051 25.0581 54.4332C25.019 54.4673 24.973 54.5194 24.9257 54.5915C24.8768 54.6595 24.8398 54.7215 24.8156 54.7675C24.789 54.8195 24.7601 54.8774 24.7336 54.9294C24.715 54.9773 24.6934 55.075 24.667 55.2185C24.6548 55.2584 24.6466 55.2963 24.6407 55.3282C24.6254 55.4178 24.6154 55.4856 24.6106 55.5314C24.6269 55.581 24.645 55.6346 24.6688 55.6901C24.7332 55.8747 24.7823 56.0236 24.8161 56.1368C24.8539 56.2479 24.8815 56.3352 24.8973 56.3948C24.9147 56.4584 24.9356 56.5299 24.9632 56.6172C24.9925 56.7085 25.01 56.7721 25.0195 56.8058C25.0308 56.8435 25.0391 56.8972 25.0445 56.9668C25.0422 56.9728 25.0359 56.9808 25.0353 56.9908C25.0306 57.0028 25.022 57.0168 25.0064 57.0487C24.9891 57.0767 24.9758 57.1027 24.9608 57.1247C24.9458 57.1467 24.9268 57.1708 24.9021 57.1929C24.8774 57.215 24.855 57.2311 24.8333 57.2372C24.8115 57.2433 24.788 57.2455 24.7634 57.2338C24.7389 57.222 24.7167 57.2043 24.6933 57.1726C24.67 57.141 24.649 57.1033 24.6223 57.0638C24.5956 57.0242 24.5729 56.9826 24.5536 56.9489C24.5309 56.9073 24.5065 56.8617 24.4861 56.8141C24.4657 56.7665 24.4307 56.6732 24.381 56.5343C24.3296 56.3914 24.2975 56.2822 24.2864 56.2107C24.2712 56.1411 24.2601 56.0696 24.2547 56C24.2493 55.9303 24.2439 55.8607 24.2449 55.7831C24.2268 55.7295 24.2299 55.6797 24.2353 55.624Z" fill="#1F1F1F"/>
<path d="M29.5251 54.9917C29.5097 55.0479 29.4795 55.0922 29.4286 55.1227L29.3286 55.1877C29.239 55.2426 29.124 55.2958 28.9722 55.3432C28.8244 55.3886 28.682 55.412 28.5483 55.4212C28.4226 55.4264 28.3115 55.4194 28.2223 55.4062C28.1256 55.387 27.995 55.3462 27.8336 55.2676C27.6739 55.1929 27.5567 55.1259 27.4862 55.0645C27.41 55.0011 27.3162 54.8738 27.205 54.6826C27.0898 54.4934 27.0203 54.3538 26.999 54.2579C26.9834 54.1639 26.972 54.0338 26.969 53.8656C26.966 53.6974 26.9795 53.5451 27.0016 53.4127C27.0295 53.2823 27.0561 53.1719 27.0929 53.0855C27.128 52.995 27.1937 52.8843 27.2908 52.7432C27.3925 52.59 27.5345 52.4506 27.7126 52.3268C27.8868 52.205 28.0168 52.1297 28.1109 52.0968C28.1993 52.0619 28.3302 52.0347 28.5055 52.0191C28.6848 52.0014 28.8202 51.9961 28.9118 52.0033C29.0033 52.0105 29.1092 52.0396 29.2259 52.0825C29.3385 52.1276 29.4333 52.1768 29.4987 52.2262C29.5698 52.2776 29.658 52.369 29.7592 52.5022C29.8564 52.6375 29.9339 52.773 29.9885 52.9006C30.0396 53.0203 30.0742 53.1241 30.0961 53.2101C30.1238 53.2979 30.1392 53.4259 30.1538 53.598C30.1643 53.7722 30.1605 53.9244 30.1367 54.0528C30.1146 54.1852 30.0648 54.3218 29.9833 54.4648C29.9035 54.6117 29.8384 54.7124 29.7839 54.769C29.7409 54.8295 29.65 54.9044 29.5251 54.9917ZM28.5682 55.0766C28.6094 55.0121 28.6569 54.9736 28.7204 54.961L28.8449 54.9419C28.9101 54.9332 28.9759 54.9146 29.0463 54.8839C29.1145 54.8593 29.2018 54.8104 29.3122 54.7353C29.4227 54.6602 29.4928 54.6055 29.5264 54.5691C29.56 54.5327 29.606 54.4562 29.6677 54.3475C29.7277 54.2348 29.7634 54.1343 29.783 54.042C29.8049 53.9437 29.8085 53.8255 29.7961 53.6814C29.786 53.5313 29.7717 53.4173 29.7565 53.3474C29.7356 53.2755 29.7022 53.1856 29.6544 53.0739C29.6101 52.9702 29.5468 52.8566 29.4623 52.7392C29.3794 52.6259 29.3136 52.5524 29.2665 52.5228C29.2177 52.4892 29.1476 52.4518 29.058 52.4145C28.9683 52.3773 28.8912 52.358 28.8291 52.3505C28.7669 52.3431 28.6608 52.3481 28.5109 52.3655C28.3627 52.3869 28.2578 52.4059 28.1994 52.4304C28.1434 52.449 28.044 52.504 27.9046 52.6034C27.7732 52.6987 27.6707 52.8038 27.5974 52.9086C27.5196 53.0255 27.4632 53.1121 27.4381 53.1684C27.4123 53.2347 27.387 53.3251 27.3662 53.4374C27.3436 53.5458 27.3337 53.672 27.338 53.8202C27.3366 53.9664 27.3492 54.0764 27.3684 54.1443C27.3858 54.2083 27.4393 54.3219 27.5288 54.4853C27.6281 54.6486 27.7001 54.7481 27.7523 54.7897C27.8062 54.8352 27.9027 54.8884 28.0434 54.9532C28.1785 55.0161 28.2779 55.0532 28.3435 55.0686C28.4023 55.0681 28.4783 55.0734 28.5682 55.0766Z" fill="#1F1F1F"/>
<path d="M32.9684 53.2962C32.9531 53.3525 32.9229 53.3968 32.872 53.4273L32.7719 53.4923C32.6823 53.5472 32.5674 53.6003 32.4156 53.6478C32.2678 53.6932 32.1254 53.7165 31.9916 53.7258C31.866 53.7309 31.7549 53.7239 31.6656 53.7107C31.5689 53.6916 31.4384 53.6508 31.277 53.5721C31.1172 53.4975 31.0001 53.4305 30.9296 53.369C30.8533 53.3057 30.7596 53.1784 30.6484 52.9871C30.5331 52.7979 30.4637 52.6584 30.4423 52.5624C30.4267 52.4685 30.4154 52.3384 30.4124 52.1702C30.4093 52.002 30.4229 51.8497 30.445 51.7173C30.4728 51.5869 30.4994 51.4765 30.5362 51.39C30.5713 51.2996 30.6371 51.1888 30.7341 51.0477C30.8358 50.8946 30.9778 50.7551 31.156 50.6313C31.3301 50.5096 31.4602 50.4343 31.5543 50.4014C31.6427 50.3665 31.7736 50.3393 31.9488 50.3236C32.1281 50.306 32.2636 50.3007 32.3551 50.3079C32.4467 50.3151 32.5525 50.3441 32.6692 50.3871C32.7819 50.4321 32.8767 50.4813 32.942 50.5308C33.0132 50.5822 33.1014 50.6735 33.2026 50.8068C33.2997 50.9421 33.3773 51.0775 33.4318 51.2052C33.483 51.3249 33.5175 51.4287 33.5395 51.5146C33.5672 51.6025 33.5826 51.7305 33.5971 51.9026C33.6076 52.0767 33.6038 52.229 33.58 52.3574C33.5579 52.4898 33.5082 52.6264 33.4267 52.7693C33.3469 52.9163 33.2817 53.017 33.2273 53.0736C33.1843 53.134 33.0934 53.209 32.9684 53.2962ZM32.0115 53.3811C32.0528 53.3167 32.1003 53.2782 32.1637 53.2656L32.2883 53.2464C32.3534 53.2378 32.4192 53.2192 32.4897 53.1885C32.5578 53.1638 32.6451 53.115 32.7556 53.0398C32.8661 52.9647 32.9361 52.91 32.9697 52.8737C33.0034 52.8373 33.0493 52.7608 33.1111 52.6521C33.1711 52.5394 33.2068 52.4389 33.2263 52.3466C33.2482 52.2483 33.2518 52.1301 33.2394 51.986C33.2294 51.8359 33.215 51.7219 33.1999 51.6519C33.179 51.58 33.1455 51.4902 33.0978 51.3785C33.0535 51.2748 32.9902 51.1612 32.9056 51.0438C32.8227 50.9304 32.7569 50.8569 32.7098 50.8273C32.6611 50.7937 32.591 50.7563 32.5013 50.7191C32.4117 50.6819 32.3346 50.6625 32.2724 50.6551C32.2102 50.6477 32.1042 50.6526 31.9543 50.67C31.8061 50.6914 31.7011 50.7104 31.6428 50.735C31.5868 50.7535 31.4874 50.8085 31.348 50.9079C31.2166 51.0033 31.114 51.1083 31.0408 51.2132C30.9629 51.33 30.9065 51.4167 30.8814 51.473C30.8557 51.5393 30.8304 51.6296 30.8095 51.742C30.787 51.8503 30.777 51.9766 30.7814 52.1248C30.7799 52.271 30.7925 52.381 30.8117 52.4489C30.8292 52.5128 30.8827 52.6265 30.9722 52.7899C31.0715 52.9532 31.1435 53.0527 31.1957 53.0942C31.2496 53.1398 31.346 53.193 31.4868 53.2578C31.6218 53.3206 31.7213 53.3578 31.7869 53.3732C31.8456 53.3726 31.9217 53.378 32.0115 53.3811Z" fill="#1F1F1F"/>
<path d="M34.5515 51.3296C34.5634 51.3574 34.577 51.3891 34.5888 51.4169C34.6234 51.4863 34.6563 51.5517 34.6909 51.6211C34.7255 51.6905 34.7567 51.7519 34.7804 51.8075C34.8059 51.867 34.8291 51.9324 34.8539 52.0019L34.9015 52.113C34.9144 52.1547 34.9096 52.2005 34.8894 52.2444C34.8692 52.2884 34.8358 52.3245 34.7899 52.3427C34.7441 52.361 34.6971 52.3654 34.6491 52.3558C34.5994 52.3423 34.572 52.3126 34.5591 52.271L34.5149 52.1678C34.4884 52.0944 34.4669 52.0329 34.4431 51.9773C34.4211 51.9258 34.3899 51.8643 34.3587 51.8029C34.3258 51.7375 34.2929 51.672 34.2566 51.5987C34.2227 51.5194 34.1609 51.3865 34.0697 51.1962C34.0005 51.0574 33.9472 50.9444 33.9099 50.8571C33.8855 50.8116 33.8577 50.758 33.8265 50.6966C33.7437 50.5261 33.6854 50.4012 33.648 50.3139C33.6107 50.2266 33.5773 50.1374 33.5497 50.05C33.548 50.046 33.5446 50.0381 33.5412 50.0302C33.5378 50.0222 33.535 50.0043 33.5346 49.9805C33.5341 49.9566 33.5296 49.9347 33.5292 49.9109C33.5287 49.887 33.534 49.865 33.5432 49.8411C33.5525 49.8171 33.5635 49.7971 33.5801 49.7791C33.5968 49.761 33.6152 49.747 33.645 49.7368C33.6748 49.7266 33.708 49.7243 33.7486 49.728C33.8144 49.7334 33.8561 49.751 33.8801 49.7727C33.904 49.7944 33.9125 49.8142 33.9032 49.8382L33.8916 49.8682C33.9205 49.9356 33.9545 50.0149 33.9952 50.1101C34.036 50.2053 34.0716 50.2886 34.1056 50.368C34.1379 50.4433 34.1718 50.5227 34.2075 50.606C34.22 50.6238 34.2342 50.6456 34.2478 50.6773C34.2773 50.7348 34.3 50.7764 34.321 50.814C34.3218 50.6449 34.3218 50.5195 34.325 50.4359C34.3306 50.3463 34.3419 50.2586 34.3515 50.167C34.3594 50.0714 34.3881 49.9219 34.4297 49.7225C34.4799 49.5092 34.5178 49.3696 34.5433 49.3037C34.5808 49.2317 34.6281 49.1597 34.6851 49.0876L34.7558 49.0134C34.7875 48.9733 34.8299 48.9471 34.8849 48.9387C34.9359 48.9324 34.9782 48.94 35.0136 48.9656C35.0489 48.9912 35.0659 49.0308 35.0685 49.0825C35.0694 49.1303 35.0549 49.1762 35.0216 49.2123L34.9525 49.2905C34.9191 49.3265 34.8915 49.3646 34.8719 49.3986C34.8557 49.4405 34.8271 49.5562 34.7827 49.7376C34.7435 49.931 34.7194 50.0685 34.7104 50.1502C34.7031 50.2358 34.6942 50.3175 34.6909 50.4011C34.6876 50.4847 34.6853 50.6161 34.6839 50.7952C34.6772 50.9963 34.6588 51.1357 34.6321 51.2215C34.6045 51.2596 34.5808 51.2956 34.5515 51.3296Z" fill="#1F1F1F"/>
<path d="M37.0923 51.2058C37.0688 51.251 37.0345 51.2824 36.9912 51.3041C36.9479 51.3257 36.9 51.3257 36.8566 51.3139C36.8115 51.2982 36.7821 51.2746 36.7651 51.2354L36.7475 51.1725C36.7305 51.1332 36.7015 51.0664 36.6607 50.9721C36.6199 50.8778 36.5858 50.7993 36.5603 50.7403C36.5365 50.6853 36.4985 50.6087 36.452 50.5125C36.4039 50.4123 36.3433 50.2944 36.2758 50.1609C36.2028 50.0253 36.1331 49.8977 36.0708 49.7759C36.0085 49.6541 35.962 49.5578 35.9201 49.4832C35.8782 49.4086 35.838 49.3378 35.7944 49.2593C35.7508 49.1807 35.7174 49.1257 35.6998 49.0962C35.6896 49.0727 35.6738 49.0471 35.6523 49.0196L35.6206 48.9686C35.5974 48.9371 35.59 48.8979 35.6039 48.8527C35.6161 48.8035 35.6431 48.7662 35.6847 48.7407C35.7246 48.7112 35.773 48.7013 35.8226 48.7053C35.8721 48.7092 35.9054 48.7308 35.9264 48.7681L35.9586 48.8093C35.9796 48.8467 35.9988 48.8801 36.0164 48.9095C36.0283 48.937 36.06 48.9881 36.1075 49.0647C36.1511 49.1433 36.1947 49.2218 36.2366 49.2965C36.2785 49.3711 36.3306 49.4693 36.393 49.5911C36.4514 49.7149 36.5171 49.8445 36.5845 49.9781C36.6576 50.1136 36.7221 50.2295 36.7703 50.3297C36.8185 50.4299 36.8564 50.5065 36.882 50.5654C36.9075 50.6243 36.9415 50.7029 36.9841 50.8011C37.0266 50.8993 37.0572 50.9701 37.0742 51.0093L37.0953 51.0801C37.1162 51.1174 37.1158 51.1606 37.0923 51.2058Z" fill="#1F1F1F"/>
<path d="M36.4825 48.2864C36.4817 48.2383 36.4981 48.1961 36.5317 48.1597C36.5654 48.1233 36.6099 48.1009 36.6636 48.0884C36.7149 48.0819 36.7575 48.0895 36.7931 48.1152L36.9233 48.2242C37.0203 48.3015 37.1275 48.4027 37.2432 48.5238C37.3538 48.633 37.4403 48.7204 37.5034 48.7759C37.5763 48.8313 37.6773 48.9065 37.8024 49.0036C37.9315 49.0986 38.083 49.2114 38.2495 49.3361C38.4176 49.4648 38.5301 49.5439 38.5904 49.5814C38.6524 49.6229 38.7127 49.6604 38.7673 49.696C38.8144 49.7256 38.8828 49.759 38.9748 49.7903C38.9921 49.7961 39.0134 49.7999 39.0307 49.8058C39.0407 49.7716 39.0449 49.7355 39.0532 49.6974C39.0789 49.5388 39.094 49.4245 39.0927 49.3524C39.0903 49.2662 39.088 49.1801 39.0822 49.086C39.0787 48.9858 39.0682 48.8116 39.049 48.5593C39.0354 48.309 39.0307 48.1367 39.029 48.0405C39.0272 47.9444 39.0227 47.8302 39.0154 47.698C39.0139 47.5678 39.0138 47.4756 39.0136 47.4175L39.0147 47.3394C39.0114 47.2973 39.0319 47.2531 39.0655 47.2167C39.1032 47.1783 39.1477 47.1558 39.1974 47.1453C39.2487 47.1389 39.2913 47.1465 39.3246 47.1782C39.3619 47.2079 39.3772 47.2439 39.374 47.294L39.3811 47.3681C39.3779 47.4182 39.378 47.5103 39.3795 47.6406C39.3868 47.7728 39.3896 47.8829 39.3896 47.9751C39.3937 48.0652 39.3985 48.2375 39.4137 48.4918C39.4289 48.7462 39.4353 48.9224 39.4452 49.0145C39.4486 49.1147 39.4527 49.2048 39.4551 49.2909C39.4609 49.385 39.4502 49.5214 39.4192 49.702C39.4186 49.712 39.4173 49.7321 39.4096 49.7602C39.406 49.7863 39.4007 49.8084 39.396 49.8204C39.3913 49.8325 39.386 49.8546 39.3801 49.8867C39.3741 49.9188 39.3688 49.9409 39.3641 49.953C39.3594 49.965 39.3484 49.9852 39.335 50.0114C39.3215 50.0375 39.3047 50.0557 39.2902 50.0679C39.2758 50.08 39.2572 50.0942 39.2364 50.1144C39.2155 50.1347 39.1912 50.1469 39.1601 50.1432C39.0717 50.1781 38.9588 50.1671 38.819 50.1163C38.6958 50.0814 38.6061 50.0441 38.5424 49.9986C38.4838 49.9651 38.4235 49.9276 38.3615 49.8861C38.2938 49.8426 38.1738 49.7576 38.0022 49.6209C37.8341 49.4922 37.6883 49.3813 37.5551 49.2884C37.426 49.1934 37.3233 49.1142 37.2545 49.0567C37.1782 48.9933 37.0801 48.902 36.9604 48.7829C36.8561 48.6657 36.7581 48.5744 36.6744 48.505L36.5361 48.4001C36.5005 48.3744 36.4834 48.3345 36.4825 48.2864Z" fill="#1F1F1F"/>
<path d="M43.2435 47.3817L43.2354 47.3858C43.2259 47.4439 43.2187 47.496 43.2178 47.54C43.2072 47.5841 43.1983 47.6322 43.1854 47.6823C43.1694 47.7484 43.1244 47.8728 43.0486 48.0515C42.9745 48.2342 42.9116 48.3628 42.8582 48.4332C42.8089 48.5017 42.7579 48.5661 42.7035 48.6226C42.6491 48.6791 42.593 48.7316 42.5369 48.7842C42.475 48.8347 42.3994 48.8874 42.3082 48.9382C42.2153 48.9851 42.1034 49.0221 41.9767 49.0472C41.8621 49.0663 41.7717 49.0731 41.709 49.0757C41.6463 49.0783 41.5819 49.0768 41.514 49.0675C41.4479 49.0621 41.3749 49.0407 41.2986 49.0114C41.2091 48.9742 41.1248 48.915 41.0425 48.8257C40.9636 48.7445 40.9093 48.675 40.878 48.6132C40.8484 48.5555 40.8235 48.4857 40.7999 48.396C40.7779 48.3102 40.7749 48.2342 40.7753 48.1662C40.774 48.0942 40.7901 47.994 40.8219 47.8618C40.8521 47.7255 40.8861 47.6212 40.9256 47.5528C40.9628 47.4905 40.9999 47.4281 41.0469 47.3657C41.0939 47.3033 41.1536 47.2247 41.2335 47.136C41.3215 47.0432 41.4348 46.9522 41.5687 46.875C41.7009 46.7938 41.8157 46.7407 41.9084 46.7279C42.0052 46.713 42.1547 46.7296 42.3552 46.7738C42.3822 46.7796 42.4052 46.7874 42.4322 46.7931C42.3556 46.7058 42.2956 46.6344 42.2499 46.5848C42.1909 46.5273 42.1131 46.46 42.0105 46.381C41.9138 46.3038 41.8312 46.2486 41.7613 46.2112C41.6953 46.1718 41.6247 46.1445 41.5575 46.1251C41.5018 46.1096 41.4006 46.1025 41.2636 46.1037C41.1226 46.107 41.0063 46.1221 40.9164 46.1529C40.8167 46.1838 40.7406 46.2125 40.684 46.241C40.6217 46.2676 40.5652 46.2961 40.5138 46.3366C40.4693 46.359 40.3907 46.4277 40.2882 46.5326C40.2147 46.6133 40.1677 46.6757 40.1439 46.7119L40.128 46.7781C40.1134 46.8242 40.0872 46.8664 40.0462 46.8968C40.0052 46.9272 39.9573 46.9416 39.9067 46.9381C39.8561 46.9345 39.8206 46.9089 39.7955 46.8731C39.7704 46.8373 39.7614 46.7934 39.772 46.7493L39.7967 46.6691C39.8139 46.5829 39.8974 46.4682 40.0438 46.3168C40.1758 46.1776 40.281 46.0907 40.3561 46.048C40.4213 46.0054 40.4883 45.9668 40.5586 45.9362C40.6354 45.8975 40.7374 45.8605 40.855 45.8255C40.9807 45.7863 41.1287 45.765 41.3047 45.7634C41.4791 45.7578 41.6154 45.7666 41.7096 45.7917C41.7998 45.8189 41.8876 45.8521 41.9765 45.8993C42.0654 45.9465 42.1628 46.0136 42.2745 46.1026C42.3862 46.1915 42.4732 46.2688 42.5355 46.3342C42.5979 46.3996 42.6819 46.4929 42.7911 46.6219C42.8951 46.7389 42.974 46.8202 43.0238 46.8677C43.0712 46.9213 43.1146 46.9769 43.1621 47.0305C43.2095 47.0841 43.2404 47.1218 43.2604 47.1456C43.2982 47.1652 43.3089 47.2131 43.2964 47.2873L43.2435 47.3817ZM42.8862 47.373C42.8409 47.3474 42.7997 47.3198 42.7618 47.3001C42.7108 47.2726 42.654 47.2431 42.5914 47.2117C42.5306 47.1842 42.4117 47.1473 42.2382 47.1089C42.0704 47.0724 41.9658 47.0574 41.9162 47.0678C41.8805 47.0761 41.8182 47.1027 41.727 47.1535C41.6295 47.2124 41.5532 47.2751 41.4964 47.3376C41.4252 47.4123 41.3742 47.4767 41.3417 47.527C41.3092 47.5773 41.2767 47.6276 41.2442 47.6779C41.2221 47.7181 41.1998 47.7923 41.1739 47.8926C41.1497 47.9968 41.1355 48.0669 41.1346 48.1109C41.1379 48.1529 41.1438 48.2128 41.1573 48.2787C41.173 48.3386 41.1877 48.3844 41.2071 48.4182C41.2224 48.4541 41.2584 48.5038 41.319 48.5652C41.3779 48.6227 41.4284 48.6602 41.4743 48.6758C41.5277 48.6973 41.5776 48.7109 41.6185 48.7145C41.6593 48.7181 41.7042 48.7197 41.749 48.7213C41.7939 48.7229 41.867 48.7102 41.9621 48.6914C42.045 48.6786 42.1147 48.658 42.1713 48.6295C42.2342 48.5929 42.2833 48.5585 42.3203 48.5301C42.3596 48.4958 42.4013 48.4554 42.4453 48.409C42.4893 48.3626 42.5275 48.3142 42.5698 48.2639C42.6023 48.2136 42.6518 48.1111 42.7183 47.9565C42.7831 47.7979 42.8228 47.6956 42.8351 47.6555C42.844 47.6074 42.8489 47.5613 42.8531 47.5253C42.8608 47.4972 42.868 47.4452 42.8862 47.373Z" fill="#1F1F1F"/>
</svg>
