<svg width="105" height="67" viewBox="0 0 105 67" fill="none" xmlns="http://www.w3.org/2000/svg">
<path d="M2.5 9.5L6 6L9.00002 3H99L102 6L103.5 7L104.227 41.2124L102.688 41.8281L102 42L99 45L96 48L86 51L83 54H80V61H73L70 58L67 55L64 50L63.5854 48.9097H9.15642L6 47L3 44L2.5 9.5Z" fill="white"/>
<path fill-rule="evenodd" clip-rule="evenodd" d="M99 0H9V3H6V6H3V9H0V44H3V47H6V50H64V55H67V58H70V61H73V64H80V67H83V64H80V61H83V54H86V51H96V48H99V45H102V42H105V6H102V3H99V0ZM99 3V6H102V42H99V45H96V48H86V51H83V54H80V61H73V58H70V55H67V50H64V47H6V44H3V9H6V6H9V3H99Z" fill="#1F1F1F"/>
</svg>
