<svg width="155" height="132" viewBox="0 0 155 132" fill="none" xmlns="http://www.w3.org/2000/svg">
<path d="M71.2896 46.96V7.30813L102.943 1V46.96H71.2896Z" fill="#F40000" stroke="black"/>
<path d="M102.943 47.9815V1L142.765 5.51745V47.9815H102.943Z" fill="#FDA3C4" stroke="black"/>
<path d="M117.239 27.554V2.53125L129.492 4.06325V27.554H117.239Z" fill="#F40000" stroke="black"/>
<path d="M47.8062 125.403V50.2247L95.797 44.918V130.71L47.8062 125.403Z" fill="#FDA3C4" stroke="black"/>
<path d="M153.999 128.057L95.7971 130.71V44.918L153.999 47.5713V128.057Z" fill="#FDA3C4" stroke="black"/>
<path d="M119.282 80.6629V45.9375L136.64 46.9588V80.6629H119.282Z" fill="white" stroke="black"/>
<path d="M82.9259 69.3828L14.1719 68.9697C12.4853 68.9595 11.0314 70.1537 10.7136 71.81L1.36488 120.53C0.972357 122.575 2.44239 124.509 4.51845 124.678L71.4674 130.123C73.2279 130.266 74.8192 129.075 75.1781 127.346L86.3318 73.5938C86.7809 71.4295 85.1362 69.396 82.9259 69.3828Z" fill="#F40000" stroke="black"/>
<path d="M80.8982 70.9843L16.7569 70.5989C15.0717 70.5888 13.6185 71.7811 13.2993 73.436L4.60815 118.494C4.21329 120.541 5.68444 122.477 7.76248 122.645L70.2223 127.7C71.9809 127.843 73.5706 126.654 73.9308 124.926L84.3035 75.1989C84.7551 73.0337 83.11 70.9976 80.8982 70.9843Z" fill="white" stroke="black"/>
<path d="M48.9599 94.3479L51.1784 86.6928L41.972 86.3586L40.2381 94.0313L48.9599 94.3479Z" stroke="black"/>
<path d="M37.1834 93.9204L38.6718 86.2388L30.8274 85.954L29.0934 93.6267L37.1834 93.9204Z" stroke="black"/>
<path d="M26.1431 91.5176L28.2017 85.8587L18.5369 85.5078L17.9664 91.4684L26.1431 91.5176Z" stroke="black"/>
<path d="M70.4348 104.228L72.1523 97.01L62.9458 96.6758L61.2284 103.894L70.4348 104.228Z" stroke="black"/>
<path d="M57.8365 103.771L59.554 96.5527L50.8321 96.2361L49.5992 103.472L57.8365 103.771Z" stroke="black"/>
<path d="M46.9211 103.375L48.894 96.1657L39.131 95.8113L37.4855 103.032L46.9211 103.375Z" stroke="black"/>
<path d="M34.5782 102.927L36.2957 95.7083L28.5429 95.4269L26.8255 102.645L34.5782 102.927Z" stroke="black"/>
<path d="M23.9182 102.54L26.1202 95.3389L16.5798 94.9926L14.7052 102.205L23.9182 102.54Z" stroke="black"/>
<path d="M68.1668 113.247L70.3688 106.046L61.1624 105.712L58.9604 112.913L68.1668 113.247Z" stroke="black"/>
<path d="M55.5686 112.789L57.7706 105.589L48.5642 105.254L46.5958 112.34L55.5686 112.789Z" stroke="black"/>
<path d="M43.9394 112.367L46.0862 106.148L37.4717 105.329L35.7021 112.068L43.9394 112.367Z" stroke="black"/>
<path d="M32.9041 111.842L34.5123 104.744L26.7595 104.463L24.5575 111.664L32.9041 111.842Z" stroke="black"/>
<path d="M22.1347 111.576L23.8522 104.357L14.6393 104.023L12.9328 111.117L22.1347 111.576Z" stroke="black"/>
<path d="M66.413 121.829L68.0844 115.519L58.1871 115.16L56.3455 121.463L66.413 121.829Z" stroke="black"/>
<path d="M53.9293 121.376L55.4861 115.062L45.7952 114.71L44.2645 121.025L53.9293 121.376Z" stroke="black"/>
<path d="M42.251 120.952L43.857 114.639L34.8306 114.312L32.989 120.615L42.251 120.952Z" stroke="black"/>
<path d="M30.5433 120.527L32.2278 114.217L23.5059 113.901L22.3225 119.773L30.5433 120.527Z" stroke="black"/>
<path d="M19.8998 119.685L21.0997 113.358L12.8624 113.059L11.6789 118.932L19.8998 119.685Z" stroke="black"/>
<path d="M19.0923 80.03C19.3444 79.797 19.537 79.6213 19.6701 79.5026C20.141 79.0688 20.4862 78.7374 20.7055 78.5085C20.9249 78.2795 21.0977 78.0427 21.2241 77.7979C21.3551 77.5531 21.4235 77.2861 21.4294 76.9969C21.4362 76.6609 21.3529 76.4002 21.1793 76.2146C21.0103 76.0291 20.7975 75.9338 20.5409 75.9286C20.2563 75.9228 20.007 76.0204 19.7928 76.2214C19.5834 76.4225 19.4398 76.7137 19.362 77.0948L19.222 77.092C19.2268 76.8587 19.2398 76.6746 19.2612 76.5397C19.2828 76.4001 19.3318 76.2821 19.4085 76.1856C19.5423 76.0296 19.7317 75.9005 19.9765 75.7981C20.2259 75.6958 20.486 75.6474 20.7566 75.6529C21.1252 75.6604 21.4474 75.765 21.7234 75.9666C22.0041 76.1637 22.1394 76.5119 22.1293 77.0111C22.1233 77.305 22.0477 77.5789 21.9025 77.8327C21.762 78.0865 21.5798 78.3232 21.356 78.5427C21.1369 78.7576 20.8255 79.036 20.4218 79.3779C20.0037 79.7381 19.7234 79.9821 19.5808 80.1099L21.1554 80.1419C21.44 80.1477 21.6582 80.0915 21.81 79.9732C21.9618 79.8549 22.0402 79.6722 22.0452 79.4249L22.1852 79.4277L22.1759 79.8826C22.1683 80.2559 21.9662 80.4385 21.5696 80.4304L19.0852 80.3799L19.0923 80.03ZM27.7156 76.8027L27.6498 80.036L28.1957 80.0471L28.1587 81.8667L27.5639 81.8546L27.5903 80.5529L24.9799 80.4998L24.9534 81.8015L24.3655 81.7896L24.4025 79.9699L24.7034 79.9761C24.9241 79.6818 25.108 79.3612 25.2551 79.0141C25.407 78.6624 25.5218 78.296 25.5995 77.9149C25.682 77.5291 25.7295 77.145 25.742 76.7625L27.7156 76.8027ZM26.278 77.2565C26.2529 77.5734 26.1973 77.9013 26.111 78.2403C26.0249 78.5746 25.9157 78.8945 25.7834 79.1999C25.6559 79.5053 25.5082 79.7684 25.3403 79.989L27.055 80.0239L27.1109 77.2735L26.278 77.2565ZM29.6126 76.8412L29.5808 78.4019L31.6174 78.4433L31.6491 76.8827L32.265 76.8952L32.1888 80.6464L31.5729 80.6339L31.6069 78.9612L29.5703 78.9198L29.5363 80.5925L28.9204 80.5799L28.9967 76.8287L29.6126 76.8412ZM33.6075 80.6753L32.8936 80.6607L33.9964 79.1078C33.8525 79.0676 33.7138 79.0064 33.5801 78.9243C33.4465 78.8376 33.3392 78.7211 33.2581 78.5747C33.1772 78.4237 33.1389 78.2386 33.1434 78.0193C33.1507 77.66 33.2775 77.3895 33.5239 77.2078C33.7704 77.0215 34.0943 76.9324 34.4956 76.9405L36.1752 76.9747L36.099 80.7259L35.4831 80.7134L35.5134 79.2227L34.6036 79.2042L33.6075 80.6753ZM33.7381 78.0384C33.7337 78.253 33.8098 78.4156 33.9662 78.5261C34.1275 78.6321 34.3527 78.688 34.642 78.6939L35.5238 78.7118L35.549 77.4731L34.5482 77.4527C34.2636 77.4469 34.0571 77.4987 33.9289 77.6082C33.8053 77.7177 33.7417 77.8611 33.7381 78.0384ZM39.1924 76.1679L39.7033 76.1783L37.3629 80.7516L36.852 80.7412L39.1924 76.1679ZM41.0604 77.0741L41.0287 78.6347L43.0652 78.6762L43.097 77.1155L43.7128 77.128L43.6366 80.8792L43.0207 80.8667L43.0547 79.1941L41.0181 79.1526L40.9841 80.8253L40.3683 80.8128L40.4445 77.0615L41.0604 77.0741ZM46.3507 77.1117C46.6727 77.1182 46.9465 77.1938 47.1723 77.3384C47.4027 77.4831 47.576 77.685 47.6921 77.9441C47.813 78.1986 47.8699 78.4962 47.863 78.8368L47.8555 79.2077L45.287 79.1554C45.2877 79.5802 45.3884 79.9067 45.5891 80.1348C45.7946 80.3583 46.084 80.4739 46.4573 80.4815C46.6952 80.4864 46.9056 80.4696 47.0884 80.4313C47.276 80.3885 47.4686 80.327 47.6663 80.2471L47.6553 80.7859C47.4623 80.866 47.2721 80.9228 47.0848 80.9564C46.8973 80.9946 46.6752 81.0111 46.4186 81.0058C46.064 80.9986 45.7506 80.9199 45.4782 80.7697C45.2105 80.6195 45.0026 80.4006 44.8544 80.1128C44.711 79.8205 44.6435 79.4668 44.652 79.0515C44.6603 78.6409 44.7351 78.29 44.8764 77.9989C45.0224 77.7078 45.2206 77.4854 45.4711 77.3318C45.7263 77.1783 46.0195 77.1049 46.3507 77.1117ZM46.3335 77.6154C46.0396 77.6094 45.8043 77.7003 45.6278 77.8881C45.4561 78.0713 45.3504 78.3306 45.3109 78.6658L47.2215 78.7047C47.2259 78.4901 47.197 78.3028 47.1349 78.1428C47.0729 77.9828 46.9751 77.8572 46.8416 77.7658C46.7128 77.6698 46.5435 77.6197 46.3335 77.6154ZM51.6364 77.2892L51.5707 80.5225L52.1166 80.5336L52.0796 82.3532L51.4847 82.3411L51.5112 81.0394L48.9007 80.9863L48.8742 82.288L48.2864 82.2761L48.3233 80.4565L48.6243 80.4626C48.845 80.1683 49.0289 79.8477 49.1759 79.5006C49.3278 79.1489 49.4426 78.7825 49.5204 78.4014C49.6029 78.0156 49.6504 77.6315 49.6628 77.249L51.6364 77.2892ZM50.1989 77.743C50.1738 78.0599 50.1181 78.3879 50.0318 78.7268C49.9457 79.0612 49.8365 79.381 49.7043 79.6864C49.5767 79.9918 49.429 80.2549 49.2611 80.4755L50.9758 80.5104L51.0317 77.76L50.1989 77.743ZM54.3676 77.2747C54.6896 77.2813 54.9634 77.3568 55.1892 77.5015C55.4196 77.6462 55.5929 77.8481 55.709 78.1072C55.8299 78.3617 55.8868 78.6592 55.8799 78.9998L55.8724 79.3707L53.3039 79.3185C53.3046 79.7433 53.4053 80.0697 53.606 80.2978C53.8115 80.5214 54.1009 80.637 54.4742 80.6446C54.7121 80.6494 54.9225 80.6327 55.1053 80.5944C55.2929 80.5515 55.4855 80.4901 55.6832 80.4101L55.6722 80.949C55.4792 81.0291 55.289 81.0859 55.1017 81.1194C54.9142 81.1576 54.6921 81.1741 54.4355 81.1689C54.0809 81.1617 53.7674 81.083 53.4951 80.9327C53.2274 80.7826 53.0195 80.5636 52.8713 80.2759C52.7279 79.9836 52.6604 79.6298 52.6689 79.2146C52.6772 78.804 52.752 78.4531 52.8933 78.1619C53.0393 77.8708 53.2375 77.6485 53.488 77.4949C53.7432 77.3414 54.0364 77.268 54.3676 77.2747ZM54.3504 77.7785C54.0565 77.7725 53.8212 77.8634 53.6447 78.0512C53.473 78.2344 53.3673 78.4936 53.3278 78.8289L55.2384 78.8677C55.2428 78.6531 55.2139 78.4658 55.1518 78.3059C55.0897 78.1459 54.992 78.0202 54.8584 77.9288C54.7297 77.8328 54.5604 77.7827 54.3504 77.7785ZM59.647 81.2049L59.0242 81.1922L59.09 77.9519L57.9843 77.9294C57.9256 78.521 57.8569 79.026 57.7784 79.4445C57.7 79.8583 57.6045 80.1948 57.4918 80.4539C57.3792 80.713 57.247 80.9017 57.0953 81.0199C56.9435 81.1382 56.7673 81.1953 56.5667 81.1912C56.506 81.19 56.4455 81.1841 56.385 81.1735C56.3291 81.1677 56.2827 81.1551 56.2457 81.1357L56.2551 80.6738C56.2829 80.6837 56.3131 80.6913 56.3457 80.6966C56.3782 80.702 56.4109 80.705 56.4435 80.7056C56.5462 80.7077 56.6403 80.6676 56.726 80.5853C56.8117 80.5031 56.889 80.3763 56.9578 80.205C57.0313 80.0338 57.0987 79.8181 57.16 79.558C57.2214 79.2932 57.2767 78.9815 57.326 78.6231C57.3753 78.2647 57.4209 77.8596 57.4627 77.4077L59.7233 77.4536L59.647 81.2049ZM61.0686 81.2338L60.3548 81.2193L61.4575 79.6664C61.3137 79.6261 61.1749 79.5649 61.0412 79.4829C60.9076 79.3961 60.8003 79.2796 60.7192 79.1332C60.6383 78.9822 60.6 78.7971 60.6045 78.5778C60.6118 78.2185 60.7387 77.9481 60.9851 77.7664C61.2316 77.58 61.5554 77.4909 61.9567 77.4991L63.6363 77.5332L63.5601 81.2845L62.9442 81.2719L62.9745 79.7812L62.0647 79.7627L61.0686 81.2338ZM61.1992 78.5969C61.1949 78.8115 61.2709 78.9741 61.4274 79.0846C61.5886 79.1906 61.8138 79.2465 62.1031 79.2524L62.9849 79.2703L63.0101 78.0316L62.0093 78.0112C61.7247 78.0055 61.5183 78.0573 61.39 78.1667C61.2664 78.2762 61.2028 78.4196 61.1992 78.5969Z" fill="#F40000"/>
<path d="M19.0923 80.03L18.9226 79.8463L18.8445 79.9185L18.8423 80.0249L19.0923 80.03ZM19.6701 79.5026L19.8365 79.6893L19.8395 79.6865L19.6701 79.5026ZM20.7055 78.5085L20.886 78.6814L20.886 78.6814L20.7055 78.5085ZM21.2241 77.7979L21.0037 77.6799L21.0019 77.6832L21.2241 77.7979ZM21.1793 76.2146L20.9944 76.383L20.9967 76.3854L21.1793 76.2146ZM19.7928 76.2214L19.6217 76.0391L19.6197 76.0411L19.7928 76.2214ZM19.362 77.0948L19.3569 77.3448L19.5653 77.349L19.6069 77.1448L19.362 77.0948ZM19.222 77.092L18.9721 77.0869L18.967 77.3369L19.2169 77.3419L19.222 77.092ZM19.2612 76.5397L19.5082 76.5789L19.5083 76.5778L19.2612 76.5397ZM19.4085 76.1856L19.2186 76.0227L19.2127 76.0301L19.4085 76.1856ZM19.9765 75.7981L19.8816 75.5668L19.88 75.5674L19.9765 75.7981ZM21.7234 75.9666L21.5759 76.1685L21.5798 76.1712L21.7234 75.9666ZM21.9025 77.8327L21.6855 77.7085L21.6838 77.7116L21.9025 77.8327ZM21.356 78.5427L21.1809 78.3642L21.1809 78.3642L21.356 78.5427ZM20.4218 79.3779L20.2602 79.1871L20.2586 79.1885L20.4218 79.3779ZM19.5808 80.1099L19.4139 79.9237L18.9415 80.347L19.5757 80.3599L19.5808 80.1099ZM21.81 79.9732L21.9637 80.1704L21.9637 80.1704L21.81 79.9732ZM22.0452 79.4249L22.0503 79.1749L21.8003 79.1699L21.7952 79.4198L22.0452 79.4249ZM22.1852 79.4277L22.4351 79.4328L22.4402 79.1829L22.1902 79.1778L22.1852 79.4277ZM19.0852 80.3799L18.8352 80.3748L18.8301 80.6248L19.0801 80.6298L19.0852 80.3799ZM19.2619 80.2136C19.5138 79.9809 19.7051 79.8064 19.8365 79.6892L19.5038 79.316C19.369 79.4362 19.175 79.6131 18.9226 79.8463L19.2619 80.2136ZM19.8395 79.6865C20.3112 79.2519 20.6611 78.9162 20.886 78.6814L20.525 78.3355C20.3113 78.5586 19.9708 78.8856 19.5007 79.3187L19.8395 79.6865ZM20.886 78.6814C21.1196 78.4377 21.3074 78.1816 21.4462 77.9125L21.0019 77.6832C20.8881 77.9037 20.7302 78.1214 20.525 78.3355L20.886 78.6814ZM21.4445 77.9158C21.5949 77.6349 21.6727 77.3289 21.6794 77.0019L21.1795 76.9918C21.1743 77.2433 21.1153 77.4714 21.0037 77.6799L21.4445 77.9158ZM21.6794 77.0019C21.6871 76.6225 21.5928 76.2908 21.3618 76.0438L20.9967 76.3854C21.1129 76.5096 21.1854 76.6993 21.1795 76.9918L21.6794 77.0019ZM21.3641 76.0463C21.1478 75.8088 20.8694 75.6852 20.546 75.6786L20.5359 76.1785C20.7257 76.1824 20.8729 76.2495 20.9944 76.383L21.3641 76.0463ZM20.546 75.6786C20.1938 75.6715 19.8818 75.795 19.6217 76.0392L19.9639 76.4037C20.1321 76.2458 20.3188 76.1741 20.5359 76.1785L20.546 75.6786ZM19.6197 76.0411C19.363 76.2875 19.2016 76.6306 19.117 77.0449L19.6069 77.1448C19.6779 76.7968 19.8037 76.5576 19.966 76.4018L19.6197 76.0411ZM19.3671 76.8449L19.2271 76.8421L19.2169 77.3419L19.3569 77.3448L19.3671 76.8449ZM19.472 77.0971C19.4766 76.8684 19.4894 76.6974 19.5082 76.5789L19.0143 76.5005C18.9903 76.6519 18.9769 76.849 18.9721 77.0869L19.472 77.0971ZM19.5083 76.5778C19.5242 76.4747 19.5584 76.3988 19.6042 76.3411L19.2127 76.0301C19.1053 76.1653 19.0413 76.3254 19.0142 76.5016L19.5083 76.5778ZM19.5982 76.3484C19.7004 76.2293 19.854 76.1203 20.0729 76.0287L19.88 75.5674C19.6094 75.6806 19.3843 75.8299 19.2188 76.0228L19.5982 76.3484ZM20.0713 76.0294C20.289 75.9401 20.515 75.898 20.7515 75.9029L20.7617 75.403C20.457 75.3968 20.1629 75.4514 19.8816 75.5668L20.0713 76.0294ZM20.7515 75.9029C21.0731 75.9094 21.3447 75.9995 21.5759 76.1685L21.8709 75.7648C21.5502 75.5305 21.1773 75.4114 20.7617 75.403L20.7515 75.9029ZM21.5798 76.1712C21.7647 76.3011 21.8886 76.5494 21.8793 77.006L22.3792 77.0162C22.3902 76.4743 22.2435 76.0263 21.8671 75.762L21.5798 76.1712ZM21.8793 77.006C21.8742 77.2584 21.8098 77.4913 21.6855 77.7085L22.1195 77.9568C22.2856 77.6665 22.3724 77.3517 22.3792 77.0162L21.8793 77.006ZM21.6838 77.7116C21.5559 77.9427 21.3889 78.1603 21.1809 78.3642L21.531 78.7212C21.7707 78.4861 21.9681 78.2304 22.1212 77.9537L21.6838 77.7116ZM21.1809 78.3642C20.9682 78.5729 20.6621 78.8468 20.2602 79.1871L20.5834 79.5687C20.9889 79.2252 21.3056 78.9423 21.531 78.7212L21.1809 78.3642ZM20.2586 79.1885C19.8408 79.5485 19.5586 79.7941 19.4139 79.9237L19.7476 80.2961C19.8881 80.1702 20.1667 79.9277 20.585 79.5673L20.2586 79.1885ZM19.5757 80.3599L21.1503 80.3919L21.1605 79.892L19.5858 79.86L19.5757 80.3599ZM21.1503 80.3919C21.4658 80.3983 21.7493 80.3374 21.9637 80.1704L21.6563 79.776C21.5671 79.8456 21.4143 79.8972 21.1605 79.892L21.1503 80.3919ZM21.9637 80.1704C22.191 79.9932 22.289 79.7293 22.2951 79.43L21.7952 79.4198C21.7913 79.6151 21.7325 79.7167 21.6563 79.776L21.9637 80.1704ZM22.0401 79.6748L22.1801 79.6777L22.1902 79.1778L22.0503 79.1749L22.0401 79.6748ZM21.9352 79.4227L21.926 79.8776L22.4259 79.8877L22.4351 79.4328L21.9352 79.4227ZM21.926 79.8776C21.923 80.0217 21.8842 80.0841 21.851 80.114C21.815 80.1466 21.7381 80.1838 21.5747 80.1805L21.5646 80.6804C21.7977 80.6851 22.0202 80.635 22.1863 80.485C22.3552 80.3324 22.4212 80.1169 22.4259 79.8877L21.926 79.8776ZM21.5747 80.1805L19.0902 80.1299L19.0801 80.6298L21.5646 80.6804L21.5747 80.1805ZM19.3351 80.385L19.3422 80.0351L18.8423 80.0249L18.8352 80.3748L19.3351 80.385ZM27.7156 76.8027L27.9655 76.8077L27.9706 76.5578L27.7206 76.5527L27.7156 76.8027ZM27.6498 80.036L27.3999 80.0309L27.3948 80.2808L27.6448 80.2859L27.6498 80.036ZM28.1957 80.0471L28.4457 80.0522L28.4508 79.8022L28.2008 79.7971L28.1957 80.0471ZM28.1587 81.8667L28.1537 82.1167L28.4036 82.1217L28.4087 81.8718L28.1587 81.8667ZM27.5639 81.8546L27.3139 81.8495L27.3088 82.0995L27.5588 82.1046L27.5639 81.8546ZM27.5903 80.5529L27.8403 80.558L27.8453 80.308L27.5954 80.3029L27.5903 80.5529ZM24.9799 80.4998L24.9849 80.2498L24.735 80.2448L24.7299 80.4947L24.9799 80.4998ZM24.9534 81.8015L24.9483 82.0515L25.1983 82.0565L25.2033 81.8066L24.9534 81.8015ZM24.3655 81.7896L24.1156 81.7845L24.1105 82.0344L24.3604 82.0395L24.3655 81.7896ZM24.4025 79.9699L24.4076 79.72L24.1576 79.7149L24.1526 79.9649L24.4025 79.9699ZM24.7034 79.9761L24.6984 80.226L24.8265 80.2286L24.9034 80.1261L24.7034 79.9761ZM25.2551 79.0141L25.0256 78.915L25.0249 78.9165L25.2551 79.0141ZM25.5995 77.9149L25.355 77.8625L25.3546 77.8649L25.5995 77.9149ZM25.742 76.7625L25.7471 76.5126L25.5001 76.5075L25.4921 76.7544L25.742 76.7625ZM26.278 77.2565L26.2831 77.0066L26.0474 77.0018L26.0288 77.2368L26.278 77.2565ZM26.111 78.2403L26.3531 78.3027L26.3533 78.302L26.111 78.2403ZM25.7834 79.1999L25.554 79.1005L25.5528 79.1035L25.7834 79.1999ZM25.3403 79.989L25.1413 79.8376L24.8436 80.229L25.3352 80.239L25.3403 79.989ZM27.055 80.0239L27.0499 80.2738L27.2998 80.2789L27.3049 80.029L27.055 80.0239ZM27.1109 77.2735L27.3608 77.2785L27.3659 77.0286L27.116 77.0235L27.1109 77.2735ZM27.4656 76.7976L27.3999 80.0309L27.8998 80.0411L27.9655 76.8077L27.4656 76.7976ZM27.6448 80.2859L28.1906 80.297L28.2008 79.7971L27.6549 79.786L27.6448 80.2859ZM27.9458 80.042L27.9088 81.8616L28.4087 81.8718L28.4457 80.0522L27.9458 80.042ZM28.1638 81.6168L27.5689 81.6047L27.5588 82.1046L28.1537 82.1167L28.1638 81.6168ZM27.8138 81.8597L27.8403 80.558L27.3404 80.5478L27.3139 81.8495L27.8138 81.8597ZM27.5954 80.3029L24.9849 80.2498L24.9748 80.7497L27.5852 80.8028L27.5954 80.3029ZM24.7299 80.4947L24.7034 81.7964L25.2033 81.8066L25.2298 80.5049L24.7299 80.4947ZM24.9585 81.5516L24.3706 81.5396L24.3604 82.0395L24.9483 82.0515L24.9585 81.5516ZM24.6155 81.7946L24.6525 79.975L24.1526 79.9649L24.1156 81.7845L24.6155 81.7946ZM24.3974 80.2199L24.6984 80.226L24.7085 79.7261L24.4076 79.72L24.3974 80.2199ZM24.9034 80.1261C25.1366 79.8152 25.3305 79.4769 25.4853 79.1116L25.0249 78.9165C24.8855 79.2454 24.7117 79.5484 24.5034 79.8261L24.9034 80.1261ZM25.4846 79.1132C25.6434 78.7455 25.7633 78.3626 25.8445 77.9648L25.3546 77.8649C25.2802 78.2294 25.1705 78.5794 25.0256 78.915L25.4846 79.1132ZM25.844 77.9672C25.9295 77.5673 25.9789 77.1684 25.9918 76.7706L25.4921 76.7544C25.4802 77.1216 25.4346 77.4909 25.3551 77.8625L25.844 77.9672ZM25.7369 77.0125L27.7105 77.0526L27.7206 76.5527L25.7471 76.5126L25.7369 77.0125ZM26.0288 77.2368C26.0049 77.5382 25.9518 77.8521 25.8687 78.1787L26.3533 78.302C26.4427 77.9506 26.5009 77.6086 26.5273 77.2763L26.0288 77.2368ZM25.8689 78.1779C25.7859 78.5001 25.6809 78.8075 25.554 79.1005L26.0129 79.2992C26.1505 78.9814 26.2638 78.6492 26.3531 78.3027L25.8689 78.1779ZM25.5528 79.1035C25.4318 79.393 25.2941 79.6368 25.1413 79.8376L25.5393 80.1404C25.7222 79.8999 25.8799 79.6176 26.0141 79.2962L25.5528 79.1035ZM25.3352 80.239L27.0499 80.2738L27.06 79.7739L25.3454 79.7391L25.3352 80.239ZM27.3049 80.029L27.3608 77.2785L26.8609 77.2684L26.805 80.0188L27.3049 80.029ZM27.116 77.0235L26.2831 77.0066L26.273 77.5065L27.1058 77.5234L27.116 77.0235ZM29.6126 76.8412L29.8625 76.8463L29.8676 76.5964L29.6176 76.5913L29.6126 76.8412ZM29.5808 78.4019L29.3309 78.3968L29.3258 78.6468L29.5757 78.6519L29.5808 78.4019ZM31.6174 78.4433L31.6123 78.6933L31.8623 78.6984L31.8674 78.4484L31.6174 78.4433ZM31.6491 76.8827L31.6542 76.6327L31.4043 76.6276L31.3992 76.8776L31.6491 76.8827ZM32.265 76.8952L32.515 76.9003L32.52 76.6503L32.2701 76.6452L32.265 76.8952ZM32.1888 80.6464L32.1837 80.8964L32.4336 80.9014L32.4387 80.6515L32.1888 80.6464ZM31.5729 80.6339L31.3229 80.6288L31.3178 80.8787L31.5678 80.8838L31.5729 80.6339ZM31.6069 78.9612L31.8568 78.9663L31.8619 78.7164L31.612 78.7113L31.6069 78.9612ZM29.5703 78.9198L29.5754 78.6699L29.3254 78.6648L29.3204 78.9147L29.5703 78.9198ZM29.5363 80.5925L29.5312 80.8424L29.7812 80.8475L29.7862 80.5975L29.5363 80.5925ZM28.9204 80.5799L28.6705 80.5748L28.6654 80.8248L28.9153 80.8299L28.9204 80.5799ZM28.9967 76.8287L29.0018 76.5788L28.7518 76.5737L28.7467 76.8236L28.9967 76.8287ZM29.3626 76.8362L29.3309 78.3968L29.8308 78.407L29.8625 76.8463L29.3626 76.8362ZM29.5757 78.6519L31.6123 78.6933L31.6225 78.1934L29.5859 78.152L29.5757 78.6519ZM31.8674 78.4484L31.8991 76.8877L31.3992 76.8776L31.3675 78.4382L31.8674 78.4484ZM31.6441 77.1326L32.2599 77.1451L32.2701 76.6452L31.6542 76.6327L31.6441 77.1326ZM32.0151 76.8901L31.9388 80.6413L32.4387 80.6515L32.515 76.9003L32.0151 76.8901ZM32.1938 80.3965L31.578 80.3839L31.5678 80.8838L32.1837 80.8964L32.1938 80.3965ZM31.8228 80.639L31.8568 78.9663L31.3569 78.9561L31.3229 80.6288L31.8228 80.639ZM31.612 78.7113L29.5754 78.6699L29.5652 79.1698L31.6018 79.2112L31.612 78.7113ZM29.3204 78.9147L29.2864 80.5874L29.7862 80.5975L29.8203 78.9249L29.3204 78.9147ZM29.5414 80.3425L28.9255 80.33L28.9153 80.8299L29.5312 80.8424L29.5414 80.3425ZM29.1704 80.585L29.2466 76.8338L28.7467 76.8236L28.6705 80.5748L29.1704 80.585ZM28.9916 77.0787L29.6075 77.0912L29.6176 76.5913L29.0018 76.5788L28.9916 77.0787ZM33.6075 80.6753L33.6024 80.9252L33.7383 80.928L33.8145 80.8154L33.6075 80.6753ZM32.8936 80.6607L32.6898 80.516L32.4163 80.9011L32.8886 80.9107L32.8936 80.6607ZM33.9964 79.1078L34.2003 79.2526L34.406 78.9629L34.0638 78.8671L33.9964 79.1078ZM33.5801 78.9243L33.4439 79.1341L33.4493 79.1374L33.5801 78.9243ZM33.2581 78.5747L33.0377 78.6928L33.0394 78.6958L33.2581 78.5747ZM33.5239 77.2078L33.6723 77.4091L33.6747 77.4073L33.5239 77.2078ZM36.1752 76.9747L36.4252 76.9798L36.4303 76.7298L36.1803 76.7248L36.1752 76.9747ZM36.099 80.7259L36.0939 80.9759L36.3438 80.981L36.3489 80.731L36.099 80.7259ZM35.4831 80.7134L35.2332 80.7083L35.2281 80.9583L35.478 80.9634L35.4831 80.7134ZM35.5134 79.2227L35.7634 79.2278L35.7684 78.9779L35.5185 78.9728L35.5134 79.2227ZM34.6036 79.2042L34.6087 78.9543L34.4728 78.9515L34.3966 79.064L34.6036 79.2042ZM33.9662 78.5261L33.8219 78.7304L33.8289 78.735L33.9662 78.5261ZM35.5238 78.7118L35.5187 78.9618L35.7687 78.9669L35.7737 78.7169L35.5238 78.7118ZM35.549 77.4731L35.7989 77.4782L35.804 77.2282L35.5541 77.2231L35.549 77.4731ZM33.9289 77.6082L33.7666 77.4179L33.7631 77.4211L33.9289 77.6082ZM33.6126 80.4253L32.8987 80.4108L32.8886 80.9107L33.6024 80.9252L33.6126 80.4253ZM33.0975 80.8055L34.2003 79.2526L33.7926 78.9631L32.6898 80.516L33.0975 80.8055ZM34.0638 78.8671C33.9433 78.8334 33.8258 78.7818 33.7109 78.7113L33.4493 79.1374C33.6017 79.231 33.7618 79.3018 33.929 79.3486L34.0638 78.8671ZM33.7162 78.7147C33.6187 78.6514 33.539 78.566 33.4768 78.4536L33.0394 78.6958C33.1393 78.8762 33.2742 79.0239 33.4439 79.134L33.7162 78.7147ZM33.4784 78.4566C33.4227 78.3526 33.3895 78.2125 33.3933 78.0244L32.8934 78.0142C32.8883 78.2646 32.9316 78.4948 33.0378 78.6928L33.4784 78.4566ZM33.3933 78.0244C33.3994 77.7275 33.4997 77.5364 33.6723 77.4091L33.3756 77.0066C33.0554 77.2427 32.902 77.5925 32.8934 78.0142L33.3933 78.0244ZM33.6747 77.4073C33.8646 77.2637 34.1285 77.1831 34.4905 77.1905L34.5007 76.6906C34.0602 76.6816 33.6763 76.7792 33.3732 77.0084L33.6747 77.4073ZM34.4905 77.1905L36.1701 77.2247L36.1803 76.7248L34.5007 76.6906L34.4905 77.1905ZM35.9253 76.9696L35.849 80.7209L36.3489 80.731L36.4252 76.9798L35.9253 76.9696ZM36.1041 80.476L35.4882 80.4635L35.478 80.9634L36.0939 80.9759L36.1041 80.476ZM35.733 80.7185L35.7634 79.2278L35.2635 79.2176L35.2332 80.7083L35.733 80.7185ZM35.5185 78.9728L34.6087 78.9543L34.5985 79.4542L35.5083 79.4727L35.5185 78.9728ZM34.3966 79.064L33.4005 80.5351L33.8145 80.8154L34.8106 79.3444L34.3966 79.064ZM33.4882 78.0333C33.4823 78.3192 33.5887 78.5655 33.822 78.7303L34.1105 78.3219C34.0309 78.2657 33.9851 78.1868 33.9881 78.0435L33.4882 78.0333ZM33.8289 78.735C34.0445 78.8767 34.3225 78.9374 34.6369 78.9438L34.6471 78.4439C34.3829 78.4386 34.2104 78.3874 34.1036 78.3172L33.8289 78.735ZM34.6369 78.9438L35.5187 78.9618L35.5289 78.4619L34.6471 78.4439L34.6369 78.9438ZM35.7737 78.7169L35.7989 77.4782L35.299 77.468L35.2738 78.7067L35.7737 78.7169ZM35.5541 77.2231L34.5533 77.2028L34.5431 77.7027L35.5439 77.723L35.5541 77.2231ZM34.5533 77.2028C34.2464 77.1965 33.9644 77.2493 33.7666 77.418L34.0912 77.7984C34.1499 77.7482 34.2807 77.6973 34.5431 77.7027L34.5533 77.2028ZM33.7631 77.4211C33.5831 77.5805 33.4931 77.792 33.4882 78.0333L33.9881 78.0435C33.9904 77.9301 34.0275 77.8548 34.0947 77.7953L33.7631 77.4211ZM39.1924 76.1679L39.1975 75.9179L39.0411 75.9148L38.9699 76.054L39.1924 76.1679ZM39.7033 76.1783L39.9259 76.2922L40.1079 75.9365L39.7084 75.9283L39.7033 76.1783ZM37.3629 80.7516L37.3578 81.0016L37.5142 81.0048L37.5854 80.8655L37.3629 80.7516ZM36.852 80.7412L36.6294 80.6274L36.4474 80.9831L36.8469 80.9912L36.852 80.7412ZM39.1873 76.4178L39.6982 76.4282L39.7084 75.9283L39.1975 75.9179L39.1873 76.4178ZM39.4808 76.0644L37.1403 80.6377L37.5854 80.8655L39.9259 76.2922L39.4808 76.0644ZM37.3679 80.5017L36.8571 80.4913L36.8469 80.9912L37.3578 81.0016L37.3679 80.5017ZM37.0745 80.8551L39.415 76.2818L38.9699 76.054L36.6294 80.6274L37.0745 80.8551ZM41.0604 77.0741L41.3103 77.0792L41.3154 76.8292L41.0655 76.8241L41.0604 77.0741ZM41.0287 78.6347L40.7787 78.6297L40.7736 78.8796L41.0236 78.8847L41.0287 78.6347ZM43.0652 78.6762L43.0602 78.9261L43.3101 78.9312L43.3152 78.6812L43.0652 78.6762ZM43.097 77.1155L43.102 76.8655L42.8521 76.8605L42.847 77.1104L43.097 77.1155ZM43.7128 77.128L43.9628 77.1331L43.9679 76.8831L43.7179 76.8781L43.7128 77.128ZM43.6366 80.8792L43.6315 81.1292L43.8814 81.1343L43.8865 80.8843L43.6366 80.8792ZM43.0207 80.8667L42.7708 80.8616L42.7657 81.1116L43.0156 81.1167L43.0207 80.8667ZM43.0547 79.1941L43.3047 79.1991L43.3097 78.9492L43.0598 78.9441L43.0547 79.1941ZM41.0181 79.1526L41.0232 78.9027L40.7733 78.8976L40.7682 79.1476L41.0181 79.1526ZM40.9841 80.8253L40.979 81.0752L41.229 81.0803L41.2341 80.8304L40.9841 80.8253ZM40.3683 80.8128L40.1183 80.8077L40.1132 81.0576L40.3632 81.0627L40.3683 80.8128ZM40.4445 77.0615L40.4496 76.8116L40.1996 76.8065L40.1946 77.0565L40.4445 77.0615ZM40.8104 77.069L40.7787 78.6297L41.2786 78.6398L41.3103 77.0792L40.8104 77.069ZM41.0236 78.8847L43.0602 78.9261L43.0703 78.4262L41.0337 78.3848L41.0236 78.8847ZM43.3152 78.6812L43.3469 77.1206L42.847 77.1104L42.8153 78.6711L43.3152 78.6812ZM43.0919 77.3654L43.7078 77.378L43.7179 76.8781L43.102 76.8655L43.0919 77.3654ZM43.4629 77.1229L43.3866 80.8742L43.8865 80.8843L43.9628 77.1331L43.4629 77.1229ZM43.6417 80.6293L43.0258 80.6168L43.0156 81.1167L43.6315 81.1292L43.6417 80.6293ZM43.2707 80.8718L43.3047 79.1991L42.8048 79.189L42.7708 80.8616L43.2707 80.8718ZM43.0598 78.9441L41.0232 78.9027L41.013 79.4026L43.0496 79.444L43.0598 78.9441ZM40.7682 79.1476L40.7342 80.8202L41.2341 80.8304L41.2681 79.1577L40.7682 79.1476ZM40.9892 80.5753L40.3733 80.5628L40.3632 81.0627L40.979 81.0752L40.9892 80.5753ZM40.6182 80.8178L40.6945 77.0666L40.1946 77.0565L40.1183 80.8077L40.6182 80.8178ZM40.4394 77.3115L41.0553 77.324L41.0655 76.8241L40.4496 76.8116L40.4394 77.3115ZM47.1723 77.3384L47.0375 77.5489L47.0394 77.5501L47.1723 77.3384ZM47.6921 77.9441L47.4639 78.0464L47.4663 78.0513L47.6921 77.9441ZM47.8555 79.2077L47.8504 79.4576L48.1003 79.4627L48.1054 79.2128L47.8555 79.2077ZM45.287 79.1554L45.2921 78.9055L45.0366 78.9003L45.037 79.1559L45.287 79.1554ZM45.5891 80.1348L45.4014 80.3L45.4051 80.304L45.5891 80.1348ZM47.0884 80.4313L47.1397 80.6761L47.1441 80.6751L47.0884 80.4313ZM47.6663 80.2471L47.9162 80.2521L47.9239 79.8731L47.5725 80.0153L47.6663 80.2471ZM47.6553 80.7859L47.7512 81.0168L47.902 80.9543L47.9053 80.791L47.6553 80.7859ZM47.0848 80.9564L47.0407 80.7102L47.0348 80.7114L47.0848 80.9564ZM45.4782 80.7697L45.3559 80.9877L45.3575 80.9886L45.4782 80.7697ZM44.8544 80.1128L44.63 80.223L44.6322 80.2273L44.8544 80.1128ZM44.8764 77.9989L44.6529 77.8868L44.6515 77.8897L44.8764 77.9989ZM45.4711 77.3318L45.3422 77.1176L45.3404 77.1187L45.4711 77.3318ZM45.6278 77.8881L45.4457 77.7169L45.4454 77.7171L45.6278 77.8881ZM45.3109 78.6658L45.0627 78.6366L45.0304 78.9102L45.3059 78.9158L45.3109 78.6658ZM47.2215 78.7047L47.2165 78.9546L47.4664 78.9597L47.4715 78.7098L47.2215 78.7047ZM47.1349 78.1428L46.9019 78.2333L46.9019 78.2333L47.1349 78.1428ZM46.8416 77.7658L46.692 77.9664L46.7003 77.9721L46.8416 77.7658ZM46.3457 77.3616C46.6308 77.3674 46.8576 77.4337 47.0375 77.5489L47.3071 77.1279C47.0354 76.9538 46.7145 76.869 46.3558 76.8617L46.3457 77.3616ZM47.0394 77.5501C47.2261 77.6674 47.3672 77.8303 47.464 78.0463L47.9202 77.8419C47.7849 77.5398 47.5794 77.2989 47.3053 77.1267L47.0394 77.5501ZM47.4663 78.0513C47.5673 78.2642 47.6193 78.5219 47.613 78.8317L48.1129 78.8418C48.1205 78.4705 48.0586 78.133 47.9179 77.8369L47.4663 78.0513ZM47.613 78.8317L47.6055 79.2026L48.1054 79.2128L48.1129 78.8418L47.613 78.8317ZM47.8605 78.9577L45.2921 78.9055L45.2819 79.4054L47.8504 79.4576L47.8605 78.9577ZM45.037 79.1559C45.0377 79.6172 45.1472 80.011 45.4015 80.2999L45.7768 79.9696C45.6296 79.8023 45.5376 79.5432 45.537 79.155L45.037 79.1559ZM45.4051 80.304C45.667 80.5888 46.0275 80.7228 46.4522 80.7315L46.4624 80.2316C46.1405 80.225 45.9223 80.1278 45.7732 79.9656L45.4051 80.304ZM46.4522 80.7315C46.7042 80.7366 46.9341 80.7191 47.1397 80.676L47.0372 80.1866C46.8771 80.2202 46.6863 80.2361 46.4624 80.2316L46.4522 80.7315ZM47.1441 80.6751C47.346 80.6289 47.5514 80.5633 47.7601 80.4788L47.5725 80.0153C47.3859 80.0908 47.206 80.148 47.0327 80.1876L47.1441 80.6751ZM47.4163 80.242L47.4054 80.7809L47.9053 80.791L47.9162 80.2521L47.4163 80.242ZM47.5595 80.555C47.3816 80.6289 47.2087 80.6802 47.0407 80.7103L47.1288 81.2025C47.3356 81.1655 47.5431 81.1032 47.7512 81.0168L47.5595 80.555ZM47.0348 80.7114C46.8704 80.7449 46.6677 80.7609 46.4237 80.7559L46.4135 81.2558C46.6828 81.2613 46.9242 81.2442 47.1347 81.2013L47.0348 80.7114ZM46.4237 80.7559C46.1039 80.7494 45.8311 80.6788 45.599 80.5508L45.3575 80.9886C45.67 81.161 46.0242 81.2479 46.4135 81.2558L46.4237 80.7559ZM45.6005 80.5516C45.378 80.4268 45.2037 80.245 45.0767 79.9984L44.6322 80.2273C44.8015 80.5561 45.0431 80.8122 45.3559 80.9877L45.6005 80.5516ZM45.0789 80.0027C44.9572 79.7547 44.8941 79.4426 44.9019 79.0566L44.402 79.0464C44.393 79.4909 44.4648 79.8863 44.63 80.223L45.0789 80.0027ZM44.9019 79.0566C44.9097 78.6727 44.9794 78.3592 45.1013 78.108L44.6515 77.8897C44.4908 78.2209 44.4109 78.6091 44.402 79.0464L44.9019 79.0566ZM45.0999 78.1109C45.2273 77.8568 45.3952 77.6716 45.6018 77.5449L45.3404 77.1187C45.0459 77.2993 44.8174 77.5587 44.6529 77.8868L45.0999 78.1109ZM45.6 77.546C45.8103 77.4195 46.056 77.3557 46.3457 77.3616L46.3558 76.8617C45.9829 76.8541 45.6422 76.9371 45.3422 77.1176L45.6 77.546ZM46.3386 77.3655C45.9849 77.3583 45.6777 77.47 45.4457 77.7169L45.81 78.0593C45.931 77.9306 46.0942 77.8606 46.3284 77.8654L46.3386 77.3655ZM45.4454 77.7171C45.2264 77.9508 45.1063 78.2663 45.0627 78.6366L45.5592 78.6951C45.5946 78.3948 45.6857 78.1919 45.8102 78.0591L45.4454 77.7171ZM45.3059 78.9158L47.2165 78.9546L47.2266 78.4547L45.316 78.4159L45.3059 78.9158ZM47.4715 78.7098C47.4764 78.4704 47.4445 78.2493 47.368 78.0523L46.9019 78.2333C46.9496 78.3562 46.9755 78.5097 46.9716 78.6996L47.4715 78.7098ZM47.368 78.0523C47.2888 77.8484 47.1604 77.6811 46.9828 77.5595L46.7003 77.9721C46.7897 78.0332 46.8569 78.1173 46.9019 78.2333L47.368 78.0523ZM46.991 77.5653C46.8093 77.4299 46.5847 77.3705 46.3386 77.3655L46.3284 77.8654C46.5022 77.8689 46.6164 77.9097 46.6921 77.9662L46.991 77.5653ZM51.6364 77.2892L51.8863 77.2943L51.8914 77.0443L51.6415 77.0392L51.6364 77.2892ZM51.5707 80.5225L51.3207 80.5174L51.3156 80.7674L51.5656 80.7724L51.5707 80.5225ZM52.1166 80.5336L52.3665 80.5387L52.3716 80.2887L52.1216 80.2837L52.1166 80.5336ZM52.0796 82.3532L52.0745 82.6032L52.3244 82.6083L52.3295 82.3583L52.0796 82.3532ZM51.4847 82.3411L51.2347 82.336L51.2297 82.586L51.4796 82.5911L51.4847 82.3411ZM51.5112 81.0394L51.7611 81.0445L51.7662 80.7945L51.5162 80.7894L51.5112 81.0394ZM48.9007 80.9863L48.9058 80.7364L48.6558 80.7313L48.6507 80.9812L48.9007 80.9863ZM48.8742 82.288L48.8691 82.538L49.1191 82.5431L49.1242 82.2931L48.8742 82.288ZM48.2864 82.2761L48.0364 82.271L48.0313 82.5209L48.2813 82.526L48.2864 82.2761ZM48.3233 80.4565L48.3284 80.2065L48.0785 80.2014L48.0734 80.4514L48.3233 80.4565ZM48.6243 80.4626L48.6192 80.7125L48.7474 80.7151L48.8243 80.6126L48.6243 80.4626ZM49.1759 79.5006L48.9464 79.4015L48.9458 79.403L49.1759 79.5006ZM49.5204 78.4014L49.2759 78.3491L49.2754 78.3514L49.5204 78.4014ZM49.6628 77.249L49.6679 76.9991L49.421 76.9941L49.4129 77.2409L49.6628 77.249ZM50.1989 77.743L50.204 77.4931L49.9683 77.4883L49.9497 77.7233L50.1989 77.743ZM50.0318 78.7268L50.2739 78.7892L50.2741 78.7885L50.0318 78.7268ZM49.7043 79.6864L49.4748 79.587L49.4736 79.59L49.7043 79.6864ZM49.2611 80.4755L49.0622 80.3242L48.7645 80.7155L49.2561 80.7255L49.2611 80.4755ZM50.9758 80.5104L50.9707 80.7604L51.2207 80.7654L51.2257 80.5155L50.9758 80.5104ZM51.0317 77.76L51.2817 77.7651L51.2867 77.5151L51.0368 77.51L51.0317 77.76ZM51.3865 77.2841L51.3207 80.5174L51.8206 80.5276L51.8863 77.2943L51.3865 77.2841ZM51.5656 80.7724L52.1115 80.7836L52.1216 80.2837L51.5758 80.2726L51.5656 80.7724ZM51.8666 80.5285L51.8296 82.3481L52.3295 82.3583L52.3665 80.5387L51.8666 80.5285ZM52.0846 82.1033L51.4898 82.0912L51.4796 82.5911L52.0745 82.6032L52.0846 82.1033ZM51.7346 82.3462L51.7611 81.0445L51.2612 81.0343L51.2347 82.336L51.7346 82.3462ZM51.5162 80.7894L48.9058 80.7364L48.8956 81.2363L51.5061 81.2893L51.5162 80.7894ZM48.6507 80.9812L48.6243 82.283L49.1242 82.2931L49.1506 80.9914L48.6507 80.9812ZM48.8793 82.0381L48.2914 82.0261L48.2813 82.526L48.8691 82.538L48.8793 82.0381ZM48.5363 82.2812L48.5733 80.4615L48.0734 80.4514L48.0364 82.271L48.5363 82.2812ZM48.3183 80.7064L48.6192 80.7125L48.6294 80.2126L48.3284 80.2065L48.3183 80.7064ZM48.8243 80.6126C49.0574 80.3017 49.2513 79.9634 49.4061 79.5981L48.9458 79.403C48.8064 79.7319 48.6325 80.0349 48.4243 80.3126L48.8243 80.6126ZM49.4055 79.5997C49.5642 79.232 49.6842 78.8491 49.7653 78.4513L49.2754 78.3514C49.201 78.716 49.0913 79.0659 48.9464 79.4015L49.4055 79.5997ZM49.7648 78.4537C49.8504 78.0539 49.8997 77.655 49.9127 77.2572L49.4129 77.2409C49.401 77.6081 49.3554 77.9774 49.2759 78.3491L49.7648 78.4537ZM49.6577 77.499L51.6313 77.5391L51.6415 77.0392L49.6679 76.9991L49.6577 77.499ZM49.9497 77.7233C49.9258 78.0247 49.8727 78.3386 49.7896 78.6652L50.2741 78.7885C50.3635 78.4371 50.4218 78.0951 50.4481 77.7628L49.9497 77.7233ZM49.7898 78.6645C49.7067 78.9866 49.6017 79.2941 49.4749 79.587L49.9337 79.7857C50.0713 79.4679 50.1847 79.1357 50.2739 78.7892L49.7898 78.6645ZM49.4736 79.59C49.3527 79.8796 49.215 80.1233 49.0622 80.3242L49.4601 80.6269C49.643 80.3865 49.8007 80.1041 49.935 79.7827L49.4736 79.59ZM49.2561 80.7255L50.9707 80.7604L50.9809 80.2605L49.2662 80.2256L49.2561 80.7255ZM51.2257 80.5155L51.2817 77.7651L50.7818 77.7549L50.7258 80.5053L51.2257 80.5155ZM51.0368 77.51L50.204 77.4931L50.1938 77.993L51.0266 78.0099L51.0368 77.51ZM55.1892 77.5015L55.0544 77.712L55.0562 77.7132L55.1892 77.5015ZM55.709 78.1072L55.4808 78.2094L55.4832 78.2144L55.709 78.1072ZM55.8724 79.3707L55.8673 79.6207L56.1172 79.6258L56.1223 79.3758L55.8724 79.3707ZM53.3039 79.3185L53.309 79.0685L53.0535 79.0634L53.0539 79.3189L53.3039 79.3185ZM53.606 80.2978L53.4183 80.463L53.422 80.467L53.606 80.2978ZM55.1053 80.5944L55.1566 80.8391L55.161 80.8381L55.1053 80.5944ZM55.6832 80.4101L55.9331 80.4152L55.9408 80.0361L55.5894 80.1784L55.6832 80.4101ZM55.6722 80.949L55.7681 81.1799L55.9189 81.1173L55.9222 80.9541L55.6722 80.949ZM55.1017 81.1194L55.0576 80.8733L55.0517 80.8745L55.1017 81.1194ZM53.4951 80.9327L53.3728 81.1508L53.3744 81.1516L53.4951 80.9327ZM52.8713 80.2759L52.6469 80.386L52.6491 80.3904L52.8713 80.2759ZM52.8933 78.1619L52.6698 78.0498L52.6684 78.0528L52.8933 78.1619ZM53.488 77.4949L53.3591 77.2806L53.3573 77.2817L53.488 77.4949ZM53.6447 78.0512L53.4626 77.8799L53.4623 77.8802L53.6447 78.0512ZM53.3278 78.8289L53.0796 78.7996L53.0473 79.0732L53.3228 79.0788L53.3278 78.8289ZM55.2384 78.8677L55.2334 79.1177L55.4833 79.1228L55.4884 78.8728L55.2384 78.8677ZM55.1518 78.3059L54.9188 78.3963L54.9188 78.3963L55.1518 78.3059ZM54.8584 77.9288L54.7089 78.1294L54.7172 78.1351L54.8584 77.9288ZM54.3626 77.5247C54.6477 77.5305 54.8745 77.5968 55.0544 77.712L55.324 77.2909C55.0523 77.1169 54.7314 77.0321 54.3727 77.0248L54.3626 77.5247ZM55.0562 77.7132C55.243 77.8304 55.384 77.9933 55.4809 78.2094L55.9371 78.0049C55.8018 77.7028 55.5963 77.4619 55.3222 77.2897L55.0562 77.7132ZM55.4832 78.2144C55.5842 78.4273 55.6362 78.6849 55.6299 78.9947L56.1298 79.0049C56.1374 78.6335 56.0755 78.2961 55.9348 77.9999L55.4832 78.2144ZM55.6299 78.9947L55.6224 79.3657L56.1223 79.3758L56.1298 79.0049L55.6299 78.9947ZM55.8774 79.1208L53.309 79.0685L53.2988 79.5684L55.8673 79.6207L55.8774 79.1208ZM53.0539 79.3189C53.0546 79.7803 53.1641 80.174 53.4184 80.463L53.7937 80.1327C53.6465 79.9654 53.5545 79.7062 53.5539 79.3181L53.0539 79.3189ZM53.422 80.467C53.6838 80.7519 54.0444 80.8859 54.4691 80.8945L54.4793 80.3946C54.1574 80.3881 53.9392 80.2909 53.7901 80.1287L53.422 80.467ZM54.4691 80.8945C54.7211 80.8996 54.951 80.8821 55.1566 80.8391L55.0541 80.3497C54.894 80.3832 54.7032 80.3992 54.4793 80.3946L54.4691 80.8945ZM55.161 80.8381C55.3629 80.792 55.5683 80.7263 55.777 80.6418L55.5894 80.1784C55.4028 80.2539 55.2229 80.3111 55.0496 80.3507L55.161 80.8381ZM55.4332 80.405L55.4223 80.9439L55.9222 80.9541L55.9331 80.4152L55.4332 80.405ZM55.5764 80.7181C55.3985 80.7919 55.2256 80.8433 55.0576 80.8733L55.1457 81.3655C55.3525 81.3285 55.56 81.2662 55.7681 81.1799L55.5764 80.7181ZM55.0517 80.8745C54.8873 80.908 54.6846 80.9239 54.4406 80.9189L54.4304 81.4188C54.6997 81.4243 54.9411 81.4073 55.1516 81.3644L55.0517 80.8745ZM54.4406 80.9189C54.1208 80.9124 53.848 80.8419 53.6159 80.7138L53.3744 81.1516C53.6869 81.324 54.0411 81.4109 54.4304 81.4188L54.4406 80.9189ZM53.6174 80.7147C53.3949 80.5899 53.2206 80.4081 53.0936 80.1614L52.6491 80.3904C52.8184 80.7192 53.06 80.9753 53.3728 81.1508L53.6174 80.7147ZM53.0958 80.1658C52.9741 79.9178 52.911 79.6057 52.9188 79.2196L52.4189 79.2095C52.4099 79.6539 52.4817 80.0494 52.6469 80.386L53.0958 80.1658ZM52.9188 79.2196C52.9266 78.8358 52.9963 78.5223 53.1182 78.271L52.6684 78.0528C52.5077 78.3839 52.4278 78.7722 52.4189 79.2095L52.9188 79.2196ZM53.1168 78.274C53.2442 78.0199 53.4121 77.8346 53.6187 77.708L53.3573 77.2817C53.0628 77.4623 52.8343 77.7217 52.6698 78.0499L53.1168 78.274ZM53.6169 77.7091C53.8272 77.5826 54.0729 77.5188 54.3626 77.5247L54.3727 77.0248C53.9998 77.0172 53.6591 77.1002 53.3591 77.2806L53.6169 77.7091ZM54.3555 77.5285C54.0018 77.5213 53.6946 77.6331 53.4626 77.8799L53.8269 78.2224C53.9479 78.0937 54.1111 78.0236 54.3453 78.0284L54.3555 77.5285ZM53.4623 77.8802C53.2433 78.1138 53.1232 78.4294 53.0796 78.7996L53.5761 78.8581C53.6115 78.5579 53.7026 78.3549 53.8271 78.2221L53.4623 77.8802ZM53.3228 79.0788L55.2334 79.1177L55.2435 78.6178L53.3329 78.5789L53.3228 79.0788ZM55.4884 78.8728C55.4933 78.6335 55.4614 78.4124 55.3849 78.2154L54.9188 78.3963C54.9665 78.5193 54.9924 78.6728 54.9885 78.8627L55.4884 78.8728ZM55.3849 78.2154C55.3057 78.0115 55.1773 77.8442 54.9997 77.7225L54.7172 78.1351C54.8066 78.1963 54.8738 78.2803 54.9188 78.3963L55.3849 78.2154ZM55.0079 77.7284C54.8262 77.5929 54.6016 77.5335 54.3555 77.5285L54.3453 78.0284C54.5191 78.0319 54.6333 78.0728 54.709 78.1293L55.0079 77.7284ZM59.647 81.2049L59.6419 81.4548L59.8919 81.4599L59.897 81.21L59.647 81.2049ZM59.0242 81.1922L58.7742 81.1871L58.7691 81.4371L59.0191 81.4421L59.0242 81.1922ZM59.09 77.9519L59.34 77.957L59.3451 77.707L59.0951 77.7019L59.09 77.9519ZM57.9843 77.9294L57.9893 77.6794L57.7583 77.6747L57.7355 77.9047L57.9843 77.9294ZM57.7784 79.4445L58.024 79.4911L58.0241 79.4906L57.7784 79.4445ZM57.0953 81.0199L56.9416 80.8227L57.0953 81.0199ZM56.385 81.1735L56.428 80.9273L56.4195 80.9258L56.4108 80.9249L56.385 81.1735ZM56.2457 81.1357L55.9958 81.1306L55.9926 81.2851L56.1294 81.357L56.2457 81.1357ZM56.2551 80.6738L56.339 80.4383L56.0122 80.3219L56.0052 80.6687L56.2551 80.6738ZM56.3457 80.6966L56.3053 80.9434L56.3053 80.9434L56.3457 80.6966ZM56.726 80.5853L56.5529 80.405L56.5529 80.405L56.726 80.5853ZM56.9578 80.205L56.728 80.1063L56.7258 80.1118L56.9578 80.205ZM57.16 79.558L57.4033 79.6153L57.4035 79.6144L57.16 79.558ZM57.326 78.6231L57.5737 78.6572L57.5737 78.6572L57.326 78.6231ZM57.4627 77.4077L57.4678 77.1577L57.2353 77.153L57.2138 77.3846L57.4627 77.4077ZM59.7233 77.4536L59.9732 77.4587L59.9783 77.2088L59.7284 77.2037L59.7233 77.4536ZM59.6521 80.9549L59.0292 80.9423L59.0191 81.4421L59.6419 81.4548L59.6521 80.9549ZM59.2741 81.1973L59.34 77.957L58.8401 77.9468L58.7742 81.1871L59.2741 81.1973ZM59.0951 77.7019L57.9893 77.6794L57.9792 78.1793L59.0849 78.2018L59.0951 77.7019ZM57.7355 77.9047C57.6772 78.4917 57.6095 78.9892 57.5327 79.3984L58.0241 79.4906C58.1044 79.0629 58.1739 78.5503 58.233 77.9541L57.7355 77.9047ZM57.5328 79.398C57.4563 79.8015 57.3651 80.1183 57.2626 80.3542L57.7211 80.5536C57.8438 80.2713 57.9437 79.9152 58.024 79.4911L57.5328 79.398ZM57.2626 80.3542C57.1594 80.5917 57.0485 80.7394 56.9416 80.8227L57.2489 81.2171C57.4455 81.0639 57.5991 80.8343 57.7211 80.5536L57.2626 80.3542ZM56.9416 80.8227C56.8372 80.9041 56.7176 80.9442 56.5717 80.9413L56.5616 81.4412C56.817 81.4464 57.0498 81.3723 57.2489 81.2171L56.9416 80.8227ZM56.5717 80.9413C56.524 80.9403 56.4761 80.9357 56.428 80.9273L56.342 81.4198C56.4148 81.4325 56.4881 81.4397 56.5616 81.4412L56.5717 80.9413ZM56.4108 80.9249C56.3762 80.9213 56.3629 80.9149 56.3621 80.9144L56.1294 81.357C56.2024 81.3954 56.2819 81.4142 56.3592 81.4222L56.4108 80.9249ZM56.4957 81.1408L56.5051 80.6789L56.0052 80.6687L55.9958 81.1306L56.4957 81.1408ZM56.1713 80.9093C56.2147 80.9248 56.2596 80.9359 56.3053 80.9434L56.3861 80.4499C56.3666 80.4467 56.3511 80.4426 56.339 80.4383L56.1713 80.9093ZM56.3053 80.9434C56.3494 80.9506 56.3938 80.9547 56.4384 80.9556L56.4486 80.4557C56.4279 80.4553 56.4071 80.4534 56.3861 80.4499L56.3053 80.9434ZM56.4384 80.9556C56.6178 80.9592 56.7738 80.8861 56.8992 80.7657L56.5529 80.405C56.5069 80.4492 56.4745 80.4562 56.4486 80.4557L56.4384 80.9556ZM56.8992 80.7657C57.0206 80.649 57.1143 80.486 57.1898 80.2982L56.7258 80.1118C56.6636 80.2665 56.6028 80.3571 56.5529 80.405L56.8992 80.7657ZM57.1875 80.3036C57.2686 80.1147 57.34 79.884 57.4033 79.6153L56.9166 79.5006C56.8574 79.7522 56.794 79.9529 56.7281 80.1064L57.1875 80.3036ZM57.4035 79.6144C57.4671 79.3403 57.5237 79.0208 57.5737 78.6572L57.0783 78.5891C57.0298 78.9422 56.9757 79.246 56.9164 79.5015L57.4035 79.6144ZM57.5737 78.6572C57.6236 78.2944 57.6696 77.8854 57.7117 77.4307L57.2138 77.3846C57.1722 77.8337 57.127 78.2351 57.0783 78.5891L57.5737 78.6572ZM57.4577 77.6576L59.7182 77.7036L59.7284 77.2037L57.4678 77.1577L57.4577 77.6576ZM59.4733 77.4486L59.3971 81.1998L59.897 81.21L59.9732 77.4587L59.4733 77.4486ZM61.0686 81.2338L61.0635 81.4837L61.1994 81.4865L61.2756 81.374L61.0686 81.2338ZM60.3548 81.2193L60.1509 81.0745L59.8774 81.4596L60.3497 81.4692L60.3548 81.2193ZM61.4575 79.6664L61.6614 79.8111L61.8671 79.5214L61.5249 79.4256L61.4575 79.6664ZM61.0412 79.4829L60.905 79.6926L60.9104 79.6959L61.0412 79.4829ZM60.7192 79.1332L60.4989 79.2514L60.5005 79.2544L60.7192 79.1332ZM60.9851 77.7664L61.1334 77.9676L61.1358 77.9658L60.9851 77.7664ZM63.6363 77.5332L63.8863 77.5383L63.8914 77.2884L63.6414 77.2833L63.6363 77.5332ZM63.5601 81.2845L63.555 81.5344L63.805 81.5395L63.81 81.2895L63.5601 81.2845ZM62.9442 81.2719L62.6943 81.2668L62.6892 81.5168L62.9391 81.5219L62.9442 81.2719ZM62.9745 79.7812L63.2245 79.7863L63.2296 79.5364L62.9796 79.5313L62.9745 79.7812ZM62.0647 79.7627L62.0698 79.5128L61.9339 79.51L61.8577 79.6226L62.0647 79.7627ZM61.4274 79.0846L61.283 79.2889L61.29 79.2935L61.4274 79.0846ZM62.9849 79.2703L62.9798 79.5203L63.2298 79.5254L63.2349 79.2754L62.9849 79.2703ZM63.0101 78.0316L63.26 78.0367L63.2651 77.7867L63.0152 77.7817L63.0101 78.0316ZM61.39 78.1667L61.2277 77.9765L61.2242 77.9796L61.39 78.1667ZM61.0737 80.9838L60.3598 80.9693L60.3497 81.4692L61.0635 81.4837L61.0737 80.9838ZM60.5586 81.364L61.6614 79.8111L61.2537 79.5216L60.1509 81.0745L60.5586 81.364ZM61.5249 79.4256C61.4045 79.3919 61.2869 79.3404 61.172 79.2698L60.9104 79.6959C61.0629 79.7895 61.2229 79.8603 61.3902 79.9071L61.5249 79.4256ZM61.1773 79.2732C61.0798 79.2099 61.0002 79.1245 60.9379 79.0121L60.5005 79.2544C60.6004 79.4347 60.7353 79.5824 60.9051 79.6925L61.1773 79.2732ZM60.9396 79.0151C60.8838 78.9111 60.8506 78.771 60.8544 78.5829L60.3545 78.5727C60.3495 78.8232 60.3927 79.0533 60.4989 79.2514L60.9396 79.0151ZM60.8544 78.5829C60.8605 78.286 60.9608 78.0949 61.1334 77.9676L60.8367 77.5652C60.5165 77.8012 60.3631 78.151 60.3545 78.5727L60.8544 78.5829ZM61.1358 77.9658C61.3257 77.8223 61.5896 77.7417 61.9516 77.749L61.9618 77.2491C61.5213 77.2402 61.1374 77.3378 60.8343 77.5669L61.1358 77.9658ZM61.9516 77.749L63.6313 77.7832L63.6414 77.2833L61.9618 77.2491L61.9516 77.749ZM63.3864 77.5281L63.3101 81.2794L63.81 81.2895L63.8863 77.5383L63.3864 77.5281ZM63.5652 81.0345L62.9493 81.022L62.9391 81.5219L63.555 81.5344L63.5652 81.0345ZM63.1942 81.277L63.2245 79.7863L62.7246 79.7762L62.6943 81.2668L63.1942 81.277ZM62.9796 79.5313L62.0698 79.5128L62.0596 80.0127L62.9694 80.0312L62.9796 79.5313ZM61.8577 79.6226L60.8616 81.0936L61.2756 81.374L62.2717 79.9029L61.8577 79.6226ZM60.9493 78.5918C60.9435 78.8777 61.0498 79.124 61.2831 79.2888L61.5716 78.8805C61.492 78.8242 61.4463 78.7453 61.4492 78.602L60.9493 78.5918ZM61.29 79.2935C61.5056 79.4352 61.7836 79.496 62.098 79.5024L62.1082 79.0025C61.844 78.9971 61.6715 78.946 61.5647 78.8757L61.29 79.2935ZM62.098 79.5024L62.9798 79.5203L62.99 79.0204L62.1082 79.0025L62.098 79.5024ZM63.2349 79.2754L63.26 78.0367L62.7601 78.0265L62.735 79.2653L63.2349 79.2754ZM63.0152 77.7817L62.0144 77.7613L62.0042 78.2612L63.005 78.2815L63.0152 77.7817ZM62.0144 77.7613C61.7075 77.7551 61.4255 77.8078 61.2278 77.9765L61.5523 78.3569C61.611 78.3068 61.7419 78.2559 62.0042 78.2612L62.0144 77.7613ZM61.2242 77.9796C61.0442 78.1391 60.9542 78.3505 60.9493 78.5918L61.4492 78.602C61.4515 78.4887 61.4886 78.4133 61.5558 78.3538L61.2242 77.9796Z" fill="black"/>
<path d="M48.9203 103.744L50.5781 96.0956L59.8437 96.5544L58.1859 104.203L48.9203 103.744Z" fill="#FDA3C4" stroke="black"/>
<path d="M26.7616 102.807L28.4194 95.1581L36.4762 95.6096L35.2213 103.26L26.7616 102.807Z" fill="#FDA3C4" stroke="black"/>
<path d="M16.7465 93.0741L18.4043 85.4257L28.4758 85.8893L26.818 93.5377L16.7465 93.0741Z" fill="#FDA3C4" stroke="black"/>
<path d="M50.995 93.6828L52.6504 86.4374L61.916 86.8962L60.2606 94.1415L50.995 93.6828Z" fill="#FDA3C4" stroke="black"/>
<path d="M13.0106 111.187L14.666 103.941L23.9316 104.4L22.2762 111.645L13.0106 111.187Z" fill="#FDA3C4" stroke="black"/>
<path d="M35.5702 112.132L37.2256 104.887L46.4912 105.345L44.8358 112.591L35.5702 112.132Z" fill="#FDA3C4" stroke="black"/>
<path d="M21.8216 120.111L23.4722 113.672L32.3348 114.128L30.6843 120.567L21.8216 120.111Z" fill="#FDA3C4" stroke="black"/>
<path d="M43.9803 121.049L45.6309 114.609L55.7024 115.073L54.0518 121.512L43.9803 121.049Z" fill="#FDA3C4" stroke="black"/>
</svg>
