<svg width="114" height="136" viewBox="0 0 114 136" fill="none" xmlns="http://www.w3.org/2000/svg">
<path d="M48.4135 42.0343C43.9194 41.0357 48.607 35.4845 50.4381 34.1532C55.9311 18.1775 54.4344 19.1758 58.9289 11.1879C61.3771 6.83673 67.4184 -0.294536 76.4062 1.20314C81.549 2.06011 86.3951 8.69171 88.3927 14.6826C89.9907 19.4754 93.0525 30.9913 92.3866 36.6494C95.1832 41.0428 86.3671 41.868 84.869 42.0343C80.4744 41.2357 89.8897 37.042 91.3878 35.0449L87.8921 20.1744C84.869 12.6857 83.7972 3.10026 73.4099 2.70087C60.9264 2.22087 55.1002 24.228 51.9374 35.0449C53.5357 39.0389 50.9107 42.5335 48.4135 42.0343Z" fill="#F40000" stroke="black"/>
<path d="M7.99146 127.511L29.4651 33.6537L99.3792 30.6582L92.8872 135L7.99146 127.511Z" fill="#FDA3C4" stroke="black"/>
<path d="M112.363 121.52L93.886 134.5L99.3792 30.1582L102.875 31.1567H105.372C107.702 57.9494 112.463 112.433 112.863 116.028C113.262 119.623 112.696 121.187 112.363 121.52Z" fill="#F40000" stroke="black"/>
<path d="M42.4487 41.6394C37.9546 40.6408 40.6176 35.9813 42.4487 34.65C47.9418 18.6743 54.5367 10.2167 56.4319 7.69079C59.4284 3.69717 65.4207 0.701307 70.4146 2.19904C75.4085 3.69677 77.9054 6.69222 79.9029 12.6831C81.501 17.4759 80.5688 29.9903 79.9029 35.6485C82.6995 40.0419 80.4023 41.473 78.9042 41.6394C74.5096 40.8407 76.4072 36.647 77.9054 34.65L78.9042 20.1718C79.2371 14.8466 77.8057 4.09624 67.4184 3.69684C57.0312 3.29745 47.6093 24.8315 44.4465 35.6485C46.0447 39.6424 44.9459 42.1385 42.4487 41.6394Z" fill="#F40000" stroke="black"/>
<path d="M50.0242 130.334V78.1762L46.6433 81.6534L43.8258 76.0898L41.5718 81.6534L38.7543 76.7853L35.9368 80.9579L33.6828 76.7853L30.3018 80.9579L28.0478 76.7853L25.2303 80.9579L22.9764 76.7853L20.1589 80.9579L17.9049 76.7853L14.5239 80.9579L12.2699 76.7853L10.0159 80.9579L7.19843 76.7853L4.38093 80.9579L0.99995 76.7853V122.684C0.99995 123.797 0.99995 126.484 3.81744 127.552L52.4368 131.506L50.0242 130.334Z" fill="white" stroke="black"/>
<rect x="-0.502794" y="0.495709" width="37.3183" height="5.95433" rx="1.5" transform="matrix(-0.999963 -0.00856681 -0.00562464 0.999984 42.3476 92.3883)" fill="#FDA3C4" stroke="black"/>
<rect x="-0.503657" y="0.496702" width="37.3177" height="4.33182" rx="1.5" transform="matrix(-0.999978 -0.00656813 -0.00733625 0.999973 42.3467 105.292)" fill="#FDA3C4" stroke="black"/>
<rect x="-0.503657" y="0.496702" width="37.3177" height="4.33182" rx="1.5" transform="matrix(-0.999978 -0.00656813 -0.00733625 0.999973 42.3467 113.69)" fill="white" stroke="black"/>
<path d="M58.7706 62.805L56.6366 64.191L56.2406 63.685L59.6506 60.605H60.7506V75.125H58.7706V62.805ZM70.0717 71.385H63.0317V70.505L70.2917 60.605H72.0517V70.505H74.0317V71.385H72.0517V75.125H70.0717V71.385ZM70.0717 70.505V62.717L64.3517 70.505H70.0717Z" fill="#F40000"/>
<path d="M58.7706 62.805H59.7706V60.9631L58.2259 61.9664L58.7706 62.805ZM56.6366 64.191L55.8491 64.8073L56.4134 65.5284L57.1813 65.0296L56.6366 64.191ZM56.2406 63.685L55.5703 62.9429L54.8788 63.5675L55.4531 64.3013L56.2406 63.685ZM59.6506 60.605V59.605H59.2659L58.9803 59.8629L59.6506 60.605ZM60.7506 60.605H61.7506V59.605H60.7506V60.605ZM60.7506 75.125V76.125H61.7506V75.125H60.7506ZM58.7706 75.125H57.7706V76.125H58.7706V75.125ZM58.2259 61.9664L56.0919 63.3524L57.1813 65.0296L59.3153 63.6436L58.2259 61.9664ZM57.4241 63.5747L57.0281 63.0687L55.4531 64.3013L55.8491 64.8073L57.4241 63.5747ZM56.9109 64.4271L60.3209 61.3471L58.9803 59.8629L55.5703 62.9429L56.9109 64.4271ZM59.6506 61.605H60.7506V59.605H59.6506V61.605ZM59.7506 60.605V75.125H61.7506V60.605H59.7506ZM60.7506 74.125H58.7706V76.125H60.7506V74.125ZM59.7706 75.125V62.805H57.7706V75.125H59.7706ZM70.0717 71.385H71.0717V70.385H70.0717V71.385ZM63.0317 71.385H62.0317V72.385H63.0317V71.385ZM63.0317 70.505L62.2253 69.9136L62.0317 70.1776V70.505H63.0317ZM70.2917 60.605V59.605H69.785L69.4853 60.0136L70.2917 60.605ZM72.0517 60.605H73.0517V59.605H72.0517V60.605ZM72.0517 70.505H71.0517V71.505H72.0517V70.505ZM74.0317 70.505H75.0317V69.505H74.0317V70.505ZM74.0317 71.385V72.385H75.0317V71.385H74.0317ZM72.0517 71.385V70.385H71.0517V71.385H72.0517ZM72.0517 75.125V76.125H73.0517V75.125H72.0517ZM70.0717 75.125H69.0717V76.125H70.0717V75.125ZM70.0717 70.505V71.505H71.0717V70.505H70.0717ZM70.0717 62.717H71.0717V59.6661L69.2658 62.125L70.0717 62.717ZM64.3517 70.505L63.5458 69.913L62.3765 71.505H64.3517V70.505ZM70.0717 70.385H63.0317V72.385H70.0717V70.385ZM64.0317 71.385V70.505H62.0317V71.385H64.0317ZM63.8381 71.0964L71.0981 61.1964L69.4853 60.0136L62.2253 69.9136L63.8381 71.0964ZM70.2917 61.605H72.0517V59.605H70.2917V61.605ZM71.0517 60.605V70.505H73.0517V60.605H71.0517ZM72.0517 71.505H74.0317V69.505H72.0517V71.505ZM73.0317 70.505V71.385H75.0317V70.505H73.0317ZM74.0317 70.385H72.0517V72.385H74.0317V70.385ZM71.0517 71.385V75.125H73.0517V71.385H71.0517ZM72.0517 74.125H70.0717V76.125H72.0517V74.125ZM71.0717 75.125V71.385H69.0717V75.125H71.0717ZM71.0717 70.505V62.717H69.0717V70.505H71.0717ZM69.2658 62.125L63.5458 69.913L65.1577 71.097L70.8777 63.309L69.2658 62.125ZM64.3517 71.505H70.0717V69.505H64.3517V71.505Z" fill="black"/>
</svg>
