<svg width="24" height="24" viewBox="0 0 24 24" fill="none" xmlns="http://www.w3.org/2000/svg">
<path fill-rule="evenodd" clip-rule="evenodd" d="M20 11C20 6.032 15.968 2 11 2C6.032 2 2 6.032 2 11C2 15.968 6.032 20 11 20C15.968 20 20 15.968 20 11ZM18 11C18 14.867 14.867 18 11 18C7.132 18 4 14.867 4 11C4 7.132 7.132 4 11 4C14.867 4 18 7.132 18 11ZM18.6618 18.8935C18.3395 19.2139 18.3379 19.7349 18.6583 20.0572L20.315 21.7237C20.6353 22.046 21.1563 22.0476 21.4787 21.7272L21.7289 21.4785C22.0512 21.1581 22.0527 20.6371 21.7323 20.3148L20.0757 18.6482C19.7553 18.3259 19.2343 18.3244 18.912 18.6448L18.6618 18.8935Z" fill="#909090"/>
</svg>
