<svg width="32" height="32" viewBox="0 0 32 32" fill="none" xmlns="http://www.w3.org/2000/svg">
<path d="M5.40087 11.8932C5.42769 11.559 5.57937 11.2473 5.82572 11.0199C6.07207 10.7926 6.395 10.6664 6.73021 10.6665H25.2689C25.6041 10.6664 25.927 10.7926 26.1734 11.0199C26.4197 11.2473 26.5714 11.559 26.5982 11.8932L27.7675 26.4532C27.797 26.8201 27.7502 27.1891 27.63 27.5371C27.5098 27.885 27.3189 28.2043 27.0693 28.4748C26.8197 28.7454 26.5167 28.9613 26.1796 29.109C25.8424 29.2567 25.4783 29.3331 25.1102 29.3332H6.88887C6.52077 29.3331 6.15667 29.2567 5.81951 29.109C5.48235 28.9613 5.17942 28.7454 4.9298 28.4748C4.68018 28.2043 4.48927 27.885 4.3691 27.5371C4.24893 27.1891 4.20209 26.8201 4.23154 26.4532L5.39954 11.8932H5.40087Z" stroke="#FDA3C4" stroke-width="2" stroke-linecap="round" stroke-linejoin="round"/>
<path d="M21.3332 14.6665V7.99984C21.3332 6.58535 20.7713 5.2288 19.7711 4.2286C18.7709 3.22841 17.4143 2.6665 15.9998 2.6665C14.5853 2.6665 13.2288 3.22841 12.2286 4.2286C11.2284 5.2288 10.6665 6.58535 10.6665 7.99984V14.6665" stroke="#FDA3C4" stroke-width="2" stroke-linecap="round" stroke-linejoin="round"/>
</svg>
